G04 Layer_Color=2097348*
%FSLAX24Y24*%
%MOIN*%
G70*
G01*
G75*
%ADD11C,0.0100*%
%ADD13C,0.0150*%
%ADD15C,0.0200*%
%ADD49C,0.0020*%
%ADD50C,0.0160*%
%ADD51C,0.0060*%
D11*
X44791Y50472D02*
G03*
X44791Y50472I-487J0D01*
G01*
X44304Y52369D02*
X44596Y52953D01*
X44012D02*
X44596D01*
X44012D02*
X44304Y52369D01*
Y52175D02*
X44791Y53148D01*
X43818D02*
X44791D01*
X43818D02*
X44304Y52175D01*
X43818Y48039D02*
X44061D01*
X43818D02*
Y48525D01*
X44061D01*
Y48768D01*
X44548D01*
Y48525D02*
Y48768D01*
Y48525D02*
X44791D01*
Y48039D02*
Y48525D01*
X44548Y48039D02*
X44791D01*
X44548Y47795D02*
Y48039D01*
X44061Y47795D02*
X44548D01*
X44061D02*
Y48039D01*
X44304Y45606D02*
X44791Y46579D01*
X43818D02*
X44791D01*
X43818D02*
X44304Y45606D01*
X43818Y43416D02*
X44304Y43659D01*
X44791Y43416D01*
X44548Y43902D02*
X44791Y43416D01*
X44548Y43902D02*
X44791Y44389D01*
X44304Y44146D02*
X44791Y44389D01*
X43818D02*
X44304Y44146D01*
X43818Y44389D02*
X44061Y43902D01*
X43818Y43416D02*
X44061Y43902D01*
X44012Y41421D02*
X44596D01*
Y42005D01*
X44012D02*
X44596D01*
X44012Y41421D02*
Y42005D01*
X43818Y41226D02*
X44791D01*
Y42199D01*
X43818D02*
X44791D01*
X43818Y41226D02*
Y42199D01*
Y39036D02*
X44791D01*
Y40010D01*
X43818D02*
X44791D01*
X43818Y39036D02*
Y40010D01*
X44061Y37090D02*
X44304Y36847D01*
X43818Y37090D02*
X44061D01*
X43818D02*
X44061Y37333D01*
X43818Y37577D02*
X44061Y37333D01*
X43818Y37577D02*
X44061D01*
X44304Y37820D01*
X44548Y37577D01*
X44791D01*
X44548Y37333D02*
X44791Y37577D01*
X44548Y37333D02*
X44791Y37090D01*
X44548D02*
X44791D01*
X44304Y36847D02*
X44548Y37090D01*
X10600Y-2100D02*
Y-175D01*
X0Y-2100D02*
Y0D01*
X7199Y-2000D02*
X10600D01*
X0D02*
X3081D01*
X10000Y-1800D02*
X10600Y-2000D01*
X10000Y-2200D02*
X10600Y-2000D01*
X0D02*
X600Y-2200D01*
X0Y-2000D02*
X600Y-1800D01*
X-1700Y33200D02*
X-185D01*
X-1700Y0D02*
X0D01*
X-1600Y18549D02*
Y33200D01*
Y0D02*
Y14331D01*
X-1800Y32600D02*
X-1600Y33200D01*
X-1400Y32600D01*
X-1600Y0D02*
X-1400Y600D01*
X-1800D02*
X-1600Y0D01*
X35000Y33375D02*
Y35100D01*
X-10Y33375D02*
Y35100D01*
X19444Y35000D02*
X35000D01*
X-10D02*
X15226D01*
X34400Y35200D02*
X35000Y35000D01*
X34400Y34800D02*
X35000Y35000D01*
X-10D02*
X590Y34800D01*
X-10Y35000D02*
X590Y35200D01*
X35175Y33200D02*
X36450D01*
X35175Y8400D02*
X36450D01*
X36350Y22749D02*
Y33200D01*
Y8400D02*
Y18531D01*
X36150Y32600D02*
X36350Y33200D01*
X36550Y32600D01*
X36350Y8400D02*
X36550Y9000D01*
X36150D02*
X36350Y8400D01*
X93794Y52175D02*
Y53050D01*
X94231D01*
X94377Y52904D01*
Y52613D01*
X94231Y52467D01*
X93794D01*
X94815Y52758D02*
X95107D01*
X95253Y52613D01*
Y52175D01*
X94815D01*
X94669Y52321D01*
X94815Y52467D01*
X95253D01*
X96129Y53050D02*
Y52175D01*
X95691D01*
X95545Y52321D01*
Y52613D01*
X95691Y52758D01*
X96129D01*
X93794Y49985D02*
Y50861D01*
X94231D01*
X94377Y50715D01*
Y50423D01*
X94231Y50277D01*
X93794D01*
X94815Y50569D02*
X95107D01*
X95253Y50423D01*
Y49985D01*
X94815D01*
X94669Y50131D01*
X94815Y50277D01*
X95253D01*
X96129Y50861D02*
Y49985D01*
X95691D01*
X95545Y50131D01*
Y50423D01*
X95691Y50569D01*
X96129D01*
X93794Y47795D02*
Y48671D01*
X94231D01*
X94377Y48525D01*
Y48233D01*
X94231Y48087D01*
X93794D01*
X94815Y48379D02*
X95107D01*
X95253Y48233D01*
Y47795D01*
X94815D01*
X94669Y47941D01*
X94815Y48087D01*
X95253D01*
X96129Y48671D02*
Y47795D01*
X95691D01*
X95545Y47941D01*
Y48233D01*
X95691Y48379D01*
X96129D01*
X93794Y45606D02*
Y46481D01*
X94231D01*
X94377Y46335D01*
Y46043D01*
X94231Y45897D01*
X93794D01*
X94815Y46189D02*
X95107D01*
X95253Y46043D01*
Y45606D01*
X94815D01*
X94669Y45751D01*
X94815Y45897D01*
X95253D01*
X96129Y46481D02*
Y45606D01*
X95691D01*
X95545Y45751D01*
Y46043D01*
X95691Y46189D01*
X96129D01*
X93794Y43416D02*
Y44291D01*
X94231D01*
X94377Y44145D01*
Y43854D01*
X94231Y43708D01*
X93794D01*
X94815Y44000D02*
X95107D01*
X95253Y43854D01*
Y43416D01*
X94815D01*
X94669Y43562D01*
X94815Y43708D01*
X95253D01*
X96129Y44291D02*
Y43416D01*
X95691D01*
X95545Y43562D01*
Y43854D01*
X95691Y44000D01*
X96129D01*
X93794Y41226D02*
Y42102D01*
X94231D01*
X94377Y41956D01*
Y41664D01*
X94231Y41518D01*
X93794D01*
X94815Y41810D02*
X95107D01*
X95253Y41664D01*
Y41226D01*
X94815D01*
X94669Y41372D01*
X94815Y41518D01*
X95253D01*
X96129Y42102D02*
Y41226D01*
X95691D01*
X95545Y41372D01*
Y41664D01*
X95691Y41810D01*
X96129D01*
X93794Y39036D02*
Y39912D01*
X94231D01*
X94377Y39766D01*
Y39474D01*
X94231Y39328D01*
X93794D01*
X94815Y39620D02*
X95107D01*
X95253Y39474D01*
Y39036D01*
X94815D01*
X94669Y39182D01*
X94815Y39328D01*
X95253D01*
X96129Y39912D02*
Y39036D01*
X95691D01*
X95545Y39182D01*
Y39474D01*
X95691Y39620D01*
X96129D01*
X93794Y37722D02*
Y37139D01*
X94085Y36847D01*
X94377Y37139D01*
Y37722D01*
X94669Y36847D02*
X94961D01*
X94815D01*
Y37430D01*
X94669D01*
X95545D02*
X95837D01*
X95983Y37284D01*
Y36847D01*
X95545D01*
X95399Y36993D01*
X95545Y37139D01*
X95983D01*
X83229Y52175D02*
Y53050D01*
X83666D01*
X83812Y52904D01*
Y52613D01*
X83666Y52467D01*
X83229D01*
X83520D02*
X83812Y52175D01*
X84250D02*
X84542D01*
X84688Y52321D01*
Y52613D01*
X84542Y52758D01*
X84250D01*
X84104Y52613D01*
Y52321D01*
X84250Y52175D01*
X84980Y52758D02*
Y52321D01*
X85126Y52175D01*
X85564D01*
Y52758D01*
X85855Y52175D02*
Y52758D01*
X86293D01*
X86439Y52613D01*
Y52175D01*
X87315Y53050D02*
Y52175D01*
X86877D01*
X86731Y52321D01*
Y52613D01*
X86877Y52758D01*
X87315D01*
X83229Y49985D02*
Y50861D01*
X83666D01*
X83812Y50715D01*
Y50423D01*
X83666Y50277D01*
X83229D01*
X83520D02*
X83812Y49985D01*
X84250D02*
X84542D01*
X84688Y50131D01*
Y50423D01*
X84542Y50569D01*
X84250D01*
X84104Y50423D01*
Y50131D01*
X84250Y49985D01*
X84980Y50569D02*
Y50131D01*
X85126Y49985D01*
X85564D01*
Y50569D01*
X85855Y49985D02*
Y50569D01*
X86293D01*
X86439Y50423D01*
Y49985D01*
X87315Y50861D02*
Y49985D01*
X86877D01*
X86731Y50131D01*
Y50423D01*
X86877Y50569D01*
X87315D01*
X83229Y47795D02*
Y48671D01*
X83666D01*
X83812Y48525D01*
Y48233D01*
X83666Y48087D01*
X83229D01*
X83520D02*
X83812Y47795D01*
X84250D02*
X84542D01*
X84688Y47941D01*
Y48233D01*
X84542Y48379D01*
X84250D01*
X84104Y48233D01*
Y47941D01*
X84250Y47795D01*
X84980Y48379D02*
Y47941D01*
X85126Y47795D01*
X85564D01*
Y48379D01*
X85855Y47795D02*
Y48379D01*
X86293D01*
X86439Y48233D01*
Y47795D01*
X87315Y48671D02*
Y47795D01*
X86877D01*
X86731Y47941D01*
Y48233D01*
X86877Y48379D01*
X87315D01*
X83229Y45606D02*
Y46481D01*
X83666D01*
X83812Y46335D01*
Y46043D01*
X83666Y45897D01*
X83229D01*
X83520D02*
X83812Y45606D01*
X84250D02*
X84542D01*
X84688Y45751D01*
Y46043D01*
X84542Y46189D01*
X84250D01*
X84104Y46043D01*
Y45751D01*
X84250Y45606D01*
X84980Y46189D02*
Y45751D01*
X85126Y45606D01*
X85564D01*
Y46189D01*
X85855Y45606D02*
Y46189D01*
X86293D01*
X86439Y46043D01*
Y45606D01*
X87315Y46481D02*
Y45606D01*
X86877D01*
X86731Y45751D01*
Y46043D01*
X86877Y46189D01*
X87315D01*
X83229Y43416D02*
Y44291D01*
X83666D01*
X83812Y44145D01*
Y43854D01*
X83666Y43708D01*
X83229D01*
X83520D02*
X83812Y43416D01*
X84250D02*
X84542D01*
X84688Y43562D01*
Y43854D01*
X84542Y44000D01*
X84250D01*
X84104Y43854D01*
Y43562D01*
X84250Y43416D01*
X84980Y44000D02*
Y43562D01*
X85126Y43416D01*
X85564D01*
Y44000D01*
X85855Y43416D02*
Y44000D01*
X86293D01*
X86439Y43854D01*
Y43416D01*
X87315Y44291D02*
Y43416D01*
X86877D01*
X86731Y43562D01*
Y43854D01*
X86877Y44000D01*
X87315D01*
X83229Y41226D02*
Y42102D01*
X83666D01*
X83812Y41956D01*
Y41664D01*
X83666Y41518D01*
X83229D01*
X83520D02*
X83812Y41226D01*
X84250D02*
X84542D01*
X84688Y41372D01*
Y41664D01*
X84542Y41810D01*
X84250D01*
X84104Y41664D01*
Y41372D01*
X84250Y41226D01*
X84980Y41810D02*
Y41372D01*
X85126Y41226D01*
X85564D01*
Y41810D01*
X85855Y41226D02*
Y41810D01*
X86293D01*
X86439Y41664D01*
Y41226D01*
X87315Y42102D02*
Y41226D01*
X86877D01*
X86731Y41372D01*
Y41664D01*
X86877Y41810D01*
X87315D01*
X83229Y39036D02*
Y39912D01*
X83666D01*
X83812Y39766D01*
Y39474D01*
X83666Y39328D01*
X83229D01*
X83520D02*
X83812Y39036D01*
X84250D02*
X84542D01*
X84688Y39182D01*
Y39474D01*
X84542Y39620D01*
X84250D01*
X84104Y39474D01*
Y39182D01*
X84250Y39036D01*
X84980Y39620D02*
Y39182D01*
X85126Y39036D01*
X85564D01*
Y39620D01*
X85855Y39036D02*
Y39620D01*
X86293D01*
X86439Y39474D01*
Y39036D01*
X87315Y39912D02*
Y39036D01*
X86877D01*
X86731Y39182D01*
Y39474D01*
X86877Y39620D01*
X87315D01*
X83229Y36847D02*
Y37722D01*
X83666D01*
X83812Y37576D01*
Y37284D01*
X83666Y37139D01*
X83229D01*
X83520D02*
X83812Y36847D01*
X84250D02*
X84542D01*
X84688Y36993D01*
Y37284D01*
X84542Y37430D01*
X84250D01*
X84104Y37284D01*
Y36993D01*
X84250Y36847D01*
X84980Y37430D02*
Y36993D01*
X85126Y36847D01*
X85564D01*
Y37430D01*
X85855Y36847D02*
Y37430D01*
X86293D01*
X86439Y37284D01*
Y36847D01*
X87315Y37722D02*
Y36847D01*
X86877D01*
X86731Y36993D01*
Y37284D01*
X86877Y37430D01*
X87315D01*
X75991Y52175D02*
Y53050D01*
X76429D01*
X76575Y52904D01*
Y52613D01*
X76429Y52467D01*
X75991D01*
X76866Y53050D02*
X77450D01*
X77158D01*
Y52175D01*
X77742Y53050D02*
Y52175D01*
Y52613D01*
X78326D01*
Y53050D01*
Y52175D01*
X75991Y49985D02*
Y50861D01*
X76429D01*
X76575Y50715D01*
Y50423D01*
X76429Y50277D01*
X75991D01*
X76866Y50861D02*
X77450D01*
X77158D01*
Y49985D01*
X77742Y50861D02*
Y49985D01*
Y50423D01*
X78326D01*
Y50861D01*
Y49985D01*
X75991Y47795D02*
Y48671D01*
X76429D01*
X76575Y48525D01*
Y48233D01*
X76429Y48087D01*
X75991D01*
X76866Y48671D02*
X77450D01*
X77158D01*
Y47795D01*
X77742Y48671D02*
Y47795D01*
Y48233D01*
X78326D01*
Y48671D01*
Y47795D01*
X75991Y45606D02*
Y46481D01*
X76575Y45606D01*
Y46481D01*
X76866Y45606D02*
Y46481D01*
X77304D01*
X77450Y46335D01*
Y46043D01*
X77304Y45897D01*
X76866D01*
X77742Y46481D02*
X78326D01*
X78034D01*
Y45606D01*
X78618Y46481D02*
Y45606D01*
Y46043D01*
X79201D01*
Y46481D01*
Y45606D01*
X75991Y43416D02*
Y44291D01*
X76429D01*
X76575Y44145D01*
Y43854D01*
X76429Y43708D01*
X75991D01*
X76866Y44291D02*
X77450D01*
X77158D01*
Y43416D01*
X77742Y44291D02*
Y43416D01*
Y43854D01*
X78326D01*
Y44291D01*
Y43416D01*
X75991Y41226D02*
Y42102D01*
X76429D01*
X76575Y41956D01*
Y41664D01*
X76429Y41518D01*
X75991D01*
X76866Y42102D02*
X77450D01*
X77158D01*
Y41226D01*
X77742Y42102D02*
Y41226D01*
Y41664D01*
X78326D01*
Y42102D01*
Y41226D01*
X75991Y39036D02*
Y39912D01*
X76429D01*
X76575Y39766D01*
Y39474D01*
X76429Y39328D01*
X75991D01*
X76866Y39912D02*
X77450D01*
X77158D01*
Y39036D01*
X77742Y39912D02*
Y39036D01*
Y39474D01*
X78326D01*
Y39912D01*
Y39036D01*
X75991Y36847D02*
Y37722D01*
X76429D01*
X76575Y37576D01*
Y37284D01*
X76429Y37139D01*
X75991D01*
X76866Y37722D02*
X77450D01*
X77158D01*
Y36847D01*
X77742Y37722D02*
Y36847D01*
Y37284D01*
X78326D01*
Y37722D01*
Y36847D01*
X59738Y52175D02*
Y53050D01*
X59300Y52613D01*
X59884D01*
X60175Y52904D02*
X60321Y53050D01*
X60613D01*
X60759Y52904D01*
Y52758D01*
X60613Y52613D01*
X60759Y52467D01*
Y52321D01*
X60613Y52175D01*
X60321D01*
X60175Y52321D01*
Y52467D01*
X60321Y52613D01*
X60175Y52758D01*
Y52904D01*
X60321Y52613D02*
X60613D01*
X61051Y52175D02*
Y52321D01*
X61197D01*
Y52175D01*
X61051D01*
X61781Y52904D02*
X61927Y53050D01*
X62218D01*
X62364Y52904D01*
Y52321D01*
X62218Y52175D01*
X61927D01*
X61781Y52321D01*
Y52904D01*
X62656D02*
X62802Y53050D01*
X63094D01*
X63240Y52904D01*
Y52321D01*
X63094Y52175D01*
X62802D01*
X62656Y52321D01*
Y52904D01*
X63532Y52175D02*
Y52758D01*
X63678D01*
X63824Y52613D01*
Y52175D01*
Y52613D01*
X63970Y52758D01*
X64116Y52613D01*
Y52175D01*
X64408D02*
X64699D01*
X64553D01*
Y52758D01*
X64408D01*
X65137Y52175D02*
X65429D01*
X65283D01*
Y53050D01*
X65137D01*
X67034Y52175D02*
X66742Y52467D01*
Y52758D01*
X67034Y53050D01*
X67472Y52175D02*
X67764D01*
X67618D01*
Y53050D01*
X67472Y52904D01*
X68202Y52175D02*
Y52321D01*
X68348D01*
Y52175D01*
X68202D01*
X69515D02*
X68931D01*
X69515Y52758D01*
Y52904D01*
X69369Y53050D01*
X69077D01*
X68931Y52904D01*
X69807Y52175D02*
X70099D01*
X69953D01*
Y53050D01*
X69807Y52904D01*
X70537Y52321D02*
X70683Y52175D01*
X70975D01*
X71121Y52321D01*
Y52904D01*
X70975Y53050D01*
X70683D01*
X70537Y52904D01*
Y52758D01*
X70683Y52613D01*
X71121D01*
X71412Y52175D02*
Y52758D01*
X71558D01*
X71704Y52613D01*
Y52175D01*
Y52613D01*
X71850Y52758D01*
X71996Y52613D01*
Y52175D01*
X72288D02*
Y52758D01*
X72434D01*
X72580Y52613D01*
Y52175D01*
Y52613D01*
X72726Y52758D01*
X72872Y52613D01*
Y52175D01*
X73164D02*
X73455Y52467D01*
Y52758D01*
X73164Y53050D01*
X59300Y50131D02*
X59446Y49985D01*
X59738D01*
X59884Y50131D01*
Y50715D01*
X59738Y50861D01*
X59446D01*
X59300Y50715D01*
Y50569D01*
X59446Y50423D01*
X59884D01*
X60175Y50715D02*
X60321Y50861D01*
X60613D01*
X60759Y50715D01*
Y50131D01*
X60613Y49985D01*
X60321D01*
X60175Y50131D01*
Y50715D01*
X61051Y49985D02*
Y50131D01*
X61197D01*
Y49985D01*
X61051D01*
X61781Y50715D02*
X61927Y50861D01*
X62218D01*
X62364Y50715D01*
Y50131D01*
X62218Y49985D01*
X61927D01*
X61781Y50131D01*
Y50715D01*
X62656D02*
X62802Y50861D01*
X63094D01*
X63240Y50715D01*
Y50131D01*
X63094Y49985D01*
X62802D01*
X62656Y50131D01*
Y50715D01*
X63532Y49985D02*
Y50569D01*
X63678D01*
X63824Y50423D01*
Y49985D01*
Y50423D01*
X63970Y50569D01*
X64116Y50423D01*
Y49985D01*
X64408D02*
X64699D01*
X64553D01*
Y50569D01*
X64408D01*
X65137Y49985D02*
X65429D01*
X65283D01*
Y50861D01*
X65137D01*
X67034Y49985D02*
X66742Y50277D01*
Y50569D01*
X67034Y50861D01*
X68056Y49985D02*
X67472D01*
X68056Y50569D01*
Y50715D01*
X67910Y50861D01*
X67618D01*
X67472Y50715D01*
X68348Y49985D02*
Y50131D01*
X68494D01*
Y49985D01*
X68348D01*
X69661D02*
X69077D01*
X69661Y50569D01*
Y50715D01*
X69515Y50861D01*
X69223D01*
X69077Y50715D01*
X69953D02*
X70099Y50861D01*
X70391D01*
X70537Y50715D01*
Y50569D01*
X70391Y50423D01*
X70537Y50277D01*
Y50131D01*
X70391Y49985D01*
X70099D01*
X69953Y50131D01*
Y50277D01*
X70099Y50423D01*
X69953Y50569D01*
Y50715D01*
X70099Y50423D02*
X70391D01*
X71412Y50861D02*
X71121Y50715D01*
X70829Y50423D01*
Y50131D01*
X70975Y49985D01*
X71266D01*
X71412Y50131D01*
Y50277D01*
X71266Y50423D01*
X70829D01*
X71704Y49985D02*
Y50569D01*
X71850D01*
X71996Y50423D01*
Y49985D01*
Y50423D01*
X72142Y50569D01*
X72288Y50423D01*
Y49985D01*
X72580D02*
Y50569D01*
X72726D01*
X72872Y50423D01*
Y49985D01*
Y50423D01*
X73018Y50569D01*
X73164Y50423D01*
Y49985D01*
X73455D02*
X73747Y50277D01*
Y50569D01*
X73455Y50861D01*
X59300Y47795D02*
X59592D01*
X59446D01*
Y48671D01*
X59300Y48525D01*
X60613Y47795D02*
X60029D01*
X60613Y48379D01*
Y48525D01*
X60467Y48671D01*
X60175D01*
X60029Y48525D01*
X60905Y48671D02*
X61489D01*
Y48525D01*
X60905Y47941D01*
Y47795D01*
X61781D02*
Y47941D01*
X61927D01*
Y47795D01*
X61781D01*
X62510Y48525D02*
X62656Y48671D01*
X62948D01*
X63094Y48525D01*
Y47941D01*
X62948Y47795D01*
X62656D01*
X62510Y47941D01*
Y48525D01*
X63386D02*
X63532Y48671D01*
X63824D01*
X63970Y48525D01*
Y47941D01*
X63824Y47795D01*
X63532D01*
X63386Y47941D01*
Y48525D01*
X64262Y47795D02*
Y48379D01*
X64408D01*
X64553Y48233D01*
Y47795D01*
Y48233D01*
X64699Y48379D01*
X64845Y48233D01*
Y47795D01*
X65137D02*
X65429D01*
X65283D01*
Y48379D01*
X65137D01*
X65867Y47795D02*
X66159D01*
X66013D01*
Y48671D01*
X65867D01*
X67764Y47795D02*
X67472Y48087D01*
Y48379D01*
X67764Y48671D01*
X68202Y48525D02*
X68348Y48671D01*
X68640D01*
X68786Y48525D01*
Y48379D01*
X68640Y48233D01*
X68494D01*
X68640D01*
X68786Y48087D01*
Y47941D01*
X68640Y47795D01*
X68348D01*
X68202Y47941D01*
X69077Y47795D02*
Y47941D01*
X69223D01*
Y47795D01*
X69077D01*
X70391D02*
X69807D01*
X70391Y48379D01*
Y48525D01*
X70245Y48671D01*
X69953D01*
X69807Y48525D01*
X71266Y47795D02*
X70683D01*
X71266Y48379D01*
Y48525D01*
X71121Y48671D01*
X70829D01*
X70683Y48525D01*
X72142Y48671D02*
X71850Y48525D01*
X71558Y48233D01*
Y47941D01*
X71704Y47795D01*
X71996D01*
X72142Y47941D01*
Y48087D01*
X71996Y48233D01*
X71558D01*
X72434Y47795D02*
Y48379D01*
X72580D01*
X72726Y48233D01*
Y47795D01*
Y48233D01*
X72872Y48379D01*
X73018Y48233D01*
Y47795D01*
X73310D02*
Y48379D01*
X73455D01*
X73601Y48233D01*
Y47795D01*
Y48233D01*
X73747Y48379D01*
X73893Y48233D01*
Y47795D01*
X74185D02*
X74477Y48087D01*
Y48379D01*
X74185Y48671D01*
X59300Y45606D02*
X59592D01*
X59446D01*
Y46481D01*
X59300Y46335D01*
X60613Y45606D02*
X60029D01*
X60613Y46189D01*
Y46335D01*
X60467Y46481D01*
X60175D01*
X60029Y46335D01*
X61489Y46481D02*
X61197Y46335D01*
X60905Y46043D01*
Y45751D01*
X61051Y45606D01*
X61343D01*
X61489Y45751D01*
Y45897D01*
X61343Y46043D01*
X60905D01*
X61781Y45606D02*
Y45751D01*
X61927D01*
Y45606D01*
X61781D01*
X62510Y46335D02*
X62656Y46481D01*
X62948D01*
X63094Y46335D01*
Y45751D01*
X62948Y45606D01*
X62656D01*
X62510Y45751D01*
Y46335D01*
X63386D02*
X63532Y46481D01*
X63824D01*
X63970Y46335D01*
Y45751D01*
X63824Y45606D01*
X63532D01*
X63386Y45751D01*
Y46335D01*
X64262Y45606D02*
Y46189D01*
X64408D01*
X64553Y46043D01*
Y45606D01*
Y46043D01*
X64699Y46189D01*
X64845Y46043D01*
Y45606D01*
X65137D02*
X65429D01*
X65283D01*
Y46189D01*
X65137D01*
X65867Y45606D02*
X66159D01*
X66013D01*
Y46481D01*
X65867D01*
X67764Y45606D02*
X67472Y45897D01*
Y46189D01*
X67764Y46481D01*
X68202Y46335D02*
X68348Y46481D01*
X68640D01*
X68786Y46335D01*
Y46189D01*
X68640Y46043D01*
X68494D01*
X68640D01*
X68786Y45897D01*
Y45751D01*
X68640Y45606D01*
X68348D01*
X68202Y45751D01*
X69077Y45606D02*
Y45751D01*
X69223D01*
Y45606D01*
X69077D01*
X70391D02*
X69807D01*
X70391Y46189D01*
Y46335D01*
X70245Y46481D01*
X69953D01*
X69807Y46335D01*
X70683D02*
X70829Y46481D01*
X71121D01*
X71266Y46335D01*
Y45751D01*
X71121Y45606D01*
X70829D01*
X70683Y45751D01*
Y46335D01*
X71558D02*
X71704Y46481D01*
X71996D01*
X72142Y46335D01*
Y45751D01*
X71996Y45606D01*
X71704D01*
X71558Y45751D01*
Y46335D01*
X72434Y45606D02*
Y46189D01*
X72580D01*
X72726Y46043D01*
Y45606D01*
Y46043D01*
X72872Y46189D01*
X73018Y46043D01*
Y45606D01*
X73310D02*
Y46189D01*
X73455D01*
X73601Y46043D01*
Y45606D01*
Y46043D01*
X73747Y46189D01*
X73893Y46043D01*
Y45606D01*
X74185D02*
X74477Y45897D01*
Y46189D01*
X74185Y46481D01*
X59884Y44291D02*
X59300D01*
Y43854D01*
X59592Y44000D01*
X59738D01*
X59884Y43854D01*
Y43562D01*
X59738Y43416D01*
X59446D01*
X59300Y43562D01*
X60175Y44145D02*
X60321Y44291D01*
X60613D01*
X60759Y44145D01*
Y43562D01*
X60613Y43416D01*
X60321D01*
X60175Y43562D01*
Y44145D01*
X61051Y43416D02*
Y43562D01*
X61197D01*
Y43416D01*
X61051D01*
X61781Y44145D02*
X61927Y44291D01*
X62218D01*
X62364Y44145D01*
Y43562D01*
X62218Y43416D01*
X61927D01*
X61781Y43562D01*
Y44145D01*
X62656D02*
X62802Y44291D01*
X63094D01*
X63240Y44145D01*
Y43562D01*
X63094Y43416D01*
X62802D01*
X62656Y43562D01*
Y44145D01*
X63532Y43416D02*
Y44000D01*
X63678D01*
X63824Y43854D01*
Y43416D01*
Y43854D01*
X63970Y44000D01*
X64116Y43854D01*
Y43416D01*
X64408D02*
X64699D01*
X64553D01*
Y44000D01*
X64408D01*
X65137Y43416D02*
X65429D01*
X65283D01*
Y44291D01*
X65137D01*
X67034Y43416D02*
X66742Y43708D01*
Y44000D01*
X67034Y44291D01*
X67472Y43416D02*
X67764D01*
X67618D01*
Y44291D01*
X67472Y44145D01*
X68202Y43416D02*
Y43562D01*
X68348D01*
Y43416D01*
X68202D01*
X69515D02*
X68931D01*
X69515Y44000D01*
Y44145D01*
X69369Y44291D01*
X69077D01*
X68931Y44145D01*
X69807Y44291D02*
X70391D01*
Y44145D01*
X69807Y43562D01*
Y43416D01*
X70683Y44145D02*
X70829Y44291D01*
X71121D01*
X71266Y44145D01*
Y43562D01*
X71121Y43416D01*
X70829D01*
X70683Y43562D01*
Y44145D01*
X71558Y43416D02*
Y44000D01*
X71704D01*
X71850Y43854D01*
Y43416D01*
Y43854D01*
X71996Y44000D01*
X72142Y43854D01*
Y43416D01*
X72434D02*
Y44000D01*
X72580D01*
X72726Y43854D01*
Y43416D01*
Y43854D01*
X72872Y44000D01*
X73018Y43854D01*
Y43416D01*
X73310D02*
X73601Y43708D01*
Y44000D01*
X73310Y44291D01*
X59884Y42102D02*
X59592Y41956D01*
X59300Y41664D01*
Y41372D01*
X59446Y41226D01*
X59738D01*
X59884Y41372D01*
Y41518D01*
X59738Y41664D01*
X59300D01*
X60175Y41956D02*
X60321Y42102D01*
X60613D01*
X60759Y41956D01*
Y41810D01*
X60613Y41664D01*
X60759Y41518D01*
Y41372D01*
X60613Y41226D01*
X60321D01*
X60175Y41372D01*
Y41518D01*
X60321Y41664D01*
X60175Y41810D01*
Y41956D01*
X60321Y41664D02*
X60613D01*
X61051Y41226D02*
Y41372D01*
X61197D01*
Y41226D01*
X61051D01*
X61781Y41956D02*
X61927Y42102D01*
X62218D01*
X62364Y41956D01*
Y41372D01*
X62218Y41226D01*
X61927D01*
X61781Y41372D01*
Y41956D01*
X62656D02*
X62802Y42102D01*
X63094D01*
X63240Y41956D01*
Y41372D01*
X63094Y41226D01*
X62802D01*
X62656Y41372D01*
Y41956D01*
X63532Y41226D02*
Y41810D01*
X63678D01*
X63824Y41664D01*
Y41226D01*
Y41664D01*
X63970Y41810D01*
X64116Y41664D01*
Y41226D01*
X64408D02*
X64699D01*
X64553D01*
Y41810D01*
X64408D01*
X65137Y41226D02*
X65429D01*
X65283D01*
Y42102D01*
X65137D01*
X67034Y41226D02*
X66742Y41518D01*
Y41810D01*
X67034Y42102D01*
X67472Y41226D02*
X67764D01*
X67618D01*
Y42102D01*
X67472Y41956D01*
X68202Y41226D02*
Y41372D01*
X68348D01*
Y41226D01*
X68202D01*
X68931Y42102D02*
X69515D01*
Y41956D01*
X68931Y41372D01*
Y41226D01*
X70391D02*
X69807D01*
X70391Y41810D01*
Y41956D01*
X70245Y42102D01*
X69953D01*
X69807Y41956D01*
X70683Y42102D02*
X71266D01*
Y41956D01*
X70683Y41372D01*
Y41226D01*
X71558D02*
Y41810D01*
X71704D01*
X71850Y41664D01*
Y41226D01*
Y41664D01*
X71996Y41810D01*
X72142Y41664D01*
Y41226D01*
X72434D02*
Y41810D01*
X72580D01*
X72726Y41664D01*
Y41226D01*
Y41664D01*
X72872Y41810D01*
X73018Y41664D01*
Y41226D01*
X73310D02*
X73601Y41518D01*
Y41810D01*
X73310Y42102D01*
X59300Y39766D02*
X59446Y39912D01*
X59738D01*
X59884Y39766D01*
Y39620D01*
X59738Y39474D01*
X59592D01*
X59738D01*
X59884Y39328D01*
Y39182D01*
X59738Y39036D01*
X59446D01*
X59300Y39182D01*
X60759Y39912D02*
X60175D01*
Y39474D01*
X60467Y39620D01*
X60613D01*
X60759Y39474D01*
Y39182D01*
X60613Y39036D01*
X60321D01*
X60175Y39182D01*
X61051Y39036D02*
Y39182D01*
X61197D01*
Y39036D01*
X61051D01*
X62218D02*
Y39912D01*
X61781Y39474D01*
X62364D01*
X62656Y39766D02*
X62802Y39912D01*
X63094D01*
X63240Y39766D01*
Y39620D01*
X63094Y39474D01*
X62948D01*
X63094D01*
X63240Y39328D01*
Y39182D01*
X63094Y39036D01*
X62802D01*
X62656Y39182D01*
X63532Y39036D02*
Y39620D01*
X63678D01*
X63824Y39474D01*
Y39036D01*
Y39474D01*
X63970Y39620D01*
X64116Y39474D01*
Y39036D01*
X64408D02*
X64699D01*
X64553D01*
Y39620D01*
X64408D01*
X65137Y39036D02*
X65429D01*
X65283D01*
Y39912D01*
X65137D01*
X67034Y39036D02*
X66742Y39328D01*
Y39620D01*
X67034Y39912D01*
X67472Y39766D02*
X67618Y39912D01*
X67910D01*
X68056Y39766D01*
Y39182D01*
X67910Y39036D01*
X67618D01*
X67472Y39182D01*
Y39766D01*
X68348Y39036D02*
Y39182D01*
X68494D01*
Y39036D01*
X68348D01*
X69077Y39182D02*
X69223Y39036D01*
X69515D01*
X69661Y39182D01*
Y39766D01*
X69515Y39912D01*
X69223D01*
X69077Y39766D01*
Y39620D01*
X69223Y39474D01*
X69661D01*
X69953Y39766D02*
X70099Y39912D01*
X70391D01*
X70537Y39766D01*
Y39182D01*
X70391Y39036D01*
X70099D01*
X69953Y39182D01*
Y39766D01*
X70829D02*
X70975Y39912D01*
X71266D01*
X71412Y39766D01*
Y39182D01*
X71266Y39036D01*
X70975D01*
X70829Y39182D01*
Y39766D01*
X71704Y39036D02*
Y39620D01*
X71850D01*
X71996Y39474D01*
Y39036D01*
Y39474D01*
X72142Y39620D01*
X72288Y39474D01*
Y39036D01*
X72580D02*
Y39620D01*
X72726D01*
X72872Y39474D01*
Y39036D01*
Y39474D01*
X73018Y39620D01*
X73164Y39474D01*
Y39036D01*
X73455D02*
X73747Y39328D01*
Y39620D01*
X73455Y39912D01*
X59884Y36847D02*
X59300D01*
X59884Y37430D01*
Y37576D01*
X59738Y37722D01*
X59446D01*
X59300Y37576D01*
X60175D02*
X60321Y37722D01*
X60613D01*
X60759Y37576D01*
Y36993D01*
X60613Y36847D01*
X60321D01*
X60175Y36993D01*
Y37576D01*
X61051Y36847D02*
Y36993D01*
X61197D01*
Y36847D01*
X61051D01*
X61781Y37576D02*
X61927Y37722D01*
X62218D01*
X62364Y37576D01*
Y36993D01*
X62218Y36847D01*
X61927D01*
X61781Y36993D01*
Y37576D01*
X62656D02*
X62802Y37722D01*
X63094D01*
X63240Y37576D01*
Y36993D01*
X63094Y36847D01*
X62802D01*
X62656Y36993D01*
Y37576D01*
X63532Y36847D02*
Y37430D01*
X63678D01*
X63824Y37284D01*
Y36847D01*
Y37284D01*
X63970Y37430D01*
X64116Y37284D01*
Y36847D01*
X64408D02*
X64699D01*
X64553D01*
Y37430D01*
X64408D01*
X65137Y36847D02*
X65429D01*
X65283D01*
Y37722D01*
X65137D01*
X67034Y36847D02*
X66742Y37139D01*
Y37430D01*
X67034Y37722D01*
X67472Y37576D02*
X67618Y37722D01*
X67910D01*
X68056Y37576D01*
Y36993D01*
X67910Y36847D01*
X67618D01*
X67472Y36993D01*
Y37576D01*
X68348Y36847D02*
Y36993D01*
X68494D01*
Y36847D01*
X68348D01*
X69661Y37722D02*
X69077D01*
Y37284D01*
X69369Y37430D01*
X69515D01*
X69661Y37284D01*
Y36993D01*
X69515Y36847D01*
X69223D01*
X69077Y36993D01*
X69953Y37576D02*
X70099Y37722D01*
X70391D01*
X70537Y37576D01*
Y36993D01*
X70391Y36847D01*
X70099D01*
X69953Y36993D01*
Y37576D01*
X70829D02*
X70975Y37722D01*
X71266D01*
X71412Y37576D01*
Y37430D01*
X71266Y37284D01*
X71412Y37139D01*
Y36993D01*
X71266Y36847D01*
X70975D01*
X70829Y36993D01*
Y37139D01*
X70975Y37284D01*
X70829Y37430D01*
Y37576D01*
X70975Y37284D02*
X71266D01*
X71704Y36847D02*
Y37430D01*
X71850D01*
X71996Y37284D01*
Y36847D01*
Y37284D01*
X72142Y37430D01*
X72288Y37284D01*
Y36847D01*
X72580D02*
Y37430D01*
X72726D01*
X72872Y37284D01*
Y36847D01*
Y37284D01*
X73018Y37430D01*
X73164Y37284D01*
Y36847D01*
X73455D02*
X73747Y37139D01*
Y37430D01*
X73455Y37722D01*
X51511Y35533D02*
X52095D01*
Y35387D01*
X51511Y34803D01*
Y34657D01*
X52970Y35533D02*
X52386D01*
Y35095D01*
X52678Y35241D01*
X52824D01*
X52970Y35095D01*
Y34803D01*
X52824Y34657D01*
X52532D01*
X52386Y34803D01*
X54138Y35533D02*
X54721D01*
X54429D01*
Y34657D01*
X55159D02*
X55451D01*
X55597Y34803D01*
Y35095D01*
X55451Y35241D01*
X55159D01*
X55013Y35095D01*
Y34803D01*
X55159Y34657D01*
X56035Y35387D02*
Y35241D01*
X55889D01*
X56181D01*
X56035D01*
Y34803D01*
X56181Y34657D01*
X56764Y35241D02*
X57056D01*
X57202Y35095D01*
Y34657D01*
X56764D01*
X56618Y34803D01*
X56764Y34949D01*
X57202D01*
X57494Y34657D02*
X57786D01*
X57640D01*
Y35533D01*
X57494D01*
X52095Y52175D02*
X51511D01*
X52095Y52758D01*
Y52904D01*
X51949Y53050D01*
X51657D01*
X51511Y52904D01*
X52095Y49985D02*
X51511D01*
X52095Y50569D01*
Y50715D01*
X51949Y50861D01*
X51657D01*
X51511Y50715D01*
X52095Y47795D02*
X51511D01*
X52095Y48379D01*
Y48525D01*
X51949Y48671D01*
X51657D01*
X51511Y48525D01*
X51949Y45606D02*
Y46481D01*
X51511Y46043D01*
X52095D01*
Y44291D02*
X51803Y44145D01*
X51511Y43854D01*
Y43562D01*
X51657Y43416D01*
X51949D01*
X52095Y43562D01*
Y43708D01*
X51949Y43854D01*
X51511D01*
Y41226D02*
X51803D01*
X51657D01*
Y42102D01*
X51511Y41956D01*
X52240D02*
X52386Y42102D01*
X52678D01*
X52824Y41956D01*
Y41372D01*
X52678Y41226D01*
X52386D01*
X52240Y41372D01*
Y41956D01*
X51511Y39036D02*
X51803D01*
X51657D01*
Y39912D01*
X51511Y39766D01*
X52824Y39912D02*
X52532Y39766D01*
X52240Y39474D01*
Y39182D01*
X52386Y39036D01*
X52678D01*
X52824Y39182D01*
Y39328D01*
X52678Y39474D01*
X52240D01*
X51511Y37576D02*
X51657Y37722D01*
X51949D01*
X52095Y37576D01*
Y37430D01*
X51949Y37284D01*
X51803D01*
X51949D01*
X52095Y37139D01*
Y36993D01*
X51949Y36847D01*
X51657D01*
X51511Y36993D01*
X52386Y37576D02*
X52532Y37722D01*
X52824D01*
X52970Y37576D01*
Y37430D01*
X52824Y37284D01*
X52678D01*
X52824D01*
X52970Y37139D01*
Y36993D01*
X52824Y36847D01*
X52532D01*
X52386Y36993D01*
D13*
X42959Y53708D02*
X102257D01*
X42959Y36190D02*
X102257D01*
X42959Y34000D02*
X102257D01*
Y55897D01*
X42959D02*
X102257D01*
X42959Y34000D02*
Y55897D01*
X93137Y34000D02*
Y55897D01*
X82572Y34000D02*
Y55897D01*
X75334Y34000D02*
Y55897D01*
X58643Y34000D02*
Y55897D01*
X50854Y34000D02*
Y55897D01*
X35000Y8400D02*
Y33200D01*
X12010D02*
X35000D01*
X-10D02*
X12010D01*
X-10D02*
X-1Y0D01*
X10600D01*
X17775Y8400D02*
X35000D01*
X15300D02*
X17775D01*
X10600Y0D02*
Y8400D01*
X15300D01*
D15*
X43450Y29704D02*
Y28454D01*
X44075D01*
X44283Y28662D01*
Y29495D01*
X44075Y29704D01*
X43450D01*
X44908Y29287D02*
X45324D01*
X45533Y29079D01*
Y28454D01*
X44908D01*
X44700Y28662D01*
X44908Y28871D01*
X45533D01*
X45949Y28454D02*
Y29287D01*
X46574D01*
X46782Y29079D01*
Y28454D01*
X47199D02*
X47615D01*
X47407D01*
Y29287D01*
X47199D01*
X48865Y28454D02*
X48448D01*
X48240Y28662D01*
Y29079D01*
X48448Y29287D01*
X48865D01*
X49073Y29079D01*
Y28871D01*
X48240D01*
X49490Y28454D02*
X49906D01*
X49698D01*
Y29704D01*
X49490D01*
X51781D02*
Y28454D01*
Y29079D01*
X52614D01*
Y29704D01*
Y28454D01*
X53239Y29287D02*
X53655D01*
X53863Y29079D01*
Y28454D01*
X53239D01*
X53030Y28662D01*
X53239Y28871D01*
X53863D01*
X54280Y29704D02*
Y28454D01*
Y29079D01*
X54488Y29287D01*
X54905D01*
X55113Y29079D01*
Y28454D01*
X55738Y29287D02*
X56154D01*
X56362Y29079D01*
Y28454D01*
X55738D01*
X55529Y28662D01*
X55738Y28871D01*
X56362D01*
X56779Y28038D02*
X56987D01*
X57196Y28246D01*
Y29287D01*
X59278Y29079D02*
X60111D01*
X62194Y28454D02*
X61777Y28871D01*
Y29287D01*
X62194Y29704D01*
X62819Y29495D02*
X63027Y29704D01*
X63444D01*
X63652Y29495D01*
Y29287D01*
X63444Y29079D01*
X63652Y28871D01*
Y28662D01*
X63444Y28454D01*
X63027D01*
X62819Y28662D01*
Y28871D01*
X63027Y29079D01*
X62819Y29287D01*
Y29495D01*
X63027Y29079D02*
X63444D01*
X64068Y29495D02*
X64277Y29704D01*
X64693D01*
X64901Y29495D01*
Y29287D01*
X64693Y29079D01*
X64485D01*
X64693D01*
X64901Y28871D01*
Y28662D01*
X64693Y28454D01*
X64277D01*
X64068Y28662D01*
X65318Y29495D02*
X65526Y29704D01*
X65943D01*
X66151Y29495D01*
Y28662D01*
X65943Y28454D01*
X65526D01*
X65318Y28662D01*
Y29495D01*
X66568Y28454D02*
X66984Y28871D01*
Y29287D01*
X66568Y29704D01*
X69692D02*
X69275Y29495D01*
X68858Y29079D01*
Y28662D01*
X69067Y28454D01*
X69483D01*
X69692Y28662D01*
Y28871D01*
X69483Y29079D01*
X68858D01*
X70941Y28454D02*
X70108D01*
X70941Y29287D01*
Y29495D01*
X70733Y29704D01*
X70316D01*
X70108Y29495D01*
X71358Y28662D02*
X71566Y28454D01*
X71982D01*
X72191Y28662D01*
Y29495D01*
X71982Y29704D01*
X71566D01*
X71358Y29495D01*
Y29287D01*
X71566Y29079D01*
X72191D01*
X72607D02*
X73440D01*
X74690Y28454D02*
X73857D01*
X74690Y29287D01*
Y29495D01*
X74482Y29704D01*
X74065D01*
X73857Y29495D01*
X75106Y28662D02*
X75315Y28454D01*
X75731D01*
X75939Y28662D01*
Y29495D01*
X75731Y29704D01*
X75315D01*
X75106Y29495D01*
Y29287D01*
X75315Y29079D01*
X75939D01*
X76356Y29495D02*
X76564Y29704D01*
X76981D01*
X77189Y29495D01*
Y28662D01*
X76981Y28454D01*
X76564D01*
X76356Y28662D01*
Y29495D01*
X77606D02*
X77814Y29704D01*
X78230D01*
X78439Y29495D01*
Y28662D01*
X78230Y28454D01*
X77814D01*
X77606Y28662D01*
Y29495D01*
X80105Y29287D02*
X80938Y28454D01*
X80521Y28871D01*
X80938Y29287D01*
X80105Y28454D01*
X81979D02*
Y29704D01*
X81354Y29079D01*
X82187D01*
X82604Y29495D02*
X82812Y29704D01*
X83229D01*
X83437Y29495D01*
Y29287D01*
X83229Y29079D01*
X83021D01*
X83229D01*
X83437Y28871D01*
Y28662D01*
X83229Y28454D01*
X82812D01*
X82604Y28662D01*
X83854Y29704D02*
X84687D01*
Y29495D01*
X83854Y28662D01*
Y28454D01*
X85103Y29495D02*
X85311Y29704D01*
X85728D01*
X85936Y29495D01*
Y28662D01*
X85728Y28454D01*
X85311D01*
X85103Y28662D01*
Y29495D01*
X43450Y27308D02*
Y26058D01*
X44075D01*
X44283Y26266D01*
Y27099D01*
X44075Y27308D01*
X43450D01*
X45324Y26058D02*
X44908D01*
X44700Y26266D01*
Y26683D01*
X44908Y26891D01*
X45324D01*
X45533Y26683D01*
Y26475D01*
X44700D01*
X46157Y27099D02*
Y26891D01*
X45949D01*
X46366D01*
X46157D01*
Y26266D01*
X46366Y26058D01*
X47615D02*
X47199D01*
X46991Y26266D01*
Y26683D01*
X47199Y26891D01*
X47615D01*
X47824Y26683D01*
Y26475D01*
X46991D01*
X48240Y26891D02*
X49073Y26058D01*
X48657Y26475D01*
X49073Y26891D01*
X48240Y26058D01*
X51572Y27099D02*
X51364Y27308D01*
X50948D01*
X50739Y27099D01*
Y26266D01*
X50948Y26058D01*
X51364D01*
X51572Y26266D01*
X52197Y26058D02*
X52614D01*
X52822Y26266D01*
Y26683D01*
X52614Y26891D01*
X52197D01*
X51989Y26683D01*
Y26266D01*
X52197Y26058D01*
X53239Y26891D02*
Y26058D01*
Y26475D01*
X53447Y26683D01*
X53655Y26891D01*
X53863D01*
X54488Y25641D02*
Y26891D01*
X55113D01*
X55321Y26683D01*
Y26266D01*
X55113Y26058D01*
X54488D01*
X43450Y23662D02*
Y24912D01*
X44075D01*
X44283Y24703D01*
Y24287D01*
X44075Y24078D01*
X43450D01*
X44700Y23662D02*
X45533Y24495D01*
X45949Y23662D02*
Y24912D01*
X46782Y23662D01*
Y24912D01*
X48448Y23662D02*
X48865D01*
X48657D01*
Y24912D01*
X48448Y24703D01*
X49490D02*
X49698Y24912D01*
X50115D01*
X50323Y24703D01*
Y23870D01*
X50115Y23662D01*
X49698D01*
X49490Y23870D01*
Y24703D01*
X51572Y23662D02*
X50739D01*
X51572Y24495D01*
Y24703D01*
X51364Y24912D01*
X50948D01*
X50739Y24703D01*
X51989Y24912D02*
X52822D01*
Y24703D01*
X51989Y23870D01*
Y23662D01*
X53239D02*
X53655D01*
X53447D01*
Y24912D01*
X53239Y24703D01*
X54280Y23662D02*
X54696D01*
X54488D01*
Y24912D01*
X54280Y24703D01*
X44283Y22724D02*
X44075Y22932D01*
X43658D01*
X43450Y22724D01*
Y21891D01*
X43658Y21682D01*
X44075D01*
X44283Y21891D01*
Y22307D01*
X43867D01*
X44700Y21682D02*
Y22932D01*
X45324D01*
X45533Y22724D01*
Y22307D01*
X45324Y22099D01*
X44700D01*
X45116D02*
X45533Y21682D01*
X46782Y22932D02*
X45949D01*
Y21682D01*
X46782D01*
X45949Y22307D02*
X46366D01*
X48032Y22932D02*
X47199D01*
Y21682D01*
X48032D01*
X47199Y22307D02*
X47615D01*
X48448Y21682D02*
Y22932D01*
X49281Y21682D01*
Y22932D01*
X50948Y21682D02*
Y22932D01*
X51364Y22515D01*
X51781Y22932D01*
Y21682D01*
X52197D02*
Y22515D01*
X52614Y22932D01*
X53030Y22515D01*
Y21682D01*
Y22307D01*
X52197D01*
X54280Y22724D02*
X54072Y22932D01*
X53655D01*
X53447Y22724D01*
Y22515D01*
X53655Y22307D01*
X54072D01*
X54280Y22099D01*
Y21891D01*
X54072Y21682D01*
X53655D01*
X53447Y21891D01*
X54696Y22932D02*
Y21682D01*
Y22099D01*
X55529Y22932D01*
X54905Y22307D01*
X55529Y21682D01*
X55946D02*
X56779Y22515D01*
X57196Y22932D02*
Y21682D01*
X57612Y22099D01*
X58029Y21682D01*
Y22932D01*
X58445D02*
Y21682D01*
Y22307D01*
X59278D01*
Y22932D01*
Y21682D01*
X59695Y22932D02*
X60111D01*
X59903D01*
Y21682D01*
X59695D01*
X60111D01*
X60736Y22932D02*
X61569D01*
X61153D01*
Y21682D01*
X62819Y22932D02*
X61986D01*
Y21682D01*
X62819D01*
X61986Y22307D02*
X62402D01*
X65318Y22724D02*
X65110Y22932D01*
X64693D01*
X64485Y22724D01*
Y22515D01*
X64693Y22307D01*
X65110D01*
X65318Y22099D01*
Y21891D01*
X65110Y21682D01*
X64693D01*
X64485Y21891D01*
X65734Y22932D02*
X66151D01*
X65943D01*
Y21682D01*
X65734D01*
X66151D01*
X66776Y22932D02*
Y21682D01*
X67609D01*
X68025Y22932D02*
Y21682D01*
Y22099D01*
X68858Y22932D01*
X68234Y22307D01*
X68858Y21682D01*
X69483Y21474D02*
X69692Y21682D01*
Y21891D01*
X69483D01*
Y21682D01*
X69692D01*
X69483Y21474D01*
X69275Y21266D01*
X71774Y22932D02*
Y21682D01*
X72399D01*
X72607Y21891D01*
Y22099D01*
X72399Y22307D01*
X71774D01*
X72399D01*
X72607Y22515D01*
Y22724D01*
X72399Y22932D01*
X71774D01*
X73649D02*
X73232D01*
X73024Y22724D01*
Y21891D01*
X73232Y21682D01*
X73649D01*
X73857Y21891D01*
Y22724D01*
X73649Y22932D01*
X74273D02*
X75106D01*
X74690D01*
Y21682D01*
X75523Y22932D02*
Y21682D01*
Y22307D01*
X76356D01*
Y22932D01*
Y21682D01*
X78855Y22724D02*
X78647Y22932D01*
X78230D01*
X78022Y22724D01*
Y22515D01*
X78230Y22307D01*
X78647D01*
X78855Y22099D01*
Y21891D01*
X78647Y21682D01*
X78230D01*
X78022Y21891D01*
X79272Y22932D02*
X79688D01*
X79480D01*
Y21682D01*
X79272D01*
X79688D01*
X80313Y22932D02*
Y21682D01*
X80938D01*
X81146Y21891D01*
Y22724D01*
X80938Y22932D01*
X80313D01*
X82396D02*
X81563D01*
Y21682D01*
X82396D01*
X81563Y22307D02*
X81979D01*
X83645Y22724D02*
X83437Y22932D01*
X83021D01*
X82812Y22724D01*
Y22515D01*
X83021Y22307D01*
X83437D01*
X83645Y22099D01*
Y21891D01*
X83437Y21682D01*
X83021D01*
X82812Y21891D01*
X43450Y20953D02*
X44283D01*
X43867D01*
Y19703D01*
X44700Y20953D02*
Y19703D01*
X45116Y20119D01*
X45533Y19703D01*
Y20953D01*
X46574D02*
X46157D01*
X45949Y20744D01*
Y19911D01*
X46157Y19703D01*
X46574D01*
X46782Y19911D01*
Y20744D01*
X46574Y20953D01*
X47199Y20328D02*
X48032D01*
X49281Y20744D02*
X49073Y20953D01*
X48657D01*
X48448Y20744D01*
Y20536D01*
X48657Y20328D01*
X49073D01*
X49281Y20119D01*
Y19911D01*
X49073Y19703D01*
X48657D01*
X48448Y19911D01*
X49698Y20953D02*
X50115D01*
X49906D01*
Y19703D01*
X49698D01*
X50115D01*
X50739Y20953D02*
Y19703D01*
X51364D01*
X51572Y19911D01*
Y20744D01*
X51364Y20953D01*
X50739D01*
X52822D02*
X51989D01*
Y19703D01*
X52822D01*
X51989Y20328D02*
X52405D01*
X53239Y20953D02*
Y19703D01*
X53863D01*
X54072Y19911D01*
Y20744D01*
X53863Y20953D01*
X53239D01*
X56571Y20744D02*
X56362Y20953D01*
X55946D01*
X55738Y20744D01*
Y19911D01*
X55946Y19703D01*
X56362D01*
X56571Y19911D01*
X57612Y20953D02*
X57196D01*
X56987Y20744D01*
Y19911D01*
X57196Y19703D01*
X57612D01*
X57820Y19911D01*
Y20744D01*
X57612Y20953D01*
X58237Y19703D02*
Y20953D01*
X58862D01*
X59070Y20744D01*
Y20328D01*
X58862Y20119D01*
X58237D01*
X59486Y19703D02*
Y20953D01*
X60111D01*
X60320Y20744D01*
Y20328D01*
X60111Y20119D01*
X59486D01*
X61569Y20953D02*
X60736D01*
Y19703D01*
X61569D01*
X60736Y20328D02*
X61153D01*
X61986Y19703D02*
Y20953D01*
X62610D01*
X62819Y20744D01*
Y20328D01*
X62610Y20119D01*
X61986D01*
X62402D02*
X62819Y19703D01*
X44283Y18765D02*
X43450D01*
Y18140D01*
X43867D01*
X43450D01*
Y17515D01*
X44700D02*
Y18765D01*
X45324D01*
X45533Y18556D01*
Y18140D01*
X45324Y17932D01*
X44700D01*
X45116D02*
X45533Y17515D01*
X46574D02*
Y18765D01*
X45949Y18140D01*
X46782D01*
X48448Y18556D02*
X48657Y18765D01*
X49073D01*
X49281Y18556D01*
Y17723D01*
X49073Y17515D01*
X48657D01*
X48448Y17723D01*
Y18556D01*
X49698Y17515D02*
Y17723D01*
X49906D01*
Y17515D01*
X49698D01*
X50739Y18556D02*
X50948Y18765D01*
X51364D01*
X51572Y18556D01*
Y17723D01*
X51364Y17515D01*
X50948D01*
X50739Y17723D01*
Y18556D01*
X52822Y18765D02*
X52405Y18556D01*
X51989Y18140D01*
Y17723D01*
X52197Y17515D01*
X52614D01*
X52822Y17723D01*
Y17932D01*
X52614Y18140D01*
X51989D01*
X53239Y18556D02*
X53447Y18765D01*
X53863D01*
X54072Y18556D01*
Y18348D01*
X53863Y18140D01*
X53655D01*
X53863D01*
X54072Y17932D01*
Y17723D01*
X53863Y17515D01*
X53447D01*
X53239Y17723D01*
X54696Y18973D02*
Y18556D01*
X54488Y18348D01*
X55529Y18973D02*
Y18556D01*
X55321Y18348D01*
X43450Y16785D02*
Y15536D01*
X44283D01*
X45533Y16785D02*
X44700D01*
Y15536D01*
X45533D01*
X44700Y16160D02*
X45116D01*
X45949Y15536D02*
Y16369D01*
X46366Y16785D01*
X46782Y16369D01*
Y15536D01*
Y16160D01*
X45949D01*
X47199Y16785D02*
Y15536D01*
X47824D01*
X48032Y15744D01*
Y16577D01*
X47824Y16785D01*
X47199D01*
X50531D02*
X49698D01*
Y16160D01*
X50115D01*
X49698D01*
Y15536D01*
X50948D02*
Y16785D01*
X51572D01*
X51781Y16577D01*
Y16160D01*
X51572Y15952D01*
X50948D01*
X51364D02*
X51781Y15536D01*
X53030Y16785D02*
X52197D01*
Y15536D01*
X53030D01*
X52197Y16160D02*
X52614D01*
X54280Y16785D02*
X53447D01*
Y15536D01*
X54280D01*
X53447Y16160D02*
X53863D01*
X55946D02*
X56779D01*
X58445Y15536D02*
Y16785D01*
X59070D01*
X59278Y16577D01*
Y16160D01*
X59070Y15952D01*
X58445D01*
X58862D02*
X59278Y15536D01*
X60320Y16785D02*
X59903D01*
X59695Y16577D01*
Y15744D01*
X59903Y15536D01*
X60320D01*
X60528Y15744D01*
Y16577D01*
X60320Y16785D01*
X60944D02*
Y15536D01*
Y16160D01*
X61777D01*
Y16785D01*
Y15536D01*
X63027Y16577D02*
X62819Y16785D01*
X62402D01*
X62194Y16577D01*
Y16369D01*
X62402Y16160D01*
X62819D01*
X63027Y15952D01*
Y15744D01*
X62819Y15536D01*
X62402D01*
X62194Y15744D01*
D49*
X7935Y4094D02*
G03*
X7935Y4094I-100J0D01*
G01*
X2935D02*
G03*
X2935Y4094I-100J0D01*
G01*
X9650Y13250D02*
X9700Y13200D01*
X9600Y13250D02*
X9650D01*
X9600D02*
X9650Y13300D01*
X9600Y13350D02*
X9650Y13300D01*
X9600Y13350D02*
X9650D01*
X9700Y13400D01*
X9750Y13350D01*
X9800D01*
X9750Y13300D02*
X9800Y13350D01*
X9750Y13300D02*
X9800Y13250D01*
X9750D02*
X9800D01*
X9700Y13200D02*
X9750Y13250D01*
X10136Y11636D02*
X10186Y11586D01*
X10086Y11636D02*
X10136D01*
X10086D02*
X10136Y11686D01*
X10086Y11736D02*
X10136Y11686D01*
X10086Y11736D02*
X10136D01*
X10186Y11786D01*
X10236Y11736D01*
X10286D01*
X10236Y11686D02*
X10286Y11736D01*
X10236Y11686D02*
X10286Y11636D01*
X10236D02*
X10286D01*
X10186Y11586D02*
X10236Y11636D01*
X9615Y14785D02*
X9665Y14735D01*
X9565Y14785D02*
X9615D01*
X9565D02*
X9615Y14835D01*
X9565Y14885D02*
X9615Y14835D01*
X9565Y14885D02*
X9615D01*
X9665Y14935D01*
X9715Y14885D01*
X9765D01*
X9715Y14835D02*
X9765Y14885D01*
X9715Y14835D02*
X9765Y14785D01*
X9715D02*
X9765D01*
X9665Y14735D02*
X9715Y14785D01*
X9650Y16350D02*
X9700Y16300D01*
X9600Y16350D02*
X9650D01*
X9600D02*
X9650Y16400D01*
X9600Y16450D02*
X9650Y16400D01*
X9600Y16450D02*
X9650D01*
X9700Y16500D01*
X9750Y16450D01*
X9800D01*
X9750Y16400D02*
X9800Y16450D01*
X9750Y16400D02*
X9800Y16350D01*
X9750D02*
X9800D01*
X9700Y16300D02*
X9750Y16350D01*
X10550Y17150D02*
X10600Y17100D01*
X10500Y17150D02*
X10550D01*
X10500D02*
X10550Y17200D01*
X10500Y17250D02*
X10550Y17200D01*
X10500Y17250D02*
X10550D01*
X10600Y17300D01*
X10650Y17250D01*
X10700D01*
X10650Y17200D02*
X10700Y17250D01*
X10650Y17200D02*
X10700Y17150D01*
X10650D02*
X10700D01*
X10600Y17100D02*
X10650Y17150D01*
X8550Y23250D02*
X8600Y23200D01*
X8500Y23250D02*
X8550D01*
X8500D02*
X8550Y23300D01*
X8500Y23350D02*
X8550Y23300D01*
X8500Y23350D02*
X8550D01*
X8600Y23400D01*
X8650Y23350D01*
X8700D01*
X8650Y23300D02*
X8700Y23350D01*
X8650Y23300D02*
X8700Y23250D01*
X8650D02*
X8700D01*
X8600Y23200D02*
X8650Y23250D01*
X8550Y25050D02*
X8600Y25000D01*
X8500Y25050D02*
X8550D01*
X8500D02*
X8550Y25100D01*
X8500Y25150D02*
X8550Y25100D01*
X8500Y25150D02*
X8550D01*
X8600Y25200D01*
X8650Y25150D01*
X8700D01*
X8650Y25100D02*
X8700Y25150D01*
X8650Y25100D02*
X8700Y25050D01*
X8650D02*
X8700D01*
X8600Y25000D02*
X8650Y25050D01*
X13350Y27850D02*
X13400Y27800D01*
X13300Y27850D02*
X13350D01*
X13300D02*
X13350Y27900D01*
X13300Y27950D02*
X13350Y27900D01*
X13300Y27950D02*
X13350D01*
X13400Y28000D01*
X13450Y27950D01*
X13500D01*
X13450Y27900D02*
X13500Y27950D01*
X13450Y27900D02*
X13500Y27850D01*
X13450D02*
X13500D01*
X13400Y27800D02*
X13450Y27850D01*
X14350Y23350D02*
X14400Y23300D01*
X14300Y23350D02*
X14350D01*
X14300D02*
X14350Y23400D01*
X14300Y23450D02*
X14350Y23400D01*
X14300Y23450D02*
X14350D01*
X14400Y23500D01*
X14450Y23450D01*
X14500D01*
X14450Y23400D02*
X14500Y23450D01*
X14450Y23400D02*
X14500Y23350D01*
X14450D02*
X14500D01*
X14400Y23300D02*
X14450Y23350D01*
X22062Y21310D02*
X22112Y21260D01*
X22012Y21310D02*
X22062D01*
X22012D02*
X22062Y21360D01*
X22012Y21410D02*
X22062Y21360D01*
X22012Y21410D02*
X22062D01*
X22112Y21460D01*
X22162Y21410D01*
X22212D01*
X22162Y21360D02*
X22212Y21410D01*
X22162Y21360D02*
X22212Y21310D01*
X22162D02*
X22212D01*
X22112Y21260D02*
X22162Y21310D01*
X19770Y20330D02*
X19820Y20280D01*
X19720Y20330D02*
X19770D01*
X19720D02*
X19770Y20380D01*
X19720Y20430D02*
X19770Y20380D01*
X19720Y20430D02*
X19770D01*
X19820Y20480D01*
X19870Y20430D01*
X19920D01*
X19870Y20380D02*
X19920Y20430D01*
X19870Y20380D02*
X19920Y20330D01*
X19870D02*
X19920D01*
X19820Y20280D02*
X19870Y20330D01*
X13000Y21600D02*
X13050Y21550D01*
X12950Y21600D02*
X13000D01*
X12950D02*
X13000Y21650D01*
X12950Y21700D02*
X13000Y21650D01*
X12950Y21700D02*
X13000D01*
X13050Y21750D01*
X13100Y21700D01*
X13150D01*
X13100Y21650D02*
X13150Y21700D01*
X13100Y21650D02*
X13150Y21600D01*
X13100D02*
X13150D01*
X13050Y21550D02*
X13100Y21600D01*
X14454Y20750D02*
X14504Y20700D01*
X14404Y20750D02*
X14454D01*
X14404D02*
X14454Y20800D01*
X14404Y20850D02*
X14454Y20800D01*
X14404Y20850D02*
X14454D01*
X14504Y20900D01*
X14554Y20850D01*
X14604D01*
X14554Y20800D02*
X14604Y20850D01*
X14554Y20800D02*
X14604Y20750D01*
X14554D02*
X14604D01*
X14504Y20700D02*
X14554Y20750D01*
X3150Y15598D02*
X3200Y15548D01*
X3100Y15598D02*
X3150D01*
X3100D02*
X3150Y15648D01*
X3100Y15698D02*
X3150Y15648D01*
X3100Y15698D02*
X3150D01*
X3200Y15748D01*
X3250Y15698D01*
X3300D01*
X3250Y15648D02*
X3300Y15698D01*
X3250Y15648D02*
X3300Y15598D01*
X3250D02*
X3300D01*
X3200Y15548D02*
X3250Y15598D01*
X4400Y24950D02*
X4450Y24900D01*
X4350Y24950D02*
X4400D01*
X4350D02*
X4400Y25000D01*
X4350Y25050D02*
X4400Y25000D01*
X4350Y25050D02*
X4400D01*
X4450Y25100D01*
X4500Y25050D01*
X4550D01*
X4500Y25000D02*
X4550Y25050D01*
X4500Y25000D02*
X4550Y24950D01*
X4500D02*
X4550D01*
X4450Y24900D02*
X4500Y24950D01*
X18823Y13173D02*
X18873Y13123D01*
X18773Y13173D02*
X18823D01*
X18773D02*
X18823Y13223D01*
X18773Y13273D02*
X18823Y13223D01*
X18773Y13273D02*
X18823D01*
X18873Y13323D01*
X18923Y13273D01*
X18973D01*
X18923Y13223D02*
X18973Y13273D01*
X18923Y13223D02*
X18973Y13173D01*
X18923D02*
X18973D01*
X18873Y13123D02*
X18923Y13173D01*
X32600Y13464D02*
X32650Y13414D01*
X32550Y13464D02*
X32600D01*
X32550D02*
X32600Y13514D01*
X32550Y13564D02*
X32600Y13514D01*
X32550Y13564D02*
X32600D01*
X32650Y13614D01*
X32700Y13564D01*
X32750D01*
X32700Y13514D02*
X32750Y13564D01*
X32700Y13514D02*
X32750Y13464D01*
X32700D02*
X32750D01*
X32650Y13414D02*
X32700Y13464D01*
X32678Y27928D02*
X32728Y27878D01*
X32628Y27928D02*
X32678D01*
X32628D02*
X32678Y27978D01*
X32628Y28028D02*
X32678Y27978D01*
X32628Y28028D02*
X32678D01*
X32728Y28078D01*
X32778Y28028D01*
X32828D01*
X32778Y27978D02*
X32828Y28028D01*
X32778Y27978D02*
X32828Y27928D01*
X32778D02*
X32828D01*
X32728Y27878D02*
X32778Y27928D01*
X22350Y29333D02*
X22400Y29283D01*
X22300Y29333D02*
X22350D01*
X22300D02*
X22350Y29383D01*
X22300Y29433D02*
X22350Y29383D01*
X22300Y29433D02*
X22350D01*
X22400Y29483D01*
X22450Y29433D01*
X22500D01*
X22450Y29383D02*
X22500Y29433D01*
X22450Y29383D02*
X22500Y29333D01*
X22450D02*
X22500D01*
X22400Y29283D02*
X22450Y29333D01*
X18321D02*
X18371Y29283D01*
X18271Y29333D02*
X18321D01*
X18271D02*
X18321Y29383D01*
X18271Y29433D02*
X18321Y29383D01*
X18271Y29433D02*
X18321D01*
X18371Y29483D01*
X18421Y29433D01*
X18471D01*
X18421Y29383D02*
X18471Y29433D01*
X18421Y29383D02*
X18471Y29333D01*
X18421D02*
X18471D01*
X18371Y29283D02*
X18421Y29333D01*
X8583Y18950D02*
X8633Y18900D01*
X8533Y18950D02*
X8583D01*
X8533D02*
X8583Y19000D01*
X8533Y19050D02*
X8583Y19000D01*
X8533Y19050D02*
X8583D01*
X8633Y19100D01*
X8683Y19050D01*
X8733D01*
X8683Y19000D02*
X8733Y19050D01*
X8683Y19000D02*
X8733Y18950D01*
X8683D02*
X8733D01*
X8633Y18900D02*
X8683Y18950D01*
X7200Y24117D02*
X7250Y24067D01*
X7150Y24117D02*
X7200D01*
X7150D02*
X7200Y24167D01*
X7150Y24217D02*
X7200Y24167D01*
X7150Y24217D02*
X7200D01*
X7250Y24267D01*
X7300Y24217D01*
X7350D01*
X7300Y24167D02*
X7350Y24217D01*
X7300Y24167D02*
X7350Y24117D01*
X7300D02*
X7350D01*
X7250Y24067D02*
X7300Y24117D01*
X2024Y23580D02*
X2074Y23530D01*
X1974Y23580D02*
X2024D01*
X1974D02*
X2024Y23630D01*
X1974Y23680D02*
X2024Y23630D01*
X1974Y23680D02*
X2024D01*
X2074Y23730D01*
X2124Y23680D01*
X2174D01*
X2124Y23630D02*
X2174Y23680D01*
X2124Y23630D02*
X2174Y23580D01*
X2124D02*
X2174D01*
X2074Y23530D02*
X2124Y23580D01*
X9400Y28318D02*
X9450Y28268D01*
X9350Y28318D02*
X9400D01*
X9350D02*
X9400Y28368D01*
X9350Y28418D02*
X9400Y28368D01*
X9350Y28418D02*
X9400D01*
X9450Y28468D01*
X9500Y28418D01*
X9550D01*
X9500Y28368D02*
X9550Y28418D01*
X9500Y28368D02*
X9550Y28318D01*
X9500D02*
X9550D01*
X9450Y28268D02*
X9500Y28318D01*
X19000Y25694D02*
X19050Y25644D01*
X18950Y25694D02*
X19000D01*
X18950D02*
X19000Y25744D01*
X18950Y25794D02*
X19000Y25744D01*
X18950Y25794D02*
X19000D01*
X19050Y25844D01*
X19100Y25794D01*
X19150D01*
X19100Y25744D02*
X19150Y25794D01*
X19100Y25744D02*
X19150Y25694D01*
X19100D02*
X19150D01*
X19050Y25644D02*
X19100Y25694D01*
X16587Y24550D02*
X16637Y24500D01*
X16537Y24550D02*
X16587D01*
X16537D02*
X16587Y24600D01*
X16537Y24650D02*
X16587Y24600D01*
X16537Y24650D02*
X16587D01*
X16637Y24700D01*
X16687Y24650D01*
X16737D01*
X16687Y24600D02*
X16737Y24650D01*
X16687Y24600D02*
X16737Y24550D01*
X16687D02*
X16737D01*
X16637Y24500D02*
X16687Y24550D01*
X16150Y27250D02*
X16200Y27200D01*
X16100Y27250D02*
X16150D01*
X16100D02*
X16150Y27300D01*
X16100Y27350D02*
X16150Y27300D01*
X16100Y27350D02*
X16150D01*
X16200Y27400D01*
X16250Y27350D01*
X16300D01*
X16250Y27300D02*
X16300Y27350D01*
X16250Y27300D02*
X16300Y27250D01*
X16250D02*
X16300D01*
X16200Y27200D02*
X16250Y27250D01*
X1600Y12100D02*
X1650Y12050D01*
X1550Y12100D02*
X1600D01*
X1550D02*
X1600Y12150D01*
X1550Y12200D02*
X1600Y12150D01*
X1550Y12200D02*
X1600D01*
X1650Y12250D01*
X1700Y12200D01*
X1750D01*
X1700Y12150D02*
X1750Y12200D01*
X1700Y12150D02*
X1750Y12100D01*
X1700D02*
X1750D01*
X1650Y12050D02*
X1700Y12100D01*
X6800Y12450D02*
X6850Y12400D01*
X6750Y12450D02*
X6800D01*
X6750D02*
X6800Y12500D01*
X6750Y12550D02*
X6800Y12500D01*
X6750Y12550D02*
X6800D01*
X6850Y12600D01*
X6900Y12550D01*
X6950D01*
X6900Y12500D02*
X6950Y12550D01*
X6900Y12500D02*
X6950Y12450D01*
X6900D02*
X6950D01*
X6850Y12400D02*
X6900Y12450D01*
X6650Y17000D02*
X6700Y16950D01*
X6600Y17000D02*
X6650D01*
X6600D02*
X6650Y17050D01*
X6600Y17100D02*
X6650Y17050D01*
X6600Y17100D02*
X6650D01*
X6700Y17150D01*
X6750Y17100D01*
X6800D01*
X6750Y17050D02*
X6800Y17100D01*
X6750Y17050D02*
X6800Y17000D01*
X6750D02*
X6800D01*
X6700Y16950D02*
X6750Y17000D01*
X12771Y17750D02*
X12821Y17700D01*
X12721Y17750D02*
X12771D01*
X12721D02*
X12771Y17800D01*
X12721Y17850D02*
X12771Y17800D01*
X12721Y17850D02*
X12771D01*
X12821Y17900D01*
X12871Y17850D01*
X12921D01*
X12871Y17800D02*
X12921Y17850D01*
X12871Y17800D02*
X12921Y17750D01*
X12871D02*
X12921D01*
X12821Y17700D02*
X12871Y17750D01*
X6158Y20300D02*
X6208Y20250D01*
X6108Y20300D02*
X6158D01*
X6108D02*
X6158Y20350D01*
X6108Y20400D02*
X6158Y20350D01*
X6108Y20400D02*
X6158D01*
X6208Y20450D01*
X6258Y20400D01*
X6308D01*
X6258Y20350D02*
X6308Y20400D01*
X6258Y20350D02*
X6308Y20300D01*
X6258D02*
X6308D01*
X6208Y20250D02*
X6258Y20300D01*
X6150Y18500D02*
X6200Y18450D01*
X6100Y18500D02*
X6150D01*
X6100D02*
X6150Y18550D01*
X6100Y18600D02*
X6150Y18550D01*
X6100Y18600D02*
X6150D01*
X6200Y18650D01*
X6250Y18600D01*
X6300D01*
X6250Y18550D02*
X6300Y18600D01*
X6250Y18550D02*
X6300Y18500D01*
X6250D02*
X6300D01*
X6200Y18450D02*
X6250Y18500D01*
X23572Y12430D02*
X23692D01*
Y12550D01*
X23572D02*
X23692D01*
X23572Y12430D02*
Y12550D01*
X23532Y12390D02*
X23732D01*
Y12590D01*
X23532D02*
X23732D01*
X23532Y12390D02*
Y12590D01*
X24572Y12430D02*
X24692D01*
Y12550D01*
X24572D02*
X24692D01*
X24572Y12430D02*
Y12550D01*
X24532Y12390D02*
X24732D01*
Y12590D01*
X24532D02*
X24732D01*
X24532Y12390D02*
Y12590D01*
X27122Y15230D02*
X27242D01*
Y15350D01*
X27122D02*
X27242D01*
X27122Y15230D02*
Y15350D01*
X27082Y15190D02*
X27282D01*
Y15390D01*
X27082D02*
X27282D01*
X27082Y15190D02*
Y15390D01*
X27122Y16230D02*
X27242D01*
Y16350D01*
X27122D02*
X27242D01*
X27122Y16230D02*
Y16350D01*
X27082Y16190D02*
X27282D01*
Y16390D01*
X27082D02*
X27282D01*
X27082Y16190D02*
Y16390D01*
X25872Y24730D02*
X25992D01*
Y24850D01*
X25872D02*
X25992D01*
X25872Y24730D02*
Y24850D01*
X25832Y24690D02*
X26032D01*
Y24890D01*
X25832D02*
X26032D01*
X25832Y24690D02*
Y24890D01*
X24872Y24730D02*
X24992D01*
Y24850D01*
X24872D02*
X24992D01*
X24872Y24730D02*
Y24850D01*
X24832Y24690D02*
X25032D01*
Y24890D01*
X24832D02*
X25032D01*
X24832Y24690D02*
Y24890D01*
X24872Y25730D02*
X24992D01*
Y25850D01*
X24872D02*
X24992D01*
X24872Y25730D02*
Y25850D01*
X24832Y25690D02*
X25032D01*
Y25890D01*
X24832D02*
X25032D01*
X24832Y25690D02*
Y25890D01*
X25872Y25730D02*
X25992D01*
Y25850D01*
X25872D02*
X25992D01*
X25872Y25730D02*
Y25850D01*
X25832Y25690D02*
X26032D01*
Y25890D01*
X25832D02*
X26032D01*
X25832Y25690D02*
Y25890D01*
X26872Y25730D02*
X26992D01*
Y25850D01*
X26872D02*
X26992D01*
X26872Y25730D02*
Y25850D01*
X26832Y25690D02*
X27032D01*
Y25890D01*
X26832D02*
X27032D01*
X26832Y25690D02*
Y25890D01*
X26872Y24730D02*
X26992D01*
Y24850D01*
X26872D02*
X26992D01*
X26872Y24730D02*
Y24850D01*
X26832Y24690D02*
X27032D01*
Y24890D01*
X26832D02*
X27032D01*
X26832Y24690D02*
Y24890D01*
X16050Y30017D02*
X16150Y30217D01*
X15950D02*
X16150D01*
X15950D02*
X16050Y30017D01*
X32050D02*
X32150Y30217D01*
X31950D02*
X32150D01*
X31950D02*
X32050Y30017D01*
Y10517D02*
X32150Y10717D01*
X31950D02*
X32150D01*
X31950D02*
X32050Y10517D01*
X16050D02*
X16150Y10717D01*
X15950D02*
X16150D01*
X15950D02*
X16050Y10517D01*
X1100Y27500D02*
X1200Y27550D01*
X1300Y27500D01*
X1250Y27600D02*
X1300Y27500D01*
X1250Y27600D02*
X1300Y27700D01*
X1200Y27650D02*
X1300Y27700D01*
X1100D02*
X1200Y27650D01*
X1100Y27700D02*
X1150Y27600D01*
X1100Y27500D02*
X1150Y27600D01*
X1100Y28500D02*
X1200Y28550D01*
X1300Y28500D01*
X1250Y28600D02*
X1300Y28500D01*
X1250Y28600D02*
X1300Y28700D01*
X1200Y28650D02*
X1300Y28700D01*
X1100D02*
X1200Y28650D01*
X1100Y28700D02*
X1150Y28600D01*
X1100Y28500D02*
X1150Y28600D01*
X2100Y27500D02*
X2200Y27550D01*
X2300Y27500D01*
X2250Y27600D02*
X2300Y27500D01*
X2250Y27600D02*
X2300Y27700D01*
X2200Y27650D02*
X2300Y27700D01*
X2100D02*
X2200Y27650D01*
X2100Y27700D02*
X2150Y27600D01*
X2100Y27500D02*
X2150Y27600D01*
X2100Y28500D02*
X2200Y28550D01*
X2300Y28500D01*
X2250Y28600D02*
X2300Y28500D01*
X2250Y28600D02*
X2300Y28700D01*
X2200Y28650D02*
X2300Y28700D01*
X2100D02*
X2200Y28650D01*
X2100Y28700D02*
X2150Y28600D01*
X2100Y28500D02*
X2150Y28600D01*
X3100Y27500D02*
X3200Y27550D01*
X3300Y27500D01*
X3250Y27600D02*
X3300Y27500D01*
X3250Y27600D02*
X3300Y27700D01*
X3200Y27650D02*
X3300Y27700D01*
X3100D02*
X3200Y27650D01*
X3100Y27700D02*
X3150Y27600D01*
X3100Y27500D02*
X3150Y27600D01*
X3100Y28500D02*
X3200Y28550D01*
X3300Y28500D01*
X3250Y28600D02*
X3300Y28500D01*
X3250Y28600D02*
X3300Y28700D01*
X3200Y28650D02*
X3300Y28700D01*
X3100D02*
X3200Y28650D01*
X3100Y28700D02*
X3150Y28600D01*
X3100Y28500D02*
X3150Y28600D01*
X5200Y27540D02*
X5260Y27660D01*
X5140D02*
X5260D01*
X5140D02*
X5200Y27540D01*
Y27500D02*
X5300Y27700D01*
X5100D02*
X5300D01*
X5100D02*
X5200Y27500D01*
Y28540D02*
X5260Y28660D01*
X5140D02*
X5260D01*
X5140D02*
X5200Y28540D01*
Y28500D02*
X5300Y28700D01*
X5100D02*
X5300D01*
X5100D02*
X5200Y28500D01*
X1150Y31950D02*
X1200D01*
X1150D02*
Y32050D01*
X1200D01*
Y32100D01*
X1300D01*
Y32050D02*
Y32100D01*
Y32050D02*
X1350D01*
Y31950D02*
Y32050D01*
X1300Y31950D02*
X1350D01*
X1300Y31900D02*
Y31950D01*
X1200Y31900D02*
X1300D01*
X1200D02*
Y31950D01*
X2900D02*
X2950D01*
X2900D02*
Y32050D01*
X2950D01*
Y32100D01*
X3050D01*
Y32050D02*
Y32100D01*
Y32050D02*
X3100D01*
Y31950D02*
Y32050D01*
X3050Y31950D02*
X3100D01*
X3050Y31900D02*
Y31950D01*
X2950Y31900D02*
X3050D01*
X2950D02*
Y31950D01*
X17450Y15900D02*
X17650D01*
Y16100D01*
X17450D02*
X17650D01*
X17450Y15900D02*
Y16100D01*
X18450Y15900D02*
X18650D01*
Y16100D01*
X18450D02*
X18650D01*
X18450Y15900D02*
Y16100D01*
X17450Y16900D02*
X17650D01*
Y17100D01*
X17450D02*
X17650D01*
X17450Y16900D02*
Y17100D01*
X18450Y16900D02*
X18650D01*
Y17100D01*
X18450D02*
X18650D01*
X18450Y16900D02*
Y17100D01*
X17450Y17900D02*
X17650D01*
Y18100D01*
X17450D02*
X17650D01*
X17450Y17900D02*
Y18100D01*
X18450Y17900D02*
X18650D01*
Y18100D01*
X18450D02*
X18650D01*
X18450Y17900D02*
Y18100D01*
X17450Y18900D02*
X17650D01*
Y19100D01*
X17450D02*
X17650D01*
X17450Y18900D02*
Y19100D01*
X18450Y18900D02*
X18650D01*
Y19100D01*
X18450D02*
X18650D01*
X18450Y18900D02*
Y19100D01*
X17450Y19900D02*
X17650D01*
Y20100D01*
X17450D02*
X17650D01*
X17450Y19900D02*
Y20100D01*
X18450Y19900D02*
X18650D01*
Y20100D01*
X18450D02*
X18650D01*
X18450Y19900D02*
Y20100D01*
X17450Y20900D02*
X17650D01*
Y21100D01*
X17450D02*
X17650D01*
X17450Y20900D02*
Y21100D01*
X18450Y20900D02*
X18650D01*
Y21100D01*
X18450D02*
X18650D01*
X18450Y20900D02*
Y21100D01*
X17450Y21900D02*
X17650D01*
Y22100D01*
X17450D02*
X17650D01*
X17450Y21900D02*
Y22100D01*
X18450Y21900D02*
X18650D01*
Y22100D01*
X18450D02*
X18650D01*
X18450Y21900D02*
Y22100D01*
X17450Y22900D02*
X17650D01*
Y23100D01*
X17450D02*
X17650D01*
X17450Y22900D02*
Y23100D01*
X18450Y22900D02*
X18650D01*
Y23100D01*
X18450D02*
X18650D01*
X18450Y22900D02*
Y23100D01*
D50*
X93794Y55415D02*
Y54715D01*
X94144Y54364D01*
X94494Y54715D01*
Y55415D01*
X94844Y54364D02*
X95195D01*
X95019D01*
Y55065D01*
X94844D01*
X95895D02*
X96245D01*
X96420Y54890D01*
Y54364D01*
X95895D01*
X95720Y54540D01*
X95895Y54715D01*
X96420D01*
X96771Y54364D02*
X97471Y55065D01*
X97821Y54364D02*
Y55415D01*
X98347D01*
X98522Y55240D01*
Y54890D01*
X98347Y54715D01*
X97821D01*
X99047Y55065D02*
X99397D01*
X99573Y54890D01*
Y54364D01*
X99047D01*
X98872Y54540D01*
X99047Y54715D01*
X99573D01*
X100623Y55415D02*
Y54364D01*
X100098D01*
X99923Y54540D01*
Y54890D01*
X100098Y55065D01*
X100623D01*
X83229Y55415D02*
Y54364D01*
Y54890D01*
X83929D01*
Y55415D01*
Y54364D01*
X84454D02*
X84805D01*
X84980Y54540D01*
Y54890D01*
X84805Y55065D01*
X84454D01*
X84279Y54890D01*
Y54540D01*
X84454Y54364D01*
X85330D02*
X85680D01*
X85505D01*
Y55415D01*
X85330D01*
X86731Y54364D02*
X86381D01*
X86206Y54540D01*
Y54890D01*
X86381Y55065D01*
X86731D01*
X86906Y54890D01*
Y54715D01*
X86206D01*
X88307Y55415D02*
X89008D01*
X88657D01*
Y54364D01*
X89358Y55065D02*
Y54540D01*
X89533Y54364D01*
X90058D01*
Y54189D01*
X89883Y54014D01*
X89708D01*
X90058Y54364D02*
Y55065D01*
X90409Y54014D02*
Y55065D01*
X90934D01*
X91109Y54890D01*
Y54540D01*
X90934Y54364D01*
X90409D01*
X91985D02*
X91634D01*
X91459Y54540D01*
Y54890D01*
X91634Y55065D01*
X91985D01*
X92160Y54890D01*
Y54715D01*
X91459D01*
X75991Y54364D02*
Y55415D01*
X76516D01*
X76691Y55240D01*
Y54890D01*
X76516Y54715D01*
X75991D01*
X77042Y54364D02*
X77392D01*
X77217D01*
Y55415D01*
X77042D01*
X78092Y55065D02*
X78443D01*
X78618Y54890D01*
Y54364D01*
X78092D01*
X77917Y54540D01*
X78092Y54715D01*
X78618D01*
X79143Y55240D02*
Y55065D01*
X78968D01*
X79318D01*
X79143D01*
Y54540D01*
X79318Y54364D01*
X80369D02*
X80019D01*
X79844Y54540D01*
Y54890D01*
X80019Y55065D01*
X80369D01*
X80544Y54890D01*
Y54715D01*
X79844D01*
X81595Y55415D02*
Y54364D01*
X81069D01*
X80894Y54540D01*
Y54890D01*
X81069Y55065D01*
X81595D01*
X59300Y55415D02*
Y54364D01*
Y54890D01*
X60000D01*
Y55415D01*
Y54364D01*
X60526D02*
X60876D01*
X61051Y54540D01*
Y54890D01*
X60876Y55065D01*
X60526D01*
X60351Y54890D01*
Y54540D01*
X60526Y54364D01*
X61401D02*
X61751D01*
X61576D01*
Y55415D01*
X61401D01*
X62802Y54364D02*
X62452D01*
X62277Y54540D01*
Y54890D01*
X62452Y55065D01*
X62802D01*
X62977Y54890D01*
Y54715D01*
X62277D01*
X65079Y55240D02*
X64904Y55415D01*
X64553D01*
X64378Y55240D01*
Y55065D01*
X64553Y54890D01*
X64904D01*
X65079Y54715D01*
Y54540D01*
X64904Y54364D01*
X64553D01*
X64378Y54540D01*
X65429Y54364D02*
X65779D01*
X65604D01*
Y55065D01*
X65429D01*
X66305D02*
X67005D01*
X66305Y54364D01*
X67005D01*
X67881D02*
X67531D01*
X67355Y54540D01*
Y54890D01*
X67531Y55065D01*
X67881D01*
X68056Y54890D01*
Y54715D01*
X67355D01*
X52211Y55240D02*
X52036Y55415D01*
X51686D01*
X51511Y55240D01*
Y54540D01*
X51686Y54364D01*
X52036D01*
X52211Y54540D01*
X52737Y54364D02*
X53087D01*
X53262Y54540D01*
Y54890D01*
X53087Y55065D01*
X52737D01*
X52562Y54890D01*
Y54540D01*
X52737Y54364D01*
X53612Y55065D02*
Y54540D01*
X53787Y54364D01*
X54313D01*
Y55065D01*
X54663Y54364D02*
Y55065D01*
X55188D01*
X55363Y54890D01*
Y54364D01*
X55889Y55240D02*
Y55065D01*
X55714D01*
X56064D01*
X55889D01*
Y54540D01*
X56064Y54364D01*
X44974Y55240D02*
X44798Y55415D01*
X44448D01*
X44273Y55240D01*
Y55065D01*
X44448Y54890D01*
X44798D01*
X44974Y54715D01*
Y54540D01*
X44798Y54364D01*
X44448D01*
X44273Y54540D01*
X45324Y55065D02*
Y54540D01*
X45499Y54364D01*
X46024D01*
Y54189D01*
X45849Y54014D01*
X45674D01*
X46024Y54364D02*
Y55065D01*
X46375Y54364D02*
Y55065D01*
X46550D01*
X46725Y54890D01*
Y54364D01*
Y54890D01*
X46900Y55065D01*
X47075Y54890D01*
Y54364D01*
X47425Y55415D02*
Y54364D01*
X47951D01*
X48126Y54540D01*
Y54715D01*
Y54890D01*
X47951Y55065D01*
X47425D01*
X48651Y54364D02*
X49001D01*
X49176Y54540D01*
Y54890D01*
X49001Y55065D01*
X48651D01*
X48476Y54890D01*
Y54540D01*
X48651Y54364D01*
X49527D02*
X49877D01*
X49702D01*
Y55415D01*
X49527D01*
D51*
X3241Y-2360D02*
X3441D01*
X3341D01*
Y-1760D01*
X3241Y-1860D01*
X3740D02*
X3840Y-1760D01*
X4040D01*
X4140Y-1860D01*
Y-2260D01*
X4040Y-2360D01*
X3840D01*
X3740Y-2260D01*
Y-1860D01*
X4740Y-1760D02*
X4540Y-1860D01*
X4340Y-2060D01*
Y-2260D01*
X4440Y-2360D01*
X4640D01*
X4740Y-2260D01*
Y-2160D01*
X4640Y-2060D01*
X4340D01*
X4940Y-1860D02*
X5040Y-1760D01*
X5240D01*
X5340Y-1860D01*
Y-2260D01*
X5240Y-2360D01*
X5040D01*
X4940Y-2260D01*
Y-1860D01*
X5540Y-2360D02*
Y-2260D01*
X5640D01*
Y-2360D01*
X5540D01*
X6040Y-1860D02*
X6140Y-1760D01*
X6340D01*
X6440Y-1860D01*
Y-2260D01*
X6340Y-2360D01*
X6140D01*
X6040Y-2260D01*
Y-1860D01*
X6640D02*
X6739Y-1760D01*
X6939D01*
X7039Y-1860D01*
Y-2260D01*
X6939Y-2360D01*
X6739D01*
X6640Y-2260D01*
Y-1860D01*
X-1740Y14491D02*
X-1840Y14591D01*
Y14791D01*
X-1740Y14891D01*
X-1640D01*
X-1540Y14791D01*
Y14691D01*
Y14791D01*
X-1440Y14891D01*
X-1340D01*
X-1240Y14791D01*
Y14591D01*
X-1340Y14491D01*
X-1740Y15090D02*
X-1840Y15190D01*
Y15390D01*
X-1740Y15490D01*
X-1640D01*
X-1540Y15390D01*
Y15290D01*
Y15390D01*
X-1440Y15490D01*
X-1340D01*
X-1240Y15390D01*
Y15190D01*
X-1340Y15090D01*
X-1240Y16090D02*
Y15690D01*
X-1640Y16090D01*
X-1740D01*
X-1840Y15990D01*
Y15790D01*
X-1740Y15690D01*
Y16290D02*
X-1840Y16390D01*
Y16590D01*
X-1740Y16690D01*
X-1340D01*
X-1240Y16590D01*
Y16390D01*
X-1340Y16290D01*
X-1740D01*
X-1240Y16890D02*
X-1340D01*
Y16990D01*
X-1240D01*
Y16890D01*
X-1740Y17390D02*
X-1840Y17490D01*
Y17690D01*
X-1740Y17790D01*
X-1340D01*
X-1240Y17690D01*
Y17490D01*
X-1340Y17390D01*
X-1740D01*
Y17989D02*
X-1840Y18089D01*
Y18289D01*
X-1740Y18389D01*
X-1340D01*
X-1240Y18289D01*
Y18089D01*
X-1340Y17989D01*
X-1740D01*
X15386Y35140D02*
X15486Y35240D01*
X15686D01*
X15786Y35140D01*
Y35040D01*
X15686Y34940D01*
X15586D01*
X15686D01*
X15786Y34840D01*
Y34740D01*
X15686Y34640D01*
X15486D01*
X15386Y34740D01*
X16385Y35240D02*
X15985D01*
Y34940D01*
X16185Y35040D01*
X16285D01*
X16385Y34940D01*
Y34740D01*
X16285Y34640D01*
X16085D01*
X15985Y34740D01*
X16585Y35140D02*
X16685Y35240D01*
X16885D01*
X16985Y35140D01*
Y34740D01*
X16885Y34640D01*
X16685D01*
X16585Y34740D01*
Y35140D01*
X17185D02*
X17285Y35240D01*
X17485D01*
X17585Y35140D01*
Y34740D01*
X17485Y34640D01*
X17285D01*
X17185Y34740D01*
Y35140D01*
X17785Y34640D02*
Y34740D01*
X17885D01*
Y34640D01*
X17785D01*
X18285Y34740D02*
X18385Y34640D01*
X18585D01*
X18685Y34740D01*
Y35140D01*
X18585Y35240D01*
X18385D01*
X18285Y35140D01*
Y35040D01*
X18385Y34940D01*
X18685D01*
X18885Y34740D02*
X18985Y34640D01*
X19184D01*
X19284Y34740D01*
Y35140D01*
X19184Y35240D01*
X18985D01*
X18885Y35140D01*
Y35040D01*
X18985Y34940D01*
X19284D01*
X36710Y19090D02*
Y18691D01*
X36310Y19090D01*
X36210D01*
X36110Y18991D01*
Y18791D01*
X36210Y18691D01*
X36710Y19590D02*
X36110D01*
X36410Y19290D01*
Y19690D01*
X36210Y19890D02*
X36110Y19990D01*
Y20190D01*
X36210Y20290D01*
X36310D01*
X36410Y20190D01*
X36510Y20290D01*
X36610D01*
X36710Y20190D01*
Y19990D01*
X36610Y19890D01*
X36510D01*
X36410Y19990D01*
X36310Y19890D01*
X36210D01*
X36410Y19990D02*
Y20190D01*
X36210Y20490D02*
X36110Y20590D01*
Y20790D01*
X36210Y20890D01*
X36610D01*
X36710Y20790D01*
Y20590D01*
X36610Y20490D01*
X36210D01*
X36710Y21090D02*
X36610D01*
Y21190D01*
X36710D01*
Y21090D01*
X36210Y21590D02*
X36110Y21690D01*
Y21890D01*
X36210Y21990D01*
X36610D01*
X36710Y21890D01*
Y21690D01*
X36610Y21590D01*
X36210D01*
Y22190D02*
X36110Y22289D01*
Y22489D01*
X36210Y22589D01*
X36610D01*
X36710Y22489D01*
Y22289D01*
X36610Y22190D01*
X36210D01*
M02*
