G04 Layer_Physical_Order=2*
G04 Layer_Color=16711680*
%FSLAX24Y24*%
%MOIN*%
G70*
G01*
G75*
%ADD11C,0.0100*%
%ADD12C,0.0120*%
%ADD13C,0.0150*%
%ADD14C,0.0350*%
%ADD16C,0.0591*%
%ADD17R,0.0591X0.0591*%
%ADD18O,0.1500X0.1750*%
%ADD19C,0.1400*%
%ADD20C,0.0700*%
%ADD21C,0.0720*%
%ADD22C,0.1260*%
%ADD23C,0.0900*%
%ADD24C,0.0400*%
%ADD25R,0.0571X0.0236*%
%ADD26R,0.0492X0.0591*%
%ADD27R,0.0701X0.1240*%
%ADD28R,0.0551X0.0394*%
%ADD29C,0.0300*%
G36*
X20018Y20342D02*
X20019Y20322D01*
X20021Y20302D01*
X20024Y20283D01*
X20029Y20266D01*
X20035Y20249D01*
X20043Y20233D01*
X20052Y20217D01*
X20063Y20203D01*
X20075Y20190D01*
X19984Y20111D01*
X19971Y20123D01*
X19957Y20134D01*
X19942Y20144D01*
X19926Y20152D01*
X19909Y20160D01*
X19891Y20166D01*
X19871Y20171D01*
X19851Y20175D01*
X19830Y20178D01*
X19808Y20180D01*
X20019Y20364D01*
X20018Y20342D01*
D02*
G37*
G36*
X14704Y20776D02*
X14706Y20755D01*
X14709Y20735D01*
X14713Y20716D01*
X14719Y20698D01*
X14726Y20681D01*
X14734Y20665D01*
X14743Y20650D01*
X14754Y20636D01*
X14766Y20623D01*
X14681Y20538D01*
X14668Y20550D01*
X14654Y20561D01*
X14639Y20570D01*
X14623Y20578D01*
X14606Y20585D01*
X14588Y20591D01*
X14569Y20595D01*
X14549Y20598D01*
X14528Y20600D01*
X14506Y20600D01*
X14704Y20798D01*
X14704Y20776D01*
D02*
G37*
G36*
X18930Y20274D02*
X18914Y20256D01*
X18899Y20236D01*
X18886Y20213D01*
X18875Y20189D01*
X18866Y20163D01*
X18858Y20135D01*
X18852Y20105D01*
X18848Y20073D01*
X18846Y20039D01*
X18845Y20003D01*
X18553Y20295D01*
X18589Y20296D01*
X18623Y20298D01*
X18655Y20302D01*
X18685Y20308D01*
X18713Y20316D01*
X18739Y20325D01*
X18763Y20336D01*
X18786Y20349D01*
X18806Y20364D01*
X18824Y20380D01*
X18930Y20274D01*
D02*
G37*
G36*
X17339Y18793D02*
X17327Y18804D01*
X17313Y18814D01*
X17296Y18822D01*
X17277Y18830D01*
X17256Y18836D01*
X17233Y18841D01*
X17208Y18845D01*
X17180Y18848D01*
X17119Y18850D01*
Y19150D01*
X17150Y19151D01*
X17208Y19155D01*
X17233Y19159D01*
X17256Y19164D01*
X17277Y19170D01*
X17296Y19178D01*
X17313Y19186D01*
X17327Y19196D01*
X17339Y19207D01*
Y18793D01*
D02*
G37*
G36*
X18280Y19357D02*
X18299Y19344D01*
X18321Y19332D01*
X18346Y19322D01*
X18373Y19313D01*
X18403Y19307D01*
X18435Y19301D01*
X18470Y19298D01*
X18547Y19295D01*
X18255Y19003D01*
X18254Y19043D01*
X18249Y19115D01*
X18243Y19147D01*
X18237Y19177D01*
X18228Y19204D01*
X18218Y19229D01*
X18206Y19251D01*
X18193Y19270D01*
X18178Y19287D01*
X18263Y19372D01*
X18280Y19357D01*
D02*
G37*
G36*
X17846Y20955D02*
X17851Y20879D01*
X17856Y20845D01*
X17862Y20814D01*
X17870Y20786D01*
X17879Y20761D01*
X17890Y20739D01*
X17902Y20720D01*
X17916Y20704D01*
X17846Y20634D01*
X17830Y20648D01*
X17811Y20660D01*
X17789Y20671D01*
X17764Y20680D01*
X17736Y20688D01*
X17705Y20694D01*
X17671Y20699D01*
X17595Y20704D01*
X17553Y20705D01*
X17845Y20997D01*
X17846Y20955D01*
D02*
G37*
G36*
X12731Y24406D02*
X12732Y24400D01*
X12735Y24394D01*
X12739Y24386D01*
X12745Y24377D01*
X12752Y24367D01*
X12772Y24344D01*
X12798Y24316D01*
X12813Y24300D01*
X12601D01*
X12580Y24320D01*
X12558Y24338D01*
X12537Y24354D01*
X12516Y24368D01*
X12495Y24380D01*
X12473Y24390D01*
X12452Y24397D01*
X12431Y24403D01*
X12410Y24406D01*
X12389Y24407D01*
X12731Y24406D01*
D02*
G37*
G36*
X13559Y24809D02*
X13563Y24798D01*
X13569Y24789D01*
X13577Y24782D01*
X13588Y24775D01*
X13601Y24770D01*
X13617Y24765D01*
X13635Y24762D01*
X13655Y24761D01*
X13678Y24760D01*
Y24640D01*
X13655Y24639D01*
X13635Y24638D01*
X13617Y24635D01*
X13601Y24630D01*
X13588Y24625D01*
X13577Y24618D01*
X13569Y24611D01*
X13563Y24602D01*
X13559Y24591D01*
X13558Y24580D01*
Y24820D01*
X13559Y24809D01*
D02*
G37*
G36*
X13165Y23949D02*
X13215Y23907D01*
X13239Y23891D01*
X13261Y23879D01*
X13281Y23870D01*
X13300Y23864D01*
X13318Y23862D01*
X13334Y23864D01*
X13350Y23868D01*
X13060Y23736D01*
X13072Y23744D01*
X13079Y23755D01*
X13080Y23769D01*
X13077Y23786D01*
X13069Y23806D01*
X13056Y23828D01*
X13038Y23854D01*
X13014Y23883D01*
X12953Y23948D01*
X13137Y23976D01*
X13165Y23949D01*
D02*
G37*
G36*
X17339Y20793D02*
X17311Y20821D01*
X17256Y20868D01*
X17229Y20887D01*
X17203Y20903D01*
X17178Y20917D01*
X17154Y20927D01*
X17130Y20934D01*
X17106Y20939D01*
X17084Y20940D01*
Y21060D01*
X17106Y21061D01*
X17130Y21066D01*
X17154Y21073D01*
X17178Y21083D01*
X17203Y21097D01*
X17229Y21113D01*
X17256Y21132D01*
X17283Y21154D01*
X17339Y21207D01*
Y20793D01*
D02*
G37*
G36*
X14528Y23244D02*
X14517Y23230D01*
X14507Y23216D01*
X14498Y23201D01*
X14491Y23185D01*
X14485Y23168D01*
X14481Y23151D01*
X14478Y23133D01*
X14476Y23114D01*
X14475Y23095D01*
X14325D01*
X14324Y23114D01*
X14322Y23133D01*
X14319Y23151D01*
X14315Y23168D01*
X14309Y23185D01*
X14302Y23201D01*
X14293Y23216D01*
X14283Y23230D01*
X14272Y23244D01*
X14260Y23257D01*
X14540D01*
X14528Y23244D01*
D02*
G37*
G36*
X10386Y11662D02*
X10390Y11607D01*
X10392Y11592D01*
X10395Y11579D01*
X10399Y11567D01*
X10404Y11557D01*
X10409Y11549D01*
X10414Y11542D01*
X10329Y11458D01*
X10323Y11463D01*
X10314Y11468D01*
X10304Y11472D01*
X10293Y11476D01*
X10279Y11479D01*
X10264Y11482D01*
X10248Y11484D01*
X10209Y11486D01*
X10188Y11486D01*
X10386Y11684D01*
X10386Y11662D01*
D02*
G37*
G36*
X23685Y13179D02*
X23692Y13148D01*
X23706Y13114D01*
X23724Y13078D01*
X23748Y13040D01*
X23777Y12999D01*
X23851Y12910D01*
X23897Y12862D01*
X23947Y12811D01*
X23317D01*
X23367Y12862D01*
X23486Y12999D01*
X23516Y13040D01*
X23539Y13078D01*
X23558Y13114D01*
X23571Y13148D01*
X23579Y13179D01*
X23582Y13207D01*
X23682D01*
X23685Y13179D01*
D02*
G37*
G36*
X11742Y11380D02*
X11741Y11391D01*
X11737Y11402D01*
X11731Y11411D01*
X11723Y11418D01*
X11712Y11425D01*
X11699Y11430D01*
X11683Y11435D01*
X11665Y11438D01*
X11645Y11439D01*
X11622Y11440D01*
Y11560D01*
X11645Y11561D01*
X11665Y11562D01*
X11683Y11565D01*
X11699Y11570D01*
X11712Y11575D01*
X11723Y11582D01*
X11731Y11589D01*
X11737Y11598D01*
X11741Y11609D01*
X11742Y11620D01*
Y11380D01*
D02*
G37*
G36*
X3011Y5219D02*
X3025Y5085D01*
X3038Y5031D01*
X3053Y4985D01*
X3072Y4947D01*
X3095Y4918D01*
X3121Y4897D01*
X3151Y4885D01*
X3184Y4881D01*
X2485D01*
X2518Y4885D01*
X2548Y4897D01*
X2574Y4918D01*
X2597Y4947D01*
X2616Y4985D01*
X2632Y5031D01*
X2644Y5085D01*
X2653Y5148D01*
X2658Y5219D01*
X2660Y5298D01*
X3010D01*
X3011Y5219D01*
D02*
G37*
G36*
X7986Y5187D02*
X7991Y5128D01*
X7998Y5076D01*
X8009Y5031D01*
X8022Y4992D01*
X8038Y4961D01*
X8058Y4937D01*
X8080Y4919D01*
X8106Y4909D01*
X8134Y4905D01*
X7535D01*
X7564Y4909D01*
X7589Y4919D01*
X7611Y4937D01*
X7631Y4961D01*
X7647Y4992D01*
X7661Y5031D01*
X7671Y5076D01*
X7679Y5128D01*
X7683Y5187D01*
X7685Y5253D01*
X7985D01*
X7986Y5187D01*
D02*
G37*
G36*
X24694Y13176D02*
X24702Y13144D01*
X24715Y13110D01*
X24733Y13073D01*
X24756Y13035D01*
X24784Y12994D01*
X24817Y12952D01*
X24898Y12860D01*
X24947Y12811D01*
X24317D01*
X24365Y12860D01*
X24447Y12952D01*
X24480Y12994D01*
X24508Y13035D01*
X24531Y13073D01*
X24549Y13110D01*
X24562Y13144D01*
X24569Y13176D01*
X24572Y13206D01*
X24692D01*
X24694Y13176D01*
D02*
G37*
G36*
X11821Y18700D02*
X11818Y18728D01*
X11809Y18754D01*
X11794Y18777D01*
X11773Y18796D01*
X11746Y18813D01*
X11713Y18826D01*
X11674Y18836D01*
X11629Y18844D01*
X11578Y18849D01*
X11521Y18850D01*
Y19150D01*
X11578Y19152D01*
X11629Y19156D01*
X11674Y19164D01*
X11713Y19174D01*
X11746Y19188D01*
X11773Y19204D01*
X11794Y19224D01*
X11809Y19246D01*
X11818Y19272D01*
X11821Y19300D01*
Y18700D01*
D02*
G37*
G36*
X14581Y19272D02*
X14590Y19246D01*
X14605Y19224D01*
X14626Y19204D01*
X14653Y19188D01*
X14686Y19174D01*
X14725Y19164D01*
X14770Y19156D01*
X14821Y19152D01*
X14879Y19150D01*
Y18850D01*
X14821Y18849D01*
X14770Y18844D01*
X14725Y18836D01*
X14686Y18826D01*
X14653Y18813D01*
X14626Y18796D01*
X14605Y18777D01*
X14590Y18754D01*
X14581Y18728D01*
X14578Y18700D01*
Y19300D01*
X14581Y19272D01*
D02*
G37*
G36*
X18547Y18705D02*
X18507Y18704D01*
X18435Y18699D01*
X18403Y18693D01*
X18373Y18687D01*
X18346Y18678D01*
X18321Y18668D01*
X18299Y18656D01*
X18280Y18643D01*
X18263Y18628D01*
X18178Y18713D01*
X18193Y18730D01*
X18206Y18749D01*
X18218Y18771D01*
X18228Y18796D01*
X18237Y18823D01*
X18243Y18853D01*
X18249Y18885D01*
X18252Y18920D01*
X18255Y18997D01*
X18547Y18705D01*
D02*
G37*
G36*
X13143Y14370D02*
X13121Y14347D01*
X13087Y14306D01*
X13074Y14287D01*
X13064Y14270D01*
X13057Y14253D01*
X13052Y14238D01*
X13051Y14224D01*
X13053Y14212D01*
X13057Y14200D01*
X12938Y14418D01*
X12945Y14409D01*
X12954Y14404D01*
X12965Y14403D01*
X12979Y14406D01*
X12995Y14412D01*
X13013Y14423D01*
X13033Y14437D01*
X13056Y14456D01*
X13107Y14504D01*
X13143Y14370D01*
D02*
G37*
G36*
X13164Y15682D02*
X13137Y15654D01*
X13093Y15602D01*
X13077Y15578D01*
X13064Y15556D01*
X13056Y15536D01*
X13051Y15517D01*
X13049Y15500D01*
X13052Y15484D01*
X13058Y15470D01*
X12895Y15732D01*
X12905Y15721D01*
X12917Y15715D01*
X12932Y15714D01*
X12949Y15717D01*
X12969Y15725D01*
X12991Y15738D01*
X13016Y15756D01*
X13044Y15779D01*
X13107Y15838D01*
X13164Y15682D01*
D02*
G37*
G36*
X34740Y29740D02*
Y11737D01*
X33926Y11100D01*
X32598D01*
X32569Y11135D01*
X32458Y11226D01*
X32331Y11294D01*
X32193Y11336D01*
X32050Y11350D01*
X31907Y11336D01*
X31769Y11294D01*
X31642Y11226D01*
X31531Y11135D01*
X31502Y11100D01*
X16598D01*
X16569Y11135D01*
X16458Y11226D01*
X16331Y11294D01*
X16193Y11336D01*
X16050Y11350D01*
X15907Y11336D01*
X15769Y11294D01*
X15642Y11226D01*
X15531Y11135D01*
X15502Y11100D01*
X13207D01*
X13159Y11105D01*
X13159Y11150D01*
Y11450D01*
X12813D01*
X12467D01*
X12467Y11105D01*
X12419Y11100D01*
X12381D01*
X12333Y11105D01*
X12333Y11150D01*
Y11895D01*
X11641D01*
Y11663D01*
X10531D01*
X10488Y11686D01*
X10478Y11764D01*
X10448Y11837D01*
X10400Y11900D01*
X10337Y11948D01*
X10264Y11978D01*
X10186Y11988D01*
X10108Y11978D01*
X10035Y11948D01*
X9972Y11900D01*
X9924Y11837D01*
X9894Y11764D01*
X9883Y11686D01*
X9894Y11608D01*
X9924Y11535D01*
X9972Y11472D01*
X10035Y11424D01*
X10108Y11394D01*
X10186Y11383D01*
X10191Y11384D01*
X10207Y11384D01*
X10239Y11382D01*
X10250Y11381D01*
X10259Y11379D01*
X10265Y11378D01*
X10268Y11377D01*
X10309Y11349D01*
X10372Y11337D01*
X11641D01*
X11641Y11105D01*
X11593Y11100D01*
X8090D01*
Y16029D01*
X10806Y18745D01*
X11590D01*
X11616Y18743D01*
X11653Y18737D01*
X11681Y18729D01*
X11700Y18721D01*
X11711Y18714D01*
X11716Y18710D01*
X11717Y18708D01*
X11718Y18706D01*
X11720Y18689D01*
X11720Y18689D01*
Y18280D01*
X12621D01*
Y19720D01*
X11720D01*
Y19311D01*
X11720Y19311D01*
X11718Y19294D01*
X11717Y19292D01*
X11716Y19290D01*
X11711Y19286D01*
X11700Y19279D01*
X11681Y19271D01*
X11653Y19263D01*
X11616Y19257D01*
X11590Y19255D01*
X10700D01*
X10602Y19236D01*
X10520Y19180D01*
X7654Y16315D01*
X7599Y16232D01*
X7580Y16135D01*
Y11100D01*
X1112D01*
X570Y11525D01*
Y29910D01*
X1004Y30250D01*
X1932D01*
X1951Y30204D01*
X1074Y29326D01*
X1035Y29268D01*
X1022Y29200D01*
Y29151D01*
X1019Y29136D01*
X1013Y29117D01*
X1004Y29095D01*
X992Y29072D01*
X976Y29047D01*
X958Y29021D01*
X906Y28960D01*
X884Y28937D01*
X872Y28928D01*
X798Y28832D01*
X752Y28720D01*
X736Y28600D01*
X752Y28480D01*
X798Y28368D01*
X872Y28272D01*
X968Y28198D01*
X1080Y28152D01*
X1200Y28136D01*
X1320Y28152D01*
X1432Y28198D01*
X1528Y28272D01*
X1602Y28368D01*
X1648Y28480D01*
X1664Y28600D01*
X1648Y28720D01*
X1602Y28832D01*
X1528Y28928D01*
X1518Y28936D01*
X1465Y28992D01*
X1443Y29020D01*
X1424Y29047D01*
X1408Y29072D01*
X1396Y29095D01*
X1387Y29117D01*
X1383Y29131D01*
X2502Y30250D01*
X2932D01*
X2951Y30204D01*
X2074Y29326D01*
X2035Y29268D01*
X2022Y29200D01*
Y29151D01*
X2019Y29136D01*
X2013Y29117D01*
X2004Y29095D01*
X1992Y29072D01*
X1976Y29047D01*
X1958Y29021D01*
X1906Y28960D01*
X1884Y28937D01*
X1872Y28928D01*
X1798Y28832D01*
X1752Y28720D01*
X1736Y28600D01*
X1752Y28480D01*
X1798Y28368D01*
X1872Y28272D01*
X1968Y28198D01*
X2080Y28152D01*
X2200Y28136D01*
X2320Y28152D01*
X2432Y28198D01*
X2528Y28272D01*
X2602Y28368D01*
X2648Y28480D01*
X2664Y28600D01*
X2648Y28720D01*
X2602Y28832D01*
X2528Y28928D01*
X2518Y28936D01*
X2465Y28992D01*
X2443Y29020D01*
X2424Y29047D01*
X2408Y29072D01*
X2396Y29095D01*
X2387Y29117D01*
X2383Y29131D01*
X3350Y30098D01*
X10276D01*
X10344Y30111D01*
X10402Y30150D01*
X10502Y30250D01*
X15292D01*
X15326Y30213D01*
X15316Y30117D01*
X15331Y29973D01*
X15372Y29836D01*
X15440Y29709D01*
X15531Y29598D01*
X15642Y29507D01*
X15769Y29439D01*
X15907Y29397D01*
X16050Y29383D01*
X16193Y29397D01*
X16331Y29439D01*
X16458Y29507D01*
X16569Y29598D01*
X16660Y29709D01*
X16728Y29836D01*
X16769Y29973D01*
X16784Y30117D01*
X16774Y30213D01*
X16808Y30250D01*
X19098D01*
X20522Y28826D01*
Y22224D01*
X18739Y20441D01*
X18730Y20435D01*
X18716Y20427D01*
X18700Y20419D01*
X18682Y20413D01*
X18662Y20407D01*
X18639Y20403D01*
X18613Y20400D01*
X18585Y20398D01*
X18560Y20397D01*
X18550Y20399D01*
X18447Y20385D01*
X18351Y20345D01*
X18268Y20282D01*
X18260Y20272D01*
X18213Y20288D01*
Y20490D01*
X18201Y20549D01*
X18168Y20598D01*
X17984Y20783D01*
X17979Y20790D01*
X17973Y20802D01*
X17967Y20818D01*
X17961Y20838D01*
X17956Y20863D01*
X17952Y20889D01*
X17948Y20958D01*
X17947Y20989D01*
X17949Y21000D01*
X17935Y21103D01*
X17895Y21199D01*
X17832Y21282D01*
X17749Y21345D01*
X17653Y21385D01*
X17550Y21399D01*
X17447Y21385D01*
X17351Y21345D01*
X17268Y21282D01*
X17262Y21274D01*
X17216Y21231D01*
X17194Y21213D01*
X17172Y21198D01*
X17153Y21185D01*
X17135Y21176D01*
X17119Y21169D01*
X17105Y21165D01*
X17095Y21163D01*
X15668D01*
X15163Y21668D01*
Y23900D01*
X15151Y23962D01*
X15115Y24015D01*
X14315Y24815D01*
X14262Y24851D01*
X14200Y24863D01*
X13659D01*
Y25095D01*
X12967D01*
Y24363D01*
X12917Y24342D01*
X12847Y24412D01*
X12833Y24430D01*
Y25095D01*
X12141D01*
Y24305D01*
X12394D01*
X12399Y24304D01*
X12411Y24303D01*
X12423Y24300D01*
X12435Y24295D01*
X12449Y24289D01*
X12463Y24281D01*
X12478Y24271D01*
X12495Y24259D01*
X12504Y24251D01*
X12910Y23845D01*
X12937Y23815D01*
X12956Y23792D01*
X12957Y23791D01*
Y23377D01*
X13709D01*
Y23971D01*
X13305D01*
X13293Y23978D01*
X13277Y23989D01*
X13240Y24020D01*
X13005Y24255D01*
X13025Y24305D01*
X13659D01*
Y24537D01*
X14132D01*
X14837Y23832D01*
Y21600D01*
X14849Y21538D01*
X14885Y21485D01*
X15485Y20885D01*
X15538Y20849D01*
X15600Y20837D01*
X17095D01*
X17105Y20835D01*
X17119Y20831D01*
X17135Y20824D01*
X17153Y20815D01*
X17172Y20802D01*
X17193Y20788D01*
X17242Y20746D01*
X17262Y20727D01*
X17268Y20718D01*
X17351Y20655D01*
X17447Y20615D01*
X17550Y20601D01*
X17561Y20603D01*
X17592Y20602D01*
X17661Y20598D01*
X17687Y20594D01*
X17712Y20589D01*
X17732Y20583D01*
X17748Y20577D01*
X17760Y20571D01*
X17767Y20566D01*
X17907Y20427D01*
Y20266D01*
X17857Y20249D01*
X17832Y20282D01*
X17749Y20345D01*
X17653Y20385D01*
X17550Y20399D01*
X17447Y20385D01*
X17351Y20345D01*
X17268Y20282D01*
X17205Y20199D01*
X17165Y20103D01*
X17151Y20000D01*
X17165Y19897D01*
X17205Y19801D01*
X17268Y19718D01*
X17278Y19710D01*
X17262Y19663D01*
X15872D01*
X14829Y20705D01*
X14827Y20708D01*
X14823Y20715D01*
X14819Y20723D01*
X14815Y20732D01*
X14812Y20743D01*
X14809Y20754D01*
X14807Y20767D01*
X14806Y20781D01*
X14806Y20796D01*
X14807Y20800D01*
X14796Y20878D01*
X14766Y20951D01*
X14718Y21014D01*
X14655Y21062D01*
X14582Y21092D01*
X14504Y21103D01*
X14426Y21092D01*
X14353Y21062D01*
X14290Y21014D01*
X14242Y20951D01*
X14212Y20878D01*
X14201Y20800D01*
X14212Y20722D01*
X14242Y20649D01*
X14290Y20586D01*
X14353Y20538D01*
X14426Y20508D01*
X14504Y20497D01*
X14508Y20498D01*
X14523Y20498D01*
X14537Y20497D01*
X14550Y20495D01*
X14561Y20492D01*
X14572Y20489D01*
X14581Y20485D01*
X14589Y20481D01*
X14596Y20477D01*
X14599Y20475D01*
X15689Y19385D01*
X15742Y19349D01*
X15804Y19337D01*
X17235D01*
X17257Y19287D01*
X17238Y19265D01*
X17231Y19263D01*
X17214Y19259D01*
X17196Y19256D01*
X17176Y19255D01*
X14810D01*
X14783Y19257D01*
X14747Y19263D01*
X14719Y19271D01*
X14699Y19279D01*
X14687Y19286D01*
X14683Y19290D01*
X14681Y19292D01*
X14681Y19294D01*
X14680Y19301D01*
Y19720D01*
X13828D01*
X13779Y19720D01*
X13778Y19770D01*
Y21326D01*
X14526Y22074D01*
X14565Y22132D01*
X14578Y22200D01*
X14578Y22200D01*
Y23117D01*
X14579Y23118D01*
X14580Y23129D01*
X14583Y23138D01*
X14586Y23147D01*
X14590Y23155D01*
X14594Y23162D01*
X14599Y23170D01*
X14605Y23177D01*
X14611Y23184D01*
X14614Y23186D01*
X14662Y23249D01*
X14692Y23322D01*
X14703Y23400D01*
X14692Y23478D01*
X14662Y23551D01*
X14614Y23614D01*
X14551Y23662D01*
X14478Y23692D01*
X14400Y23703D01*
X14322Y23692D01*
X14249Y23662D01*
X14186Y23614D01*
X14138Y23551D01*
X14108Y23478D01*
X14097Y23400D01*
X14108Y23322D01*
X14138Y23249D01*
X14186Y23186D01*
X14189Y23184D01*
X14195Y23177D01*
X14201Y23170D01*
X14206Y23162D01*
X14210Y23155D01*
X14214Y23147D01*
X14217Y23138D01*
X14220Y23129D01*
X14221Y23118D01*
X14222Y23117D01*
Y22274D01*
X13474Y21526D01*
X13435Y21468D01*
X13422Y21400D01*
Y16298D01*
X13006Y15882D01*
X12977Y15856D01*
X12955Y15838D01*
X12948Y15833D01*
X12904D01*
X12902Y15833D01*
X12897Y15833D01*
X12467D01*
Y15042D01*
X13159D01*
Y15469D01*
X13160Y15473D01*
X13159Y15476D01*
Y15517D01*
X13163Y15524D01*
X13174Y15540D01*
X13207Y15579D01*
X13726Y16098D01*
X13765Y16156D01*
X13778Y16224D01*
Y18230D01*
X13779Y18280D01*
X13828Y18280D01*
X14680D01*
Y18699D01*
X14681Y18706D01*
X14681Y18708D01*
X14683Y18710D01*
X14687Y18714D01*
X14699Y18721D01*
X14719Y18729D01*
X14747Y18737D01*
X14783Y18743D01*
X14810Y18745D01*
X17181D01*
X17195Y18744D01*
X17214Y18741D01*
X17231Y18737D01*
X17238Y18735D01*
X17257Y18713D01*
X17235Y18663D01*
X17188D01*
X17126Y18651D01*
X17073Y18615D01*
X13011Y14553D01*
X12989Y14533D01*
X12974Y14520D01*
X12467D01*
Y13730D01*
X13159D01*
Y14232D01*
X13160Y14233D01*
X13168Y14244D01*
X13192Y14273D01*
X17218Y18299D01*
X17256Y18266D01*
X17205Y18199D01*
X17165Y18103D01*
X17158Y18050D01*
X17550D01*
X17942D01*
X17935Y18103D01*
X17895Y18199D01*
X17832Y18282D01*
X17822Y18290D01*
X17838Y18337D01*
X18050D01*
X18112Y18349D01*
X18165Y18385D01*
X18344Y18563D01*
X18352Y18569D01*
X18365Y18576D01*
X18381Y18582D01*
X18400Y18588D01*
X18423Y18593D01*
X18447Y18597D01*
X18512Y18602D01*
X18539Y18603D01*
X18550Y18601D01*
X18653Y18615D01*
X18749Y18655D01*
X18832Y18718D01*
X18895Y18801D01*
X18935Y18897D01*
X18949Y19000D01*
X18935Y19103D01*
X18895Y19199D01*
X18832Y19282D01*
X18812Y19297D01*
X18829Y19347D01*
X19257D01*
X23479Y15125D01*
Y13201D01*
X23478Y13196D01*
X23474Y13179D01*
X23465Y13157D01*
X23451Y13129D01*
X23431Y13097D01*
X23406Y13062D01*
X23292Y12931D01*
X23256Y12895D01*
X23240Y12882D01*
X23151Y12767D01*
X23096Y12633D01*
X23077Y12490D01*
X23096Y12346D01*
X23151Y12212D01*
X23240Y12098D01*
X23355Y12009D01*
X23488Y11954D01*
X23632Y11935D01*
X23775Y11954D01*
X23909Y12009D01*
X24024Y12098D01*
X24103Y12200D01*
X24119Y12204D01*
X24145D01*
X24161Y12200D01*
X24240Y12098D01*
X24355Y12009D01*
X24488Y11954D01*
X24632Y11935D01*
X24775Y11954D01*
X24909Y12009D01*
X25024Y12098D01*
X25112Y12212D01*
X25168Y12346D01*
X25187Y12490D01*
X25168Y12633D01*
X25112Y12767D01*
X25024Y12882D01*
X25008Y12895D01*
X24973Y12930D01*
X24895Y13017D01*
X24866Y13055D01*
X24841Y13090D01*
X24822Y13122D01*
X24809Y13150D01*
X24800Y13173D01*
X24795Y13192D01*
X24795Y13196D01*
Y15548D01*
X24783Y15611D01*
X24747Y15663D01*
X20139Y20272D01*
X20137Y20275D01*
X20133Y20281D01*
X20129Y20289D01*
X20126Y20297D01*
X20124Y20306D01*
X20122Y20316D01*
X20121Y20328D01*
X20120Y20341D01*
X20121Y20359D01*
X20120Y20364D01*
X20123Y20380D01*
X20112Y20458D01*
X20082Y20531D01*
X20034Y20594D01*
X19971Y20642D01*
X19898Y20672D01*
X19820Y20683D01*
X19742Y20672D01*
X19669Y20642D01*
X19606Y20594D01*
X19558Y20531D01*
X19528Y20458D01*
X19517Y20380D01*
X19528Y20302D01*
X19558Y20229D01*
X19606Y20166D01*
X19669Y20118D01*
X19742Y20088D01*
X19790Y20081D01*
X19799Y20079D01*
X19818Y20077D01*
X19834Y20075D01*
X19848Y20072D01*
X19860Y20069D01*
X19871Y20065D01*
X19881Y20060D01*
X19890Y20056D01*
X19898Y20051D01*
X19901Y20048D01*
X24469Y15481D01*
Y13196D01*
X24468Y13192D01*
X24464Y13173D01*
X24455Y13150D01*
X24441Y13122D01*
X24422Y13090D01*
X24398Y13055D01*
X24369Y13017D01*
X24291Y12930D01*
X24256Y12895D01*
X24240Y12882D01*
X24161Y12780D01*
X24145Y12776D01*
X24119D01*
X24103Y12780D01*
X24024Y12882D01*
X24007Y12895D01*
X23970Y12933D01*
X23928Y12978D01*
X23858Y13062D01*
X23833Y13097D01*
X23813Y13129D01*
X23799Y13157D01*
X23790Y13179D01*
X23785Y13196D01*
X23785Y13201D01*
Y15188D01*
X23773Y15247D01*
X23740Y15296D01*
X19428Y19608D01*
X19379Y19641D01*
X19320Y19653D01*
X18829D01*
X18812Y19703D01*
X18832Y19718D01*
X18895Y19801D01*
X18935Y19897D01*
X18949Y20000D01*
X18947Y20010D01*
X18948Y20035D01*
X18950Y20063D01*
X18953Y20089D01*
X18957Y20112D01*
X18963Y20132D01*
X18969Y20150D01*
X18977Y20166D01*
X18985Y20180D01*
X18991Y20189D01*
X20826Y22024D01*
X20865Y22082D01*
X20878Y22150D01*
Y28900D01*
X20878Y28900D01*
X20865Y28968D01*
X20826Y29026D01*
X20826Y29026D01*
X19649Y30204D01*
X19668Y30250D01*
X31292D01*
X31326Y30213D01*
X31316Y30117D01*
X31331Y29973D01*
X31372Y29836D01*
X31440Y29709D01*
X31531Y29598D01*
X31642Y29507D01*
X31769Y29439D01*
X31907Y29397D01*
X32050Y29383D01*
X32193Y29397D01*
X32331Y29439D01*
X32458Y29507D01*
X32569Y29598D01*
X32660Y29709D01*
X32728Y29836D01*
X32769Y29973D01*
X32784Y30117D01*
X32774Y30213D01*
X32808Y30250D01*
X34089D01*
X34740Y29740D01*
D02*
G37*
G36*
X2277Y29140D02*
X2282Y29112D01*
X2291Y29082D01*
X2303Y29052D01*
X2319Y29022D01*
X2339Y28990D01*
X2362Y28958D01*
X2388Y28925D01*
X2452Y28857D01*
X1948D01*
X1982Y28891D01*
X2038Y28958D01*
X2061Y28990D01*
X2081Y29022D01*
X2097Y29052D01*
X2109Y29082D01*
X2118Y29112D01*
X2123Y29140D01*
X2125Y29168D01*
X2275D01*
X2277Y29140D01*
D02*
G37*
G36*
X1277D02*
X1282Y29112D01*
X1291Y29082D01*
X1303Y29052D01*
X1319Y29022D01*
X1339Y28990D01*
X1362Y28958D01*
X1388Y28925D01*
X1452Y28857D01*
X948D01*
X982Y28891D01*
X1038Y28958D01*
X1061Y28990D01*
X1081Y29022D01*
X1097Y29052D01*
X1109Y29082D01*
X1118Y29112D01*
X1123Y29140D01*
X1125Y29168D01*
X1275D01*
X1277Y29140D01*
D02*
G37*
G36*
X12153Y31857D02*
X12152Y31865D01*
X12147Y31872D01*
X12140Y31878D01*
X12129Y31884D01*
X12116Y31889D01*
X12099Y31892D01*
X12080Y31895D01*
X12057Y31897D01*
X12003Y31899D01*
Y32049D01*
X12032Y32049D01*
X12080Y32053D01*
X12099Y32056D01*
X12116Y32059D01*
X12129Y32064D01*
X12140Y32070D01*
X12147Y32076D01*
X12152Y32083D01*
X12153Y32091D01*
Y31857D01*
D02*
G37*
G36*
X13648Y31709D02*
X13653Y31702D01*
X13660Y31696D01*
X13671Y31690D01*
X13684Y31685D01*
X13701Y31682D01*
X13720Y31679D01*
X13743Y31677D01*
X13797Y31675D01*
Y31525D01*
X13768Y31525D01*
X13720Y31521D01*
X13701Y31518D01*
X13684Y31515D01*
X13671Y31510D01*
X13660Y31504D01*
X13653Y31498D01*
X13648Y31491D01*
X13647Y31483D01*
Y31717D01*
X13648Y31709D01*
D02*
G37*
G36*
X12153Y31109D02*
X12152Y31117D01*
X12147Y31124D01*
X12140Y31130D01*
X12129Y31136D01*
X12116Y31141D01*
X12099Y31144D01*
X12080Y31147D01*
X12057Y31149D01*
X12003Y31151D01*
Y31301D01*
X12032Y31301D01*
X12080Y31305D01*
X12099Y31308D01*
X12116Y31311D01*
X12129Y31316D01*
X12140Y31322D01*
X12147Y31328D01*
X12152Y31335D01*
X12153Y31343D01*
Y31109D01*
D02*
G37*
%LPC*%
G36*
X18550Y17399D02*
X18447Y17385D01*
X18351Y17345D01*
X18268Y17282D01*
X18205Y17199D01*
X18165Y17103D01*
X18151Y17000D01*
X18165Y16897D01*
X18205Y16801D01*
X18268Y16718D01*
X18351Y16655D01*
X18447Y16615D01*
X18550Y16601D01*
X18653Y16615D01*
X18749Y16655D01*
X18832Y16718D01*
X18895Y16801D01*
X18935Y16897D01*
X18949Y17000D01*
X18935Y17103D01*
X18895Y17199D01*
X18832Y17282D01*
X18749Y17345D01*
X18653Y17385D01*
X18550Y17399D01*
D02*
G37*
G36*
X13159Y17145D02*
X12863D01*
Y16800D01*
X13159D01*
Y17145D01*
D02*
G37*
G36*
X12763D02*
X12467D01*
Y16800D01*
X12763D01*
Y17145D01*
D02*
G37*
G36*
X10600Y17503D02*
X10522Y17492D01*
X10449Y17462D01*
X10386Y17414D01*
X10338Y17351D01*
X10308Y17278D01*
X10297Y17200D01*
X10308Y17122D01*
X10338Y17049D01*
X10386Y16986D01*
X10449Y16938D01*
X10522Y16908D01*
X10600Y16897D01*
X10604Y16898D01*
X10619Y16898D01*
X10633Y16897D01*
X10646Y16895D01*
X10657Y16892D01*
X10668Y16889D01*
X10677Y16885D01*
X10685Y16881D01*
X10692Y16877D01*
X10695Y16875D01*
X10935Y16635D01*
X10988Y16599D01*
X11050Y16587D01*
X11641D01*
Y16355D01*
X12333D01*
Y17145D01*
X11641D01*
Y16913D01*
X11118D01*
X10925Y17105D01*
X10923Y17108D01*
X10919Y17115D01*
X10915Y17123D01*
X10911Y17132D01*
X10908Y17143D01*
X10905Y17154D01*
X10903Y17167D01*
X10902Y17181D01*
X10902Y17196D01*
X10903Y17200D01*
X10892Y17278D01*
X10862Y17351D01*
X10814Y17414D01*
X10751Y17462D01*
X10678Y17492D01*
X10600Y17503D01*
D02*
G37*
G36*
X17945Y16395D02*
X17600D01*
Y16050D01*
X17945D01*
Y16395D01*
D02*
G37*
G36*
X12763Y16700D02*
X12467D01*
Y16355D01*
X12763D01*
Y16700D01*
D02*
G37*
G36*
X17550Y17399D02*
X17447Y17385D01*
X17351Y17345D01*
X17268Y17282D01*
X17205Y17199D01*
X17165Y17103D01*
X17151Y17000D01*
X17165Y16897D01*
X17205Y16801D01*
X17268Y16718D01*
X17351Y16655D01*
X17447Y16615D01*
X17550Y16601D01*
X17653Y16615D01*
X17749Y16655D01*
X17832Y16718D01*
X17895Y16801D01*
X17935Y16897D01*
X17949Y17000D01*
X17935Y17103D01*
X17895Y17199D01*
X17832Y17282D01*
X17749Y17345D01*
X17653Y17385D01*
X17550Y17399D01*
D02*
G37*
G36*
X13159Y16700D02*
X12863D01*
Y16355D01*
X13159D01*
Y16700D01*
D02*
G37*
G36*
X3200Y29064D02*
X3080Y29048D01*
X2968Y29002D01*
X2872Y28928D01*
X2798Y28832D01*
X2752Y28720D01*
X2736Y28600D01*
X2752Y28480D01*
X2798Y28368D01*
X2872Y28272D01*
X2968Y28198D01*
X3080Y28152D01*
X3200Y28136D01*
X3320Y28152D01*
X3432Y28198D01*
X3528Y28272D01*
X3602Y28368D01*
X3648Y28480D01*
X3664Y28600D01*
X3648Y28720D01*
X3602Y28832D01*
X3528Y28928D01*
X3432Y29002D01*
X3320Y29048D01*
X3200Y29064D01*
D02*
G37*
G36*
X5200Y29054D02*
X5083Y29038D01*
X4973Y28993D01*
X4879Y28921D01*
X4807Y28827D01*
X4762Y28717D01*
X4746Y28600D01*
X4762Y28483D01*
X4807Y28373D01*
X4879Y28279D01*
X4973Y28207D01*
X5083Y28162D01*
X5200Y28146D01*
X5317Y28162D01*
X5427Y28207D01*
X5521Y28279D01*
X5593Y28373D01*
X5638Y28483D01*
X5654Y28600D01*
X5638Y28717D01*
X5593Y28827D01*
X5521Y28921D01*
X5427Y28993D01*
X5317Y29038D01*
X5200Y29054D01*
D02*
G37*
G36*
X3250Y28057D02*
Y27650D01*
X3657D01*
X3648Y27720D01*
X3602Y27832D01*
X3528Y27928D01*
X3432Y28002D01*
X3320Y28048D01*
X3250Y28057D01*
D02*
G37*
G36*
X17709Y28645D02*
X17017D01*
Y28143D01*
X17017Y28142D01*
X17009Y28131D01*
X16984Y28102D01*
X16929Y28046D01*
X16883Y28065D01*
Y28645D01*
X16191D01*
Y28403D01*
X15726D01*
Y28547D01*
X14974D01*
Y27953D01*
X15726D01*
Y28097D01*
X16191D01*
Y27855D01*
X16772D01*
X16787Y27837D01*
Y26845D01*
X16191D01*
Y26630D01*
X16183Y26629D01*
X16174Y26628D01*
X15775D01*
X15766Y26629D01*
X15759Y26630D01*
Y26721D01*
X15103D01*
Y27039D01*
X15243Y27178D01*
X15247Y27182D01*
X15256Y27189D01*
X15264Y27194D01*
X15272Y27198D01*
X15278Y27201D01*
X15284Y27203D01*
X15288Y27205D01*
X15292Y27205D01*
X15726D01*
Y27799D01*
X14974D01*
Y27344D01*
X14961Y27329D01*
X14842Y27210D01*
X14809Y27160D01*
X14797Y27102D01*
Y26347D01*
X14141D01*
Y26230D01*
X14134Y26229D01*
X14125Y26228D01*
X13676D01*
X13667Y26229D01*
X13659Y26230D01*
Y26445D01*
X12967D01*
Y25655D01*
X13659D01*
Y25870D01*
X13667Y25871D01*
X13676Y25872D01*
X14125D01*
X14134Y25871D01*
X14141Y25870D01*
Y25753D01*
X14893D01*
Y25885D01*
X14939Y25904D01*
X15007Y25835D01*
Y25379D01*
X15220D01*
Y24167D01*
X15232Y24104D01*
X15268Y24052D01*
X17113Y22206D01*
X17119Y22198D01*
X17126Y22185D01*
X17132Y22169D01*
X17138Y22150D01*
X17143Y22127D01*
X17147Y22103D01*
X17152Y22038D01*
X17153Y22011D01*
X17151Y22000D01*
X17165Y21897D01*
X17205Y21801D01*
X17268Y21718D01*
X17351Y21655D01*
X17447Y21615D01*
X17550Y21601D01*
X17653Y21615D01*
X17749Y21655D01*
X17832Y21718D01*
X17895Y21801D01*
X17935Y21897D01*
X17949Y22000D01*
X17935Y22103D01*
X17895Y22199D01*
X17832Y22282D01*
X17749Y22345D01*
X17653Y22385D01*
X17550Y22399D01*
X17541Y22397D01*
X17477Y22399D01*
X17449Y22402D01*
X17423Y22407D01*
X17400Y22412D01*
X17381Y22418D01*
X17365Y22424D01*
X17352Y22431D01*
X17344Y22437D01*
X15546Y24234D01*
Y25379D01*
X15759D01*
Y25973D01*
X15325D01*
X15322Y25973D01*
X15317Y25975D01*
X15311Y25977D01*
X15305Y25980D01*
X15297Y25984D01*
X15289Y25989D01*
X15280Y25996D01*
X15276Y26000D01*
X15194Y26081D01*
X15214Y26127D01*
X15759D01*
Y26270D01*
X15766Y26271D01*
X15775Y26272D01*
X16174D01*
X16183Y26271D01*
X16191Y26270D01*
Y26055D01*
X16787D01*
Y25950D01*
X16799Y25888D01*
X16835Y25835D01*
X19019Y23650D01*
Y22650D01*
X18785Y22415D01*
X18777Y22410D01*
X18765Y22404D01*
X18751Y22399D01*
X18734Y22394D01*
X18714Y22391D01*
X18690Y22389D01*
X18664Y22389D01*
X18634Y22390D01*
X18599Y22394D01*
X18590Y22393D01*
X18550Y22399D01*
X18447Y22385D01*
X18351Y22345D01*
X18268Y22282D01*
X18205Y22199D01*
X18165Y22103D01*
X18151Y22000D01*
X18165Y21897D01*
X18205Y21801D01*
X18268Y21718D01*
X18351Y21655D01*
X18447Y21615D01*
X18550Y21601D01*
X18653Y21615D01*
X18749Y21655D01*
X18832Y21718D01*
X18895Y21801D01*
X18935Y21897D01*
X18941Y21945D01*
X18945Y21955D01*
X18950Y21995D01*
X18955Y22029D01*
X18969Y22091D01*
X18976Y22114D01*
X18984Y22135D01*
X18992Y22153D01*
X19000Y22166D01*
X19005Y22175D01*
X19298Y22467D01*
X19333Y22520D01*
X19345Y22582D01*
Y23718D01*
X19333Y23780D01*
X19298Y23833D01*
X17126Y26005D01*
X17144Y26055D01*
X17709D01*
Y26287D01*
X19086D01*
X19697Y25676D01*
Y22378D01*
X18756Y21437D01*
X18748Y21431D01*
X18735Y21424D01*
X18719Y21418D01*
X18700Y21412D01*
X18677Y21407D01*
X18653Y21403D01*
X18588Y21398D01*
X18561Y21397D01*
X18550Y21399D01*
X18447Y21385D01*
X18351Y21345D01*
X18268Y21282D01*
X18205Y21199D01*
X18165Y21103D01*
X18151Y21000D01*
X18165Y20897D01*
X18205Y20801D01*
X18268Y20718D01*
X18351Y20655D01*
X18447Y20615D01*
X18550Y20601D01*
X18653Y20615D01*
X18749Y20655D01*
X18832Y20718D01*
X18895Y20801D01*
X18935Y20897D01*
X18949Y21000D01*
X18947Y21009D01*
X18949Y21073D01*
X18952Y21101D01*
X18957Y21127D01*
X18962Y21150D01*
X18968Y21169D01*
X18974Y21185D01*
X18981Y21198D01*
X18987Y21206D01*
X19975Y22195D01*
X20011Y22248D01*
X20023Y22310D01*
Y25744D01*
X20011Y25806D01*
X19975Y25859D01*
X19269Y26565D01*
X19216Y26601D01*
X19154Y26613D01*
X17709D01*
Y26845D01*
X17113D01*
Y27769D01*
X17166Y27822D01*
X17188Y27842D01*
X17203Y27855D01*
X17709D01*
Y28645D01*
D02*
G37*
G36*
X17500Y17950D02*
X17158D01*
X17165Y17897D01*
X17205Y17801D01*
X17268Y17718D01*
X17351Y17655D01*
X17447Y17615D01*
X17500Y17608D01*
Y17950D01*
D02*
G37*
G36*
X18550Y18399D02*
X18447Y18385D01*
X18351Y18345D01*
X18268Y18282D01*
X18205Y18199D01*
X18165Y18103D01*
X18151Y18000D01*
X18165Y17897D01*
X18205Y17801D01*
X18268Y17718D01*
X18351Y17655D01*
X18447Y17615D01*
X18550Y17601D01*
X18653Y17615D01*
X18749Y17655D01*
X18832Y17718D01*
X18895Y17801D01*
X18935Y17897D01*
X18949Y18000D01*
X18935Y18103D01*
X18895Y18199D01*
X18832Y18282D01*
X18749Y18345D01*
X18653Y18385D01*
X18550Y18399D01*
D02*
G37*
G36*
X6208Y20653D02*
X6130Y20642D01*
X6057Y20612D01*
X5994Y20564D01*
X5946Y20501D01*
X5916Y20428D01*
X5905Y20350D01*
X5916Y20272D01*
X5946Y20199D01*
X5984Y20149D01*
X5987Y20145D01*
X5992Y20139D01*
X5994Y20136D01*
X5995Y20135D01*
X6002Y20128D01*
X6013Y20114D01*
X6023Y20100D01*
X6031Y20088D01*
X6037Y20077D01*
X6041Y20067D01*
X6045Y20058D01*
X6047Y20051D01*
X6047Y20048D01*
Y18855D01*
X6047Y18852D01*
X6045Y18845D01*
X6042Y18836D01*
X6037Y18827D01*
X6031Y18817D01*
X6024Y18806D01*
X6001Y18779D01*
X5990Y18767D01*
X5986Y18764D01*
X5938Y18701D01*
X5908Y18628D01*
X5897Y18550D01*
X5908Y18472D01*
X5938Y18399D01*
X5986Y18336D01*
X6049Y18288D01*
X6122Y18258D01*
X6200Y18247D01*
X6278Y18258D01*
X6351Y18288D01*
X6414Y18336D01*
X6462Y18399D01*
X6492Y18472D01*
X6503Y18550D01*
X6492Y18628D01*
X6462Y18701D01*
X6414Y18764D01*
X6410Y18767D01*
X6398Y18780D01*
X6386Y18793D01*
X6377Y18805D01*
X6369Y18817D01*
X6363Y18827D01*
X6358Y18836D01*
X6355Y18845D01*
X6353Y18852D01*
X6353Y18855D01*
Y20043D01*
X6353Y20046D01*
X6355Y20053D01*
X6358Y20060D01*
X6362Y20069D01*
X6368Y20079D01*
X6376Y20089D01*
X6386Y20101D01*
X6397Y20113D01*
X6413Y20128D01*
X6414Y20130D01*
X6422Y20136D01*
X6470Y20199D01*
X6500Y20272D01*
X6510Y20350D01*
X6500Y20428D01*
X6470Y20501D01*
X6422Y20564D01*
X6359Y20612D01*
X6286Y20642D01*
X6208Y20653D01*
D02*
G37*
G36*
X17942Y17950D02*
X17600D01*
Y17608D01*
X17653Y17615D01*
X17749Y17655D01*
X17832Y17718D01*
X17895Y17801D01*
X17935Y17897D01*
X17942Y17950D01*
D02*
G37*
G36*
X12763Y13208D02*
X12467D01*
Y12862D01*
X12763D01*
Y13208D01*
D02*
G37*
G36*
X13159Y12763D02*
X12863D01*
Y12417D01*
X13159D01*
Y12763D01*
D02*
G37*
G36*
X9665Y15138D02*
X9586Y15128D01*
X9513Y15097D01*
X9451Y15049D01*
X9403Y14987D01*
X9372Y14914D01*
X9362Y14835D01*
X9372Y14757D01*
X9403Y14684D01*
X9451Y14621D01*
X9513Y14573D01*
X9586Y14543D01*
X9665Y14533D01*
X9669Y14533D01*
X9687Y14533D01*
X9705Y14532D01*
X9720Y14530D01*
X9734Y14527D01*
X9745Y14524D01*
X9755Y14521D01*
X9763Y14517D01*
X9769Y14514D01*
X9772Y14512D01*
X10267Y14017D01*
X10316Y13984D01*
X10375Y13972D01*
X11641D01*
Y13730D01*
X12333D01*
Y14520D01*
X11641D01*
Y14278D01*
X10438D01*
X9988Y14728D01*
X9986Y14731D01*
X9983Y14737D01*
X9979Y14745D01*
X9976Y14755D01*
X9973Y14766D01*
X9970Y14778D01*
X9967Y14814D01*
X9967Y14831D01*
X9967Y14835D01*
X9957Y14914D01*
X9927Y14987D01*
X9879Y15049D01*
X9816Y15097D01*
X9743Y15128D01*
X9665Y15138D01*
D02*
G37*
G36*
X13159Y13208D02*
X12863D01*
Y12862D01*
X13159D01*
Y13208D01*
D02*
G37*
G36*
Y11895D02*
X12863D01*
Y11550D01*
X13159D01*
Y11895D01*
D02*
G37*
G36*
X12763D02*
X12467D01*
Y11550D01*
X12763D01*
Y11895D01*
D02*
G37*
G36*
Y12763D02*
X12467D01*
Y12417D01*
X12763D01*
Y12763D01*
D02*
G37*
G36*
X9700Y13603D02*
X9622Y13592D01*
X9549Y13562D01*
X9486Y13514D01*
X9438Y13451D01*
X9408Y13378D01*
X9397Y13300D01*
X9408Y13222D01*
X9438Y13149D01*
X9486Y13086D01*
X9549Y13038D01*
X9622Y13008D01*
X9700Y12997D01*
X9704Y12998D01*
X9719Y12998D01*
X9733Y12997D01*
X9746Y12995D01*
X9757Y12992D01*
X9768Y12989D01*
X9777Y12985D01*
X9785Y12981D01*
X9792Y12977D01*
X9795Y12975D01*
X10072Y12697D01*
X10125Y12662D01*
X10187Y12649D01*
X11641D01*
Y12417D01*
X12333D01*
Y13208D01*
X11641D01*
Y12976D01*
X10255D01*
X10025Y13205D01*
X10023Y13208D01*
X10019Y13215D01*
X10015Y13223D01*
X10011Y13232D01*
X10008Y13243D01*
X10005Y13254D01*
X10003Y13267D01*
X10002Y13281D01*
X10002Y13296D01*
X10003Y13300D01*
X9992Y13378D01*
X9962Y13451D01*
X9914Y13514D01*
X9851Y13562D01*
X9778Y13592D01*
X9700Y13603D01*
D02*
G37*
G36*
X17500Y15950D02*
X17155D01*
Y15605D01*
X17500D01*
Y15950D01*
D02*
G37*
G36*
X18550Y16399D02*
X18447Y16385D01*
X18351Y16345D01*
X18268Y16282D01*
X18205Y16199D01*
X18165Y16103D01*
X18151Y16000D01*
X18165Y15897D01*
X18205Y15801D01*
X18268Y15718D01*
X18351Y15655D01*
X18447Y15615D01*
X18550Y15601D01*
X18653Y15615D01*
X18749Y15655D01*
X18832Y15718D01*
X18895Y15801D01*
X18935Y15897D01*
X18949Y16000D01*
X18935Y16103D01*
X18895Y16199D01*
X18832Y16282D01*
X18749Y16345D01*
X18653Y16385D01*
X18550Y16399D01*
D02*
G37*
G36*
X17500Y16395D02*
X17155D01*
Y16050D01*
X17500D01*
Y16395D01*
D02*
G37*
G36*
X17945Y15950D02*
X17600D01*
Y15605D01*
X17945D01*
Y15950D01*
D02*
G37*
G36*
X27730Y15240D02*
X27232D01*
Y14742D01*
X27325Y14754D01*
X27459Y14809D01*
X27574Y14898D01*
X27662Y15012D01*
X27718Y15146D01*
X27730Y15240D01*
D02*
G37*
G36*
X27132D02*
X26634D01*
X26646Y15146D01*
X26701Y15012D01*
X26790Y14898D01*
X26905Y14809D01*
X27038Y14754D01*
X27132Y14742D01*
Y15240D01*
D02*
G37*
G36*
X22112Y21663D02*
X22033Y21652D01*
X21960Y21622D01*
X21898Y21574D01*
X21850Y21511D01*
X21819Y21438D01*
X21809Y21360D01*
X21819Y21282D01*
X21850Y21209D01*
X21898Y21146D01*
X21960Y21098D01*
X22033Y21068D01*
X22112Y21057D01*
X22116Y21058D01*
X22130Y21058D01*
X22145Y21057D01*
X22158Y21055D01*
X22169Y21052D01*
X22179Y21049D01*
X22188Y21045D01*
X22196Y21041D01*
X22204Y21037D01*
X22206Y21035D01*
X26567Y16674D01*
X26570Y16671D01*
X26580Y16654D01*
X26590Y16632D01*
X26600Y16602D01*
X26609Y16566D01*
X26617Y16524D01*
X26623Y16476D01*
X26630Y16360D01*
X26630Y16311D01*
X26627Y16290D01*
X26646Y16146D01*
X26701Y16012D01*
X26790Y15898D01*
X26892Y15819D01*
X26896Y15803D01*
Y15777D01*
X26892Y15761D01*
X26790Y15682D01*
X26701Y15567D01*
X26646Y15433D01*
X26634Y15340D01*
X27730D01*
X27718Y15433D01*
X27662Y15567D01*
X27574Y15682D01*
X27472Y15761D01*
X27468Y15777D01*
Y15803D01*
X27472Y15819D01*
X27574Y15898D01*
X27662Y16012D01*
X27718Y16146D01*
X27737Y16290D01*
X27718Y16433D01*
X27662Y16567D01*
X27574Y16682D01*
X27459Y16770D01*
X27325Y16826D01*
X27182Y16845D01*
X27161Y16842D01*
X27112Y16842D01*
X26995Y16849D01*
X26948Y16855D01*
X26906Y16862D01*
X26870Y16871D01*
X26840Y16882D01*
X26817Y16892D01*
X26801Y16902D01*
X26798Y16905D01*
X22437Y21265D01*
X22435Y21268D01*
X22431Y21275D01*
X22426Y21283D01*
X22423Y21292D01*
X22420Y21303D01*
X22417Y21314D01*
X22415Y21327D01*
X22414Y21341D01*
X22414Y21356D01*
X22414Y21360D01*
X22404Y21438D01*
X22374Y21511D01*
X22326Y21574D01*
X22263Y21622D01*
X22190Y21652D01*
X22112Y21663D01*
D02*
G37*
G36*
X9700Y16703D02*
X9622Y16692D01*
X9549Y16662D01*
X9486Y16614D01*
X9438Y16551D01*
X9408Y16478D01*
X9397Y16400D01*
X9408Y16322D01*
X9438Y16249D01*
X9486Y16186D01*
X9549Y16138D01*
X9622Y16108D01*
X9700Y16097D01*
X9704Y16098D01*
X9719Y16098D01*
X9733Y16097D01*
X9746Y16095D01*
X9757Y16092D01*
X9768Y16089D01*
X9777Y16085D01*
X9785Y16081D01*
X9792Y16077D01*
X9795Y16075D01*
X10547Y15322D01*
X10600Y15287D01*
X10662Y15274D01*
X10663Y15274D01*
X11641D01*
Y15042D01*
X12333D01*
Y15833D01*
X11641D01*
Y15601D01*
X10730D01*
X10025Y16305D01*
X10023Y16308D01*
X10019Y16315D01*
X10015Y16323D01*
X10011Y16332D01*
X10008Y16343D01*
X10005Y16354D01*
X10003Y16367D01*
X10002Y16381D01*
X10002Y16396D01*
X10003Y16400D01*
X9992Y16478D01*
X9962Y16551D01*
X9914Y16614D01*
X9851Y16662D01*
X9778Y16692D01*
X9700Y16703D01*
D02*
G37*
G36*
X4450Y25303D02*
X4372Y25292D01*
X4299Y25262D01*
X4236Y25214D01*
X4188Y25151D01*
X4158Y25078D01*
X4147Y25000D01*
X4158Y24922D01*
X4188Y24849D01*
X4236Y24786D01*
X4240Y24783D01*
X4252Y24770D01*
X4264Y24757D01*
X4273Y24745D01*
X4281Y24733D01*
X4287Y24723D01*
X4292Y24714D01*
X4295Y24705D01*
X4297Y24698D01*
X4297Y24695D01*
Y23450D01*
X4309Y23391D01*
X4342Y23342D01*
X6142Y21542D01*
X6191Y21509D01*
X6250Y21497D01*
X12745D01*
X12748Y21497D01*
X12755Y21495D01*
X12764Y21492D01*
X12773Y21487D01*
X12783Y21481D01*
X12794Y21474D01*
X12821Y21451D01*
X12833Y21440D01*
X12836Y21436D01*
X12899Y21388D01*
X12972Y21358D01*
X13050Y21347D01*
X13128Y21358D01*
X13201Y21388D01*
X13264Y21436D01*
X13312Y21499D01*
X13342Y21572D01*
X13353Y21650D01*
X13352Y21655D01*
X13352Y21672D01*
X13353Y21690D01*
X13355Y21706D01*
X13358Y21719D01*
X13361Y21731D01*
X13365Y21741D01*
X13368Y21748D01*
X13372Y21755D01*
X13374Y21757D01*
X13441Y21825D01*
X13474Y21875D01*
X13486Y21933D01*
Y22629D01*
X13709D01*
Y23223D01*
X12957D01*
Y22629D01*
X13180D01*
Y21996D01*
X13157Y21974D01*
X13155Y21972D01*
X13148Y21968D01*
X13141Y21965D01*
X13131Y21961D01*
X13119Y21958D01*
X13107Y21956D01*
X13071Y21952D01*
X13055Y21952D01*
X13050Y21953D01*
X12972Y21942D01*
X12899Y21912D01*
X12836Y21864D01*
X12833Y21860D01*
X12820Y21848D01*
X12807Y21836D01*
X12795Y21827D01*
X12783Y21819D01*
X12773Y21813D01*
X12764Y21808D01*
X12755Y21805D01*
X12748Y21803D01*
X12745Y21803D01*
X6313D01*
X4603Y23513D01*
Y24695D01*
X4603Y24698D01*
X4605Y24705D01*
X4608Y24714D01*
X4613Y24723D01*
X4619Y24733D01*
X4626Y24744D01*
X4649Y24771D01*
X4660Y24783D01*
X4664Y24786D01*
X4712Y24849D01*
X4742Y24922D01*
X4753Y25000D01*
X4742Y25078D01*
X4712Y25151D01*
X4664Y25214D01*
X4601Y25262D01*
X4528Y25292D01*
X4450Y25303D01*
D02*
G37*
G36*
X3150Y27550D02*
X2743D01*
X2752Y27480D01*
X2798Y27368D01*
X2872Y27272D01*
X2968Y27198D01*
X3080Y27152D01*
X3150Y27143D01*
Y27550D01*
D02*
G37*
G36*
X27480Y24740D02*
X26982D01*
Y24242D01*
X27075Y24254D01*
X27209Y24309D01*
X27324Y24398D01*
X27412Y24512D01*
X27468Y24646D01*
X27480Y24740D01*
D02*
G37*
G36*
X3657Y27550D02*
X3250D01*
Y27143D01*
X3320Y27152D01*
X3432Y27198D01*
X3528Y27272D01*
X3602Y27368D01*
X3648Y27480D01*
X3657Y27550D01*
D02*
G37*
G36*
X18550Y23399D02*
X18447Y23385D01*
X18351Y23345D01*
X18268Y23282D01*
X18205Y23199D01*
X18165Y23103D01*
X18151Y23000D01*
X18165Y22897D01*
X18205Y22801D01*
X18268Y22718D01*
X18351Y22655D01*
X18447Y22615D01*
X18550Y22601D01*
X18653Y22615D01*
X18749Y22655D01*
X18832Y22718D01*
X18895Y22801D01*
X18935Y22897D01*
X18949Y23000D01*
X18935Y23103D01*
X18895Y23199D01*
X18832Y23282D01*
X18749Y23345D01*
X18653Y23385D01*
X18550Y23399D01*
D02*
G37*
G36*
X11509Y23695D02*
X10817D01*
Y22905D01*
X11509D01*
Y23119D01*
X11517Y23121D01*
X11526Y23122D01*
X12075D01*
X12084Y23121D01*
X12091Y23120D01*
Y23003D01*
X12843D01*
Y23597D01*
X12091D01*
Y23480D01*
X12084Y23479D01*
X12075Y23478D01*
X11526D01*
X11517Y23479D01*
X11509Y23481D01*
Y23695D01*
D02*
G37*
G36*
X12833Y26445D02*
X12141D01*
Y26213D01*
X9550D01*
X9488Y26201D01*
X9435Y26165D01*
X8695Y25425D01*
X8692Y25423D01*
X8685Y25419D01*
X8677Y25415D01*
X8668Y25411D01*
X8657Y25408D01*
X8646Y25405D01*
X8633Y25403D01*
X8619Y25402D01*
X8604Y25402D01*
X8600Y25403D01*
X8522Y25392D01*
X8449Y25362D01*
X8386Y25314D01*
X8338Y25251D01*
X8308Y25178D01*
X8297Y25100D01*
X8308Y25022D01*
X8338Y24949D01*
X8386Y24886D01*
X8449Y24838D01*
X8522Y24808D01*
X8600Y24797D01*
X8678Y24808D01*
X8751Y24838D01*
X8814Y24886D01*
X8862Y24949D01*
X8892Y25022D01*
X8903Y25100D01*
X8902Y25104D01*
X8902Y25119D01*
X8903Y25133D01*
X8905Y25146D01*
X8908Y25157D01*
X8911Y25168D01*
X8915Y25177D01*
X8919Y25185D01*
X8923Y25192D01*
X8925Y25195D01*
X9618Y25887D01*
X12141D01*
Y25655D01*
X12833D01*
Y26445D01*
D02*
G37*
G36*
X17550Y23399D02*
X17447Y23385D01*
X17351Y23345D01*
X17268Y23282D01*
X17205Y23199D01*
X17165Y23103D01*
X17151Y23000D01*
X17165Y22897D01*
X17205Y22801D01*
X17268Y22718D01*
X17351Y22655D01*
X17447Y22615D01*
X17550Y22601D01*
X17653Y22615D01*
X17749Y22655D01*
X17832Y22718D01*
X17895Y22801D01*
X17935Y22897D01*
X17949Y23000D01*
X17935Y23103D01*
X17895Y23199D01*
X17832Y23282D01*
X17749Y23345D01*
X17653Y23385D01*
X17550Y23399D01*
D02*
G37*
G36*
X2200Y28064D02*
X2080Y28048D01*
X1968Y28002D01*
X1872Y27928D01*
X1798Y27832D01*
X1752Y27720D01*
X1736Y27600D01*
X1752Y27480D01*
X1798Y27368D01*
X1872Y27272D01*
X1968Y27198D01*
X2080Y27152D01*
X2200Y27136D01*
X2320Y27152D01*
X2432Y27198D01*
X2528Y27272D01*
X2602Y27368D01*
X2648Y27480D01*
X2664Y27600D01*
X2648Y27720D01*
X2602Y27832D01*
X2528Y27928D01*
X2432Y28002D01*
X2320Y28048D01*
X2200Y28064D01*
D02*
G37*
G36*
X1200D02*
X1080Y28048D01*
X968Y28002D01*
X872Y27928D01*
X798Y27832D01*
X752Y27720D01*
X736Y27600D01*
X752Y27480D01*
X798Y27368D01*
X872Y27272D01*
X968Y27198D01*
X1080Y27152D01*
X1200Y27136D01*
X1320Y27152D01*
X1432Y27198D01*
X1528Y27272D01*
X1602Y27368D01*
X1648Y27480D01*
X1664Y27600D01*
X1648Y27720D01*
X1602Y27832D01*
X1528Y27928D01*
X1432Y28002D01*
X1320Y28048D01*
X1200Y28064D01*
D02*
G37*
G36*
X10683Y23695D02*
X9991D01*
Y23463D01*
X8897D01*
X8894Y23464D01*
X8885Y23466D01*
X8877Y23468D01*
X8868Y23472D01*
X8858Y23477D01*
X8848Y23483D01*
X8838Y23491D01*
X8827Y23500D01*
X8817Y23510D01*
X8814Y23514D01*
X8751Y23562D01*
X8678Y23592D01*
X8600Y23603D01*
X8522Y23592D01*
X8449Y23562D01*
X8386Y23514D01*
X8338Y23451D01*
X8308Y23378D01*
X8297Y23300D01*
X8308Y23222D01*
X8338Y23149D01*
X8386Y23086D01*
X8449Y23038D01*
X8522Y23008D01*
X8600Y22997D01*
X8678Y23008D01*
X8751Y23038D01*
X8814Y23086D01*
X8817Y23090D01*
X8827Y23100D01*
X8838Y23109D01*
X8848Y23117D01*
X8858Y23123D01*
X8868Y23128D01*
X8877Y23132D01*
X8885Y23134D01*
X8894Y23136D01*
X8897Y23137D01*
X9991D01*
Y22905D01*
X10683D01*
Y23695D01*
D02*
G37*
G36*
X5200Y28054D02*
X5083Y28038D01*
X4973Y27993D01*
X4879Y27921D01*
X4807Y27827D01*
X4762Y27717D01*
X4746Y27600D01*
X4748Y27587D01*
X4746Y27506D01*
X4742Y27469D01*
X4737Y27434D01*
X4731Y27405D01*
X4724Y27380D01*
X4716Y27359D01*
X4708Y27343D01*
X4700Y27331D01*
X2435Y25065D01*
X2399Y25012D01*
X2387Y24950D01*
Y16298D01*
X2399Y16236D01*
X2435Y16183D01*
X2875Y15743D01*
X2877Y15740D01*
X2881Y15733D01*
X2885Y15725D01*
X2889Y15716D01*
X2892Y15706D01*
X2895Y15694D01*
X2897Y15681D01*
X2898Y15667D01*
X2898Y15652D01*
X2897Y15648D01*
X2908Y15570D01*
X2938Y15497D01*
X2986Y15434D01*
X3049Y15386D01*
X3122Y15356D01*
X3200Y15345D01*
X3278Y15356D01*
X3351Y15386D01*
X3414Y15434D01*
X3462Y15497D01*
X3492Y15570D01*
X3503Y15648D01*
X3492Y15726D01*
X3462Y15799D01*
X3414Y15862D01*
X3351Y15910D01*
X3278Y15940D01*
X3200Y15951D01*
X3196Y15950D01*
X3181Y15950D01*
X3167Y15951D01*
X3154Y15953D01*
X3143Y15956D01*
X3132Y15959D01*
X3123Y15963D01*
X3115Y15967D01*
X3108Y15971D01*
X3105Y15974D01*
X2713Y16366D01*
Y24882D01*
X4931Y27100D01*
X4943Y27108D01*
X4959Y27116D01*
X4980Y27124D01*
X5005Y27131D01*
X5034Y27137D01*
X5067Y27142D01*
X5150Y27148D01*
X5186Y27148D01*
X5200Y27146D01*
X5317Y27162D01*
X5427Y27207D01*
X5521Y27279D01*
X5593Y27373D01*
X5638Y27483D01*
X5654Y27600D01*
X5638Y27717D01*
X5593Y27827D01*
X5521Y27921D01*
X5427Y27993D01*
X5317Y28038D01*
X5200Y28054D01*
D02*
G37*
G36*
X26932Y26345D02*
X26788Y26326D01*
X26655Y26270D01*
X26540Y26182D01*
X26461Y26080D01*
X26445Y26076D01*
X26419D01*
X26403Y26080D01*
X26324Y26182D01*
X26209Y26270D01*
X26075Y26326D01*
X25932Y26345D01*
X25788Y26326D01*
X25655Y26270D01*
X25540Y26182D01*
X25461Y26080D01*
X25445Y26076D01*
X25419D01*
X25403Y26080D01*
X25324Y26182D01*
X25209Y26270D01*
X25075Y26326D01*
X24932Y26345D01*
X24788Y26326D01*
X24655Y26270D01*
X24540Y26182D01*
X24451Y26067D01*
X24396Y25933D01*
X24377Y25790D01*
X24396Y25646D01*
X24451Y25512D01*
X24540Y25398D01*
X24642Y25319D01*
X24646Y25303D01*
Y25277D01*
X24642Y25261D01*
X24540Y25182D01*
X24451Y25067D01*
X24396Y24933D01*
X24377Y24790D01*
X24396Y24646D01*
X24451Y24512D01*
X24540Y24398D01*
X24655Y24309D01*
X24788Y24254D01*
X24932Y24235D01*
X25075Y24254D01*
X25209Y24309D01*
X25324Y24398D01*
X25403Y24500D01*
X25419Y24504D01*
X25445D01*
X25461Y24500D01*
X25540Y24398D01*
X25655Y24309D01*
X25788Y24254D01*
X25932Y24235D01*
X26075Y24254D01*
X26209Y24309D01*
X26324Y24398D01*
X26403Y24500D01*
X26419Y24504D01*
X26445D01*
X26461Y24500D01*
X26540Y24398D01*
X26655Y24309D01*
X26788Y24254D01*
X26882Y24242D01*
Y24790D01*
X26932D01*
Y24840D01*
X27480D01*
X27468Y24933D01*
X27412Y25067D01*
X27324Y25182D01*
X27222Y25261D01*
X27218Y25277D01*
Y25303D01*
X27222Y25319D01*
X27324Y25398D01*
X27412Y25512D01*
X27468Y25646D01*
X27487Y25790D01*
X27468Y25933D01*
X27412Y26067D01*
X27324Y26182D01*
X27209Y26270D01*
X27075Y26326D01*
X26932Y26345D01*
D02*
G37*
G36*
X3150Y28057D02*
X3080Y28048D01*
X2968Y28002D01*
X2872Y27928D01*
X2798Y27832D01*
X2752Y27720D01*
X2743Y27650D01*
X3150D01*
Y28057D01*
D02*
G37*
G36*
X13400Y28203D02*
X13322Y28192D01*
X13249Y28162D01*
X13186Y28114D01*
X13138Y28051D01*
X13108Y27978D01*
X13097Y27900D01*
X13108Y27822D01*
X13138Y27749D01*
X13186Y27686D01*
X13249Y27638D01*
X13322Y27608D01*
X13400Y27597D01*
X13478Y27608D01*
X13551Y27638D01*
X13578Y27658D01*
X13586Y27662D01*
X13598Y27671D01*
X13607Y27677D01*
X13616Y27682D01*
X13626Y27686D01*
X13636Y27690D01*
X13646Y27693D01*
X13657Y27696D01*
X13668Y27697D01*
X13669Y27698D01*
X14092D01*
X14101Y27697D01*
X14108Y27696D01*
Y27579D01*
X14859D01*
Y28173D01*
X14108D01*
Y28056D01*
X14101Y28055D01*
X14092Y28054D01*
X13693D01*
X13691Y28055D01*
X13682Y28056D01*
X13674Y28059D01*
X13667Y28061D01*
X13661Y28065D01*
X13655Y28068D01*
X13650Y28073D01*
X13645Y28078D01*
X13637Y28088D01*
X13631Y28092D01*
X13614Y28114D01*
X13551Y28162D01*
X13478Y28192D01*
X13400Y28203D01*
D02*
G37*
%LPD*%
G36*
X10800Y17176D02*
X10802Y17155D01*
X10805Y17135D01*
X10809Y17116D01*
X10815Y17098D01*
X10822Y17081D01*
X10830Y17065D01*
X10839Y17050D01*
X10850Y17036D01*
X10862Y17023D01*
X10777Y16938D01*
X10764Y16950D01*
X10750Y16961D01*
X10735Y16970D01*
X10719Y16978D01*
X10702Y16985D01*
X10684Y16991D01*
X10665Y16995D01*
X10645Y16998D01*
X10624Y17000D01*
X10602Y17000D01*
X10800Y17198D01*
X10800Y17176D01*
D02*
G37*
G36*
X11742Y16630D02*
X11741Y16641D01*
X11737Y16652D01*
X11731Y16661D01*
X11723Y16668D01*
X11712Y16675D01*
X11699Y16680D01*
X11683Y16685D01*
X11665Y16688D01*
X11645Y16689D01*
X11622Y16690D01*
Y16810D01*
X11645Y16811D01*
X11665Y16812D01*
X11683Y16815D01*
X11699Y16820D01*
X11712Y16825D01*
X11723Y16832D01*
X11731Y16839D01*
X11737Y16848D01*
X11741Y16859D01*
X11742Y16870D01*
Y16630D01*
D02*
G37*
G36*
X16293Y28150D02*
X16292Y28159D01*
X16289Y28168D01*
X16284Y28175D01*
X16277Y28182D01*
X16268Y28187D01*
X16257Y28192D01*
X16243Y28196D01*
X16228Y28198D01*
X16211Y28200D01*
X16192Y28200D01*
Y28300D01*
X16211Y28300D01*
X16228Y28302D01*
X16243Y28305D01*
X16257Y28308D01*
X16268Y28312D01*
X16277Y28318D01*
X16284Y28324D01*
X16289Y28332D01*
X16292Y28340D01*
X16293Y28350D01*
Y28150D01*
D02*
G37*
G36*
X14244Y25900D02*
X14242Y25914D01*
X14238Y25927D01*
X14230Y25938D01*
X14220Y25948D01*
X14206Y25956D01*
X14189Y25963D01*
X14170Y25968D01*
X14147Y25972D01*
X14121Y25974D01*
X14093Y25975D01*
Y26125D01*
X14121Y26126D01*
X14147Y26128D01*
X14170Y26132D01*
X14189Y26137D01*
X14206Y26144D01*
X14220Y26152D01*
X14230Y26162D01*
X14238Y26173D01*
X14242Y26186D01*
X14244Y26200D01*
Y25900D01*
D02*
G37*
G36*
X15659Y26586D02*
X15663Y26573D01*
X15671Y26562D01*
X15681Y26552D01*
X15695Y26544D01*
X15711Y26537D01*
X15731Y26532D01*
X15753Y26528D01*
X15779Y26526D01*
X15807Y26525D01*
Y26375D01*
X15779Y26374D01*
X15753Y26372D01*
X15731Y26368D01*
X15711Y26363D01*
X15695Y26356D01*
X15681Y26348D01*
X15671Y26338D01*
X15663Y26327D01*
X15659Y26314D01*
X15657Y26300D01*
Y26600D01*
X15659Y26586D01*
D02*
G37*
G36*
X17609Y26559D02*
X17613Y26548D01*
X17619Y26539D01*
X17627Y26532D01*
X17638Y26525D01*
X17651Y26520D01*
X17667Y26515D01*
X17685Y26512D01*
X17705Y26511D01*
X17728Y26510D01*
Y26390D01*
X17705Y26389D01*
X17685Y26388D01*
X17667Y26385D01*
X17651Y26380D01*
X17638Y26375D01*
X17627Y26368D01*
X17619Y26361D01*
X17613Y26352D01*
X17609Y26341D01*
X17608Y26330D01*
Y26570D01*
X17609Y26559D01*
D02*
G37*
G36*
X16293Y26300D02*
X16291Y26314D01*
X16287Y26327D01*
X16279Y26338D01*
X16269Y26348D01*
X16255Y26356D01*
X16239Y26363D01*
X16219Y26368D01*
X16196Y26372D01*
X16170Y26374D01*
X16142Y26375D01*
Y26525D01*
X16170Y26526D01*
X16196Y26528D01*
X16219Y26532D01*
X16239Y26537D01*
X16255Y26544D01*
X16269Y26552D01*
X16279Y26562D01*
X16287Y26573D01*
X16291Y26586D01*
X16293Y26600D01*
Y26300D01*
D02*
G37*
G36*
X13560Y26186D02*
X13564Y26173D01*
X13572Y26162D01*
X13582Y26152D01*
X13596Y26144D01*
X13612Y26137D01*
X13632Y26132D01*
X13654Y26128D01*
X13680Y26126D01*
X13708Y26125D01*
Y25975D01*
X13680Y25974D01*
X13654Y25972D01*
X13632Y25968D01*
X13612Y25963D01*
X13596Y25956D01*
X13582Y25948D01*
X13572Y25938D01*
X13564Y25927D01*
X13560Y25914D01*
X13558Y25900D01*
Y26200D01*
X13560Y26186D01*
D02*
G37*
G36*
X15492Y25480D02*
X15481Y25477D01*
X15472Y25471D01*
X15465Y25462D01*
X15458Y25451D01*
X15453Y25438D01*
X15448Y25422D01*
X15445Y25404D01*
X15444Y25383D01*
X15443Y25360D01*
X15323D01*
X15322Y25383D01*
X15321Y25404D01*
X15318Y25422D01*
X15313Y25438D01*
X15308Y25451D01*
X15301Y25462D01*
X15294Y25471D01*
X15285Y25477D01*
X15274Y25480D01*
X15263Y25482D01*
X15503D01*
X15492Y25480D01*
D02*
G37*
G36*
X15202Y25929D02*
X15216Y25917D01*
X15230Y25906D01*
X15244Y25897D01*
X15259Y25889D01*
X15273Y25882D01*
X15287Y25877D01*
X15301Y25873D01*
X15315Y25871D01*
X15329Y25870D01*
X15109Y25872D01*
X15109Y25872D01*
X15109Y25874D01*
X15106Y25878D01*
X15103Y25883D01*
X15090Y25897D01*
X15046Y25942D01*
X15187D01*
X15202Y25929D01*
D02*
G37*
G36*
X18922Y21287D02*
X18907Y21270D01*
X18894Y21251D01*
X18882Y21229D01*
X18872Y21204D01*
X18863Y21177D01*
X18857Y21147D01*
X18851Y21115D01*
X18848Y21080D01*
X18845Y21003D01*
X18553Y21295D01*
X18593Y21296D01*
X18665Y21301D01*
X18697Y21307D01*
X18727Y21313D01*
X18754Y21322D01*
X18779Y21332D01*
X18801Y21344D01*
X18820Y21357D01*
X18837Y21372D01*
X18922Y21287D01*
D02*
G37*
G36*
X17280Y22357D02*
X17299Y22344D01*
X17321Y22332D01*
X17346Y22322D01*
X17373Y22313D01*
X17403Y22307D01*
X17435Y22301D01*
X17470Y22298D01*
X17547Y22295D01*
X17255Y22003D01*
X17254Y22043D01*
X17249Y22115D01*
X17243Y22147D01*
X17237Y22177D01*
X17228Y22204D01*
X17218Y22229D01*
X17206Y22251D01*
X17193Y22270D01*
X17178Y22287D01*
X17263Y22372D01*
X17280Y22357D01*
D02*
G37*
G36*
X15282Y27307D02*
X15268Y27305D01*
X15254Y27301D01*
X15240Y27296D01*
X15225Y27289D01*
X15211Y27281D01*
X15197Y27272D01*
X15183Y27261D01*
X15169Y27249D01*
X15154Y27236D01*
X15013D01*
X15025Y27248D01*
X15075Y27304D01*
X15076Y27306D01*
X15296Y27308D01*
X15282Y27307D01*
D02*
G37*
G36*
X17239Y27957D02*
X17232Y27966D01*
X17223Y27971D01*
X17211Y27972D01*
X17198Y27969D01*
X17182Y27963D01*
X17164Y27952D01*
X17143Y27938D01*
X17121Y27919D01*
X17069Y27871D01*
X17034Y28005D01*
X17055Y28028D01*
X17090Y28069D01*
X17103Y28088D01*
X17113Y28105D01*
X17120Y28122D01*
X17124Y28137D01*
X17126Y28151D01*
X17124Y28163D01*
X17120Y28175D01*
X17239Y27957D01*
D02*
G37*
G36*
X15625Y28340D02*
X15628Y28332D01*
X15633Y28324D01*
X15640Y28318D01*
X15649Y28312D01*
X15660Y28308D01*
X15673Y28305D01*
X15688Y28302D01*
X15705Y28300D01*
X15724Y28300D01*
Y28200D01*
X15705Y28200D01*
X15688Y28198D01*
X15673Y28196D01*
X15660Y28192D01*
X15649Y28187D01*
X15640Y28182D01*
X15633Y28175D01*
X15628Y28168D01*
X15625Y28159D01*
X15624Y28150D01*
Y28350D01*
X15625Y28340D01*
D02*
G37*
G36*
X18940Y22255D02*
X18926Y22239D01*
X18913Y22221D01*
X18901Y22199D01*
X18890Y22174D01*
X18880Y22147D01*
X18870Y22117D01*
X18855Y22048D01*
X18849Y22009D01*
X18843Y21968D01*
X18588Y22293D01*
X18626Y22289D01*
X18662Y22287D01*
X18695Y22287D01*
X18726Y22290D01*
X18755Y22295D01*
X18781Y22301D01*
X18806Y22311D01*
X18828Y22322D01*
X18848Y22335D01*
X18866Y22351D01*
X18940Y22255D01*
D02*
G37*
G36*
X6342Y20202D02*
X6325Y20185D01*
X6309Y20168D01*
X6295Y20152D01*
X6283Y20135D01*
X6273Y20118D01*
X6265Y20101D01*
X6258Y20085D01*
X6254Y20068D01*
X6251Y20051D01*
X6250Y20034D01*
X6150Y20039D01*
X6149Y20055D01*
X6146Y20072D01*
X6142Y20088D01*
X6136Y20105D01*
X6128Y20123D01*
X6118Y20140D01*
X6107Y20158D01*
X6094Y20176D01*
X6079Y20194D01*
X6062Y20213D01*
X6342Y20202D01*
D02*
G37*
G36*
X6251Y18847D02*
X6254Y18830D01*
X6258Y18814D01*
X6264Y18797D01*
X6273Y18780D01*
X6282Y18763D01*
X6294Y18745D01*
X6308Y18728D01*
X6323Y18710D01*
X6340Y18693D01*
X6060D01*
X6077Y18710D01*
X6106Y18745D01*
X6118Y18763D01*
X6127Y18780D01*
X6136Y18797D01*
X6142Y18814D01*
X6146Y18830D01*
X6149Y18847D01*
X6150Y18864D01*
X6250D01*
X6251Y18847D01*
D02*
G37*
G36*
X9865Y14809D02*
X9869Y14764D01*
X9873Y14743D01*
X9878Y14724D01*
X9885Y14707D01*
X9892Y14690D01*
X9901Y14675D01*
X9911Y14661D01*
X9922Y14649D01*
X9851Y14578D01*
X9839Y14589D01*
X9825Y14599D01*
X9810Y14608D01*
X9793Y14615D01*
X9776Y14622D01*
X9757Y14627D01*
X9736Y14631D01*
X9714Y14634D01*
X9691Y14635D01*
X9667Y14635D01*
X9865Y14833D01*
X9865Y14809D01*
D02*
G37*
G36*
X11742Y14025D02*
X11741Y14035D01*
X11738Y14043D01*
X11733Y14051D01*
X11726Y14057D01*
X11717Y14062D01*
X11706Y14067D01*
X11693Y14071D01*
X11678Y14073D01*
X11661Y14074D01*
X11642Y14075D01*
Y14175D01*
X11661Y14175D01*
X11678Y14177D01*
X11693Y14180D01*
X11706Y14183D01*
X11717Y14188D01*
X11726Y14193D01*
X11733Y14200D01*
X11738Y14207D01*
X11741Y14216D01*
X11742Y14225D01*
Y14025D01*
D02*
G37*
G36*
X9900Y13276D02*
X9902Y13255D01*
X9905Y13235D01*
X9909Y13216D01*
X9915Y13198D01*
X9922Y13181D01*
X9930Y13165D01*
X9939Y13150D01*
X9950Y13136D01*
X9962Y13123D01*
X9877Y13038D01*
X9864Y13050D01*
X9850Y13061D01*
X9835Y13070D01*
X9819Y13078D01*
X9802Y13085D01*
X9784Y13091D01*
X9765Y13095D01*
X9745Y13098D01*
X9724Y13100D01*
X9702Y13100D01*
X9900Y13298D01*
X9900Y13276D01*
D02*
G37*
G36*
X11742Y12693D02*
X11741Y12704D01*
X11737Y12714D01*
X11731Y12723D01*
X11723Y12731D01*
X11712Y12737D01*
X11699Y12743D01*
X11683Y12747D01*
X11665Y12750D01*
X11645Y12752D01*
X11622Y12752D01*
Y12873D01*
X11645Y12873D01*
X11665Y12875D01*
X11683Y12878D01*
X11699Y12882D01*
X11712Y12888D01*
X11723Y12894D01*
X11731Y12902D01*
X11737Y12911D01*
X11741Y12921D01*
X11742Y12932D01*
Y12693D01*
D02*
G37*
G36*
X22312Y21336D02*
X22314Y21315D01*
X22317Y21295D01*
X22321Y21276D01*
X22327Y21258D01*
X22334Y21241D01*
X22342Y21225D01*
X22351Y21210D01*
X22362Y21196D01*
X22374Y21183D01*
X22289Y21098D01*
X22276Y21110D01*
X22262Y21121D01*
X22247Y21130D01*
X22231Y21138D01*
X22214Y21145D01*
X22196Y21151D01*
X22177Y21155D01*
X22157Y21158D01*
X22136Y21160D01*
X22114Y21160D01*
X22312Y21358D01*
X22312Y21336D01*
D02*
G37*
G36*
X26741Y16819D02*
X26769Y16802D01*
X26802Y16787D01*
X26841Y16774D01*
X26884Y16763D01*
X26933Y16754D01*
X26986Y16747D01*
X27109Y16740D01*
X27177Y16740D01*
X26732Y16294D01*
X26732Y16363D01*
X26725Y16486D01*
X26718Y16539D01*
X26709Y16588D01*
X26698Y16631D01*
X26685Y16669D01*
X26670Y16703D01*
X26653Y16731D01*
X26633Y16754D01*
X26718Y16839D01*
X26741Y16819D01*
D02*
G37*
G36*
X11743Y15317D02*
X11742Y15329D01*
X11738Y15339D01*
X11732Y15348D01*
X11724Y15356D01*
X11713Y15362D01*
X11699Y15368D01*
X11684Y15372D01*
X11665Y15375D01*
X11645Y15377D01*
X11622Y15378D01*
Y15497D01*
X11645Y15498D01*
X11665Y15500D01*
X11684Y15503D01*
X11699Y15507D01*
X11713Y15512D01*
X11724Y15519D01*
X11732Y15527D01*
X11738Y15536D01*
X11742Y15546D01*
X11743Y15558D01*
Y15317D01*
D02*
G37*
G36*
X9900Y16376D02*
X9902Y16355D01*
X9905Y16335D01*
X9909Y16316D01*
X9915Y16298D01*
X9922Y16281D01*
X9930Y16265D01*
X9939Y16250D01*
X9950Y16236D01*
X9962Y16223D01*
X9877Y16138D01*
X9864Y16150D01*
X9850Y16161D01*
X9835Y16170D01*
X9819Y16178D01*
X9802Y16185D01*
X9784Y16191D01*
X9765Y16195D01*
X9745Y16198D01*
X9724Y16200D01*
X9702Y16200D01*
X9900Y16398D01*
X9900Y16376D01*
D02*
G37*
G36*
X4573Y24840D02*
X4544Y24805D01*
X4532Y24787D01*
X4523Y24770D01*
X4514Y24753D01*
X4508Y24736D01*
X4504Y24720D01*
X4501Y24703D01*
X4500Y24686D01*
X4400D01*
X4399Y24703D01*
X4396Y24720D01*
X4392Y24736D01*
X4386Y24753D01*
X4378Y24770D01*
X4368Y24787D01*
X4356Y24805D01*
X4342Y24822D01*
X4327Y24840D01*
X4310Y24857D01*
X4590D01*
X4573Y24840D01*
D02*
G37*
G36*
X12907Y21510D02*
X12890Y21527D01*
X12855Y21556D01*
X12838Y21568D01*
X12820Y21577D01*
X12803Y21586D01*
X12786Y21592D01*
X12770Y21596D01*
X12753Y21599D01*
X12736Y21600D01*
Y21700D01*
X12753Y21701D01*
X12770Y21704D01*
X12786Y21708D01*
X12803Y21714D01*
X12820Y21723D01*
X12838Y21732D01*
X12855Y21744D01*
X12872Y21758D01*
X12890Y21773D01*
X12907Y21790D01*
Y21510D01*
D02*
G37*
G36*
X13307Y21836D02*
X13296Y21824D01*
X13286Y21810D01*
X13277Y21795D01*
X13270Y21779D01*
X13264Y21761D01*
X13259Y21742D01*
X13255Y21722D01*
X13252Y21700D01*
X13250Y21677D01*
X13250Y21652D01*
X13052Y21850D01*
X13077Y21850D01*
X13122Y21855D01*
X13142Y21859D01*
X13161Y21864D01*
X13179Y21870D01*
X13195Y21877D01*
X13210Y21886D01*
X13224Y21896D01*
X13236Y21907D01*
X13307Y21836D01*
D02*
G37*
G36*
X13424Y22731D02*
X13415Y22727D01*
X13408Y22722D01*
X13401Y22715D01*
X13396Y22706D01*
X13391Y22695D01*
X13388Y22682D01*
X13385Y22667D01*
X13384Y22650D01*
X13383Y22630D01*
X13283D01*
X13283Y22650D01*
X13281Y22667D01*
X13279Y22682D01*
X13275Y22695D01*
X13271Y22706D01*
X13265Y22715D01*
X13259Y22722D01*
X13251Y22727D01*
X13243Y22731D01*
X13233Y22732D01*
X13433D01*
X13424Y22731D01*
D02*
G37*
G36*
X12194Y23150D02*
X12192Y23164D01*
X12188Y23177D01*
X12180Y23188D01*
X12170Y23198D01*
X12156Y23206D01*
X12139Y23213D01*
X12120Y23218D01*
X12097Y23222D01*
X12071Y23224D01*
X12043Y23225D01*
Y23375D01*
X12071Y23376D01*
X12097Y23378D01*
X12120Y23382D01*
X12139Y23387D01*
X12156Y23394D01*
X12170Y23402D01*
X12180Y23412D01*
X12188Y23423D01*
X12192Y23436D01*
X12194Y23450D01*
Y23150D01*
D02*
G37*
G36*
X11410Y23436D02*
X11414Y23423D01*
X11422Y23412D01*
X11432Y23402D01*
X11446Y23394D01*
X11462Y23387D01*
X11482Y23382D01*
X11504Y23378D01*
X11530Y23376D01*
X11558Y23375D01*
Y23225D01*
X11530Y23224D01*
X11504Y23222D01*
X11482Y23218D01*
X11462Y23213D01*
X11446Y23206D01*
X11432Y23198D01*
X11422Y23188D01*
X11414Y23177D01*
X11410Y23164D01*
X11408Y23150D01*
Y23450D01*
X11410Y23436D01*
D02*
G37*
G36*
X12243Y25930D02*
X12242Y25941D01*
X12238Y25952D01*
X12232Y25961D01*
X12224Y25968D01*
X12213Y25975D01*
X12199Y25980D01*
X12184Y25985D01*
X12165Y25988D01*
X12145Y25989D01*
X12122Y25990D01*
Y26110D01*
X12145Y26111D01*
X12165Y26112D01*
X12184Y26115D01*
X12199Y26120D01*
X12213Y26125D01*
X12224Y26132D01*
X12232Y26139D01*
X12238Y26148D01*
X12242Y26159D01*
X12243Y26170D01*
Y25930D01*
D02*
G37*
G36*
X8862Y25277D02*
X8850Y25264D01*
X8839Y25250D01*
X8830Y25235D01*
X8822Y25219D01*
X8815Y25202D01*
X8809Y25184D01*
X8805Y25165D01*
X8802Y25145D01*
X8800Y25124D01*
X8800Y25102D01*
X8602Y25300D01*
X8624Y25300D01*
X8645Y25302D01*
X8665Y25305D01*
X8684Y25309D01*
X8702Y25315D01*
X8719Y25322D01*
X8735Y25330D01*
X8750Y25339D01*
X8764Y25350D01*
X8777Y25362D01*
X8862Y25277D01*
D02*
G37*
G36*
X10093Y23180D02*
X10092Y23191D01*
X10088Y23202D01*
X10082Y23211D01*
X10074Y23218D01*
X10063Y23225D01*
X10049Y23230D01*
X10034Y23235D01*
X10015Y23238D01*
X9995Y23239D01*
X9972Y23240D01*
Y23360D01*
X9995Y23361D01*
X10015Y23362D01*
X10034Y23365D01*
X10049Y23370D01*
X10063Y23375D01*
X10074Y23382D01*
X10082Y23389D01*
X10088Y23398D01*
X10092Y23409D01*
X10093Y23420D01*
Y23180D01*
D02*
G37*
G36*
X8759Y23425D02*
X8775Y23411D01*
X8791Y23399D01*
X8807Y23389D01*
X8824Y23380D01*
X8841Y23373D01*
X8858Y23367D01*
X8875Y23363D01*
X8893Y23361D01*
X8911Y23360D01*
Y23240D01*
X8893Y23239D01*
X8875Y23237D01*
X8858Y23233D01*
X8841Y23227D01*
X8824Y23220D01*
X8807Y23211D01*
X8791Y23201D01*
X8775Y23189D01*
X8759Y23175D01*
X8743Y23160D01*
Y23440D01*
X8759Y23425D01*
D02*
G37*
G36*
X3036Y15898D02*
X3050Y15887D01*
X3065Y15878D01*
X3081Y15870D01*
X3098Y15863D01*
X3116Y15857D01*
X3135Y15853D01*
X3155Y15850D01*
X3176Y15848D01*
X3198Y15848D01*
X3000Y15650D01*
X3000Y15672D01*
X2998Y15693D01*
X2995Y15713D01*
X2991Y15732D01*
X2985Y15750D01*
X2978Y15767D01*
X2970Y15783D01*
X2961Y15798D01*
X2950Y15812D01*
X2938Y15825D01*
X3023Y15910D01*
X3036Y15898D01*
D02*
G37*
G36*
X5196Y27250D02*
X5146Y27250D01*
X5057Y27243D01*
X5017Y27238D01*
X4980Y27230D01*
X4947Y27221D01*
X4918Y27210D01*
X4892Y27197D01*
X4869Y27182D01*
X4850Y27165D01*
X4765Y27250D01*
X4782Y27269D01*
X4797Y27292D01*
X4810Y27318D01*
X4821Y27347D01*
X4830Y27380D01*
X4838Y27417D01*
X4843Y27457D01*
X4847Y27500D01*
X4850Y27596D01*
X5196Y27250D01*
D02*
G37*
G36*
X13570Y28008D02*
X13582Y27996D01*
X13595Y27986D01*
X13609Y27976D01*
X13625Y27969D01*
X13640Y27962D01*
X13657Y27957D01*
X13675Y27954D01*
X13694Y27952D01*
X13713Y27951D01*
X13694Y27801D01*
X13675Y27800D01*
X13656Y27799D01*
X13638Y27796D01*
X13620Y27792D01*
X13603Y27787D01*
X13586Y27780D01*
X13570Y27773D01*
X13555Y27764D01*
X13540Y27755D01*
X13525Y27744D01*
X13559Y28022D01*
X13570Y28008D01*
D02*
G37*
G36*
X14211Y27726D02*
X14209Y27740D01*
X14205Y27753D01*
X14197Y27764D01*
X14186Y27774D01*
X14173Y27782D01*
X14156Y27789D01*
X14137Y27794D01*
X14114Y27798D01*
X14088Y27800D01*
X14059Y27801D01*
Y27951D01*
X14088Y27952D01*
X14114Y27954D01*
X14137Y27958D01*
X14156Y27963D01*
X14173Y27970D01*
X14186Y27978D01*
X14197Y27988D01*
X14205Y27999D01*
X14209Y28012D01*
X14211Y28026D01*
Y27726D01*
D02*
G37*
D11*
X6200Y18550D02*
Y20342D01*
X6208Y20350D01*
X4450Y23450D02*
Y25000D01*
Y23450D02*
X6250Y21650D01*
X13050D01*
X19320Y19500D02*
X23632Y15188D01*
X18371Y19500D02*
X19320D01*
X18060Y19811D02*
X18371Y19500D01*
X18060Y19811D02*
Y20490D01*
X13050Y21650D02*
X13333Y21933D01*
Y22926D01*
X14950Y26109D02*
X15383Y25676D01*
X14950Y26109D02*
Y27102D01*
X15350Y27502D01*
X17550Y21000D02*
X18060Y20490D01*
X23632Y12490D02*
Y15188D01*
X15350Y28250D02*
X16537D01*
X9665Y14835D02*
Y14835D01*
Y14835D02*
X10375Y14125D01*
X11987D01*
D12*
X19182Y22582D02*
Y23718D01*
X18600Y22000D02*
X19182Y22582D01*
X19860Y22310D02*
Y25744D01*
X19154Y26450D02*
X19860Y25744D01*
X17363Y26450D02*
X19154D01*
X16950Y25950D02*
X19182Y23718D01*
X2550Y24950D02*
X5200Y27600D01*
X2550Y16298D02*
Y24950D01*
Y16298D02*
X3200Y15648D01*
X18050Y19500D02*
X18550Y19000D01*
X15804Y19500D02*
X18050D01*
X14504Y20800D02*
X15804Y19500D01*
X15383Y24167D02*
Y25676D01*
Y24167D02*
X17550Y22000D01*
X19820Y20360D02*
Y20380D01*
Y20360D02*
X24632Y15548D01*
Y12490D02*
Y15548D01*
X22112Y21360D02*
X27182Y16290D01*
X18550Y22000D02*
X18600D01*
X18550Y21000D02*
X19860Y22310D01*
X16950Y27837D02*
X17363Y28250D01*
X16950Y25950D02*
Y27837D01*
X15600Y21000D02*
X17550D01*
X15000Y21600D02*
X15600Y21000D01*
X15000Y21600D02*
Y23900D01*
X14200Y24700D02*
X15000Y23900D01*
X13313Y24700D02*
X14200D01*
X18050Y18500D02*
X18550Y19000D01*
X17188Y18500D02*
X18050D01*
X12813Y14125D02*
X17188Y18500D01*
X8600Y25100D02*
X9550Y26050D01*
X12487D01*
X8600Y23300D02*
X10337D01*
X12487Y24520D02*
Y24700D01*
X10600Y17200D02*
X11050Y16750D01*
X11987D01*
X9700Y16400D02*
X10662Y15438D01*
X11987D01*
X10372Y11500D02*
X11987D01*
X10186Y11686D02*
X10372Y11500D01*
X9700Y13300D02*
X10187Y12812D01*
X11987D01*
X5503Y1794D02*
X5246D01*
X5160Y1822D01*
X5132Y1851D01*
X5103Y1908D01*
Y1994D01*
X5132Y2051D01*
X5160Y2080D01*
X5246Y2108D01*
X5503D01*
Y1508D01*
X4540Y1965D02*
X4569Y2022D01*
X4626Y2080D01*
X4683Y2108D01*
X4797D01*
X4855Y2080D01*
X4912Y2022D01*
X4940Y1965D01*
X4969Y1880D01*
Y1737D01*
X4940Y1651D01*
X4912Y1594D01*
X4855Y1537D01*
X4797Y1508D01*
X4683D01*
X4626Y1537D01*
X4569Y1594D01*
X4540Y1651D01*
X4372Y2108D02*
Y1508D01*
Y2108D02*
X4115D01*
X4029Y2080D01*
X4000Y2051D01*
X3972Y1994D01*
Y1937D01*
X4000Y1880D01*
X4029Y1851D01*
X4115Y1822D01*
X4372D02*
X4115D01*
X4029Y1794D01*
X4000Y1765D01*
X3972Y1708D01*
Y1622D01*
X4000Y1565D01*
X4029Y1537D01*
X4115Y1508D01*
X4372D01*
X3838Y1994D02*
X3780Y2022D01*
X3695Y2108D01*
Y1508D01*
X3226Y2108D02*
X3312Y2080D01*
X3369Y1994D01*
X3398Y1851D01*
Y1765D01*
X3369Y1622D01*
X3312Y1537D01*
X3226Y1508D01*
X3169D01*
X3083Y1537D01*
X3026Y1622D01*
X2998Y1765D01*
Y1851D01*
X3026Y1994D01*
X3083Y2080D01*
X3169Y2108D01*
X3226D01*
X2835Y1965D02*
Y1994D01*
X2806Y2051D01*
X2778Y2080D01*
X2721Y2108D01*
X2606D01*
X2549Y2080D01*
X2521Y2051D01*
X2492Y1994D01*
Y1937D01*
X2521Y1880D01*
X2578Y1794D01*
X2864Y1508D01*
X2464D01*
X1929Y2108D02*
X2215Y1508D01*
X2329Y2108D02*
X1929D01*
X1795Y1994D02*
X1738Y2022D01*
X1652Y2108D01*
Y1508D01*
X1355Y1994D02*
X1298Y2022D01*
X1212Y2108D01*
Y1508D01*
X5946Y1100D02*
Y500D01*
Y1100D02*
X5689D01*
X5603Y1072D01*
X5574Y1043D01*
X5546Y986D01*
Y929D01*
X5574Y872D01*
X5603Y843D01*
X5689Y815D01*
X5946D01*
X5746D02*
X5546Y500D01*
X5040Y1100D02*
X5412D01*
Y500D01*
X5040D01*
X5412Y815D02*
X5183D01*
X4940Y1100D02*
X4712Y500D01*
X4483Y1100D02*
X4712Y500D01*
X3506Y957D02*
X3535Y1015D01*
X3592Y1072D01*
X3649Y1100D01*
X3763D01*
X3820Y1072D01*
X3878Y1015D01*
X3906Y957D01*
X3935Y872D01*
Y729D01*
X3906Y643D01*
X3878Y586D01*
X3820Y529D01*
X3763Y500D01*
X3649D01*
X3592Y529D01*
X3535Y586D01*
X3506Y643D01*
X3166Y1100D02*
X3252Y1072D01*
X3309Y986D01*
X3338Y843D01*
Y757D01*
X3309Y615D01*
X3252Y529D01*
X3166Y500D01*
X3109D01*
X3024Y529D01*
X2966Y615D01*
X2938Y757D01*
Y843D01*
X2966Y986D01*
X3024Y1072D01*
X3109Y1100D01*
X3166D01*
X2332D02*
Y500D01*
Y1100D02*
X2132D01*
X2047Y1072D01*
X1989Y1015D01*
X1961Y957D01*
X1932Y872D01*
Y729D01*
X1961Y643D01*
X1989Y586D01*
X2047Y529D01*
X2132Y500D01*
X2332D01*
X1798Y1100D02*
Y500D01*
Y1100D02*
X1570Y500D01*
X1341Y1100D02*
X1570Y500D01*
X1341Y1100D02*
Y500D01*
X1170Y1100D02*
Y500D01*
X770Y1100D02*
Y500D01*
X1170Y815D02*
X770D01*
D13*
X14400Y22200D02*
Y23400D01*
X3276Y30276D02*
X10276D01*
X2200Y29200D02*
X3276Y30276D01*
X2200Y28600D02*
Y29200D01*
X2600Y30600D02*
X9900D01*
X1200Y29200D02*
X2600Y30600D01*
X1200Y28600D02*
Y29200D01*
X9900Y30600D02*
X11274Y31974D01*
X12437D01*
X18000Y31600D02*
X20700Y28900D01*
X13363Y31600D02*
X18000D01*
X11226Y31226D02*
X12437D01*
X10276Y30276D02*
X11226Y31226D01*
X20700Y22150D02*
Y28900D01*
X18550Y20000D02*
X20700Y22150D01*
X13600Y21400D02*
X14400Y22200D01*
X13600Y16224D02*
Y21400D01*
X12813Y15438D02*
X13600Y16224D01*
X13424Y27876D02*
X14484D01*
X13400Y27900D02*
X13424Y27876D01*
X15409Y26450D02*
X16537D01*
X15383Y26424D02*
X15409Y26450D01*
X13313Y26050D02*
X14517D01*
X12487Y24520D02*
X13333Y23674D01*
X11163Y23300D02*
X12467D01*
D14*
X2820Y11580D02*
X2835Y11565D01*
Y4094D02*
Y11565D01*
D16*
X18550Y23000D02*
D03*
X17550D02*
D03*
X18550Y22000D02*
D03*
X17550D02*
D03*
X18550Y21000D02*
D03*
X17550D02*
D03*
X18550Y20000D02*
D03*
X17550D02*
D03*
X18550Y19000D02*
D03*
X17550D02*
D03*
X18550Y18000D02*
D03*
X17550D02*
D03*
X18550Y17000D02*
D03*
X17550D02*
D03*
X18550Y16000D02*
D03*
D17*
X17550D02*
D03*
D18*
X2835Y4094D02*
D03*
X7835D02*
D03*
D19*
X3000Y32000D02*
D03*
X1250D02*
D03*
D20*
X5200Y28600D02*
D03*
Y27600D02*
D03*
D21*
X3200Y28600D02*
D03*
Y27600D02*
D03*
X2200Y28600D02*
D03*
Y27600D02*
D03*
X1200Y28600D02*
D03*
Y27600D02*
D03*
D22*
X16050Y10617D02*
D03*
X32050D02*
D03*
Y30117D02*
D03*
X16050D02*
D03*
D23*
X26932Y24790D02*
D03*
Y25790D02*
D03*
X25932D02*
D03*
X24932D02*
D03*
Y24790D02*
D03*
X25932D02*
D03*
X27182Y16290D02*
D03*
Y15290D02*
D03*
X24632Y12490D02*
D03*
X23632D02*
D03*
D24*
X6200Y18550D02*
D03*
X6208Y20350D02*
D03*
X12821Y17800D02*
D03*
X6700Y17050D02*
D03*
X6850Y12500D02*
D03*
X1650Y12150D02*
D03*
X16200Y27300D02*
D03*
X16637Y24600D02*
D03*
X19050Y25744D02*
D03*
X9450Y28368D02*
D03*
X2074Y23630D02*
D03*
X7250Y24167D02*
D03*
X8633Y19000D02*
D03*
X18371Y29383D02*
D03*
X22400D02*
D03*
X32728Y27978D02*
D03*
X32650Y13514D02*
D03*
X18873Y13223D02*
D03*
X4450Y25000D02*
D03*
X3200Y15648D02*
D03*
X14504Y20800D02*
D03*
X13050Y21650D02*
D03*
X19820Y20380D02*
D03*
X22112Y21360D02*
D03*
X14400Y23400D02*
D03*
X13400Y27900D02*
D03*
X8600Y25100D02*
D03*
Y23300D02*
D03*
X10600Y17200D02*
D03*
X9700Y16400D02*
D03*
X9665Y14835D02*
D03*
X10186Y11686D02*
D03*
X9700Y13300D02*
D03*
D25*
X13363Y31600D02*
D03*
X12437Y31974D02*
D03*
Y31226D02*
D03*
D26*
X10337Y23300D02*
D03*
X11163D02*
D03*
X11987Y15438D02*
D03*
X12813D02*
D03*
X16537Y26450D02*
D03*
X17363D02*
D03*
X12487Y26050D02*
D03*
X13313D02*
D03*
X12487Y24700D02*
D03*
X13313D02*
D03*
X16537Y28250D02*
D03*
X17363D02*
D03*
X12813Y16750D02*
D03*
X11987D02*
D03*
X12813Y14125D02*
D03*
X11987D02*
D03*
X12813Y12812D02*
D03*
X11987D02*
D03*
X12813Y11500D02*
D03*
X11987D02*
D03*
D27*
X14230Y19000D02*
D03*
X12170D02*
D03*
D28*
X12467Y23300D02*
D03*
X13333Y22926D02*
D03*
Y23674D02*
D03*
X14484Y27876D02*
D03*
X15350Y27502D02*
D03*
Y28250D02*
D03*
X14517Y26050D02*
D03*
X15383Y25676D02*
D03*
Y26424D02*
D03*
D29*
X10700Y19000D02*
X12170D01*
X7835Y16135D02*
X10700Y19000D01*
X7835Y4094D02*
Y16135D01*
X14230Y19000D02*
X17550D01*
M02*
