M48
;Layer_Color=9474304
;FILE_FORMAT=2:4
INCH
;TYPE=PLATED
T1F00S00C0.0200
T2F00S00C0.0354
T3F00S00C0.0480
T4F00S00C0.0500
T5F00S00C0.0680
T6F00S00C0.0900
T7F00S00C0.1270
;TYPE=NON_PLATED
T8F00S00C0.1260
%
T01
X001650Y012150
X003200Y015648
X006700Y017050
X009700Y016400
X009665Y014835
X009700Y013300
X010186Y011686
X006850Y012500
X018873Y013223
X032650Y013514
X032728Y027978
X022400Y029383
X018371
X016200Y027300
X016637Y024600
X014400Y023400
X014504Y020800
X013050Y021650
X012821Y017800
X019820Y020380
X022112Y021360
X019050Y025744
X013400Y027900
X009450Y028368
X008600Y025100
Y023300
X007250Y024167
X004450Y025000
X002074Y023630
X006208Y020350
X006200Y018550
X008633Y019000
X010600Y017200
T02
X017550Y016000
Y017000
X018550
Y016000
Y018000
Y019000
Y020000
Y021000
Y022000
Y023000
X017550
Y022000
Y021000
Y020000
Y019000
Y018000
T03
X005200Y027600
Y028600
T04
X001200Y027600
X002200
X003200
Y028600
X002200
X001200
T05
X023632Y012490
X024632
X027182Y015290
Y016290
X026932Y024790
Y025790
X025932
X024932
Y024790
X025932
T06
X002835Y004094
X007835
T07
X001250Y032000
X003000
T08
X016050Y010617
X032050
Y030117
X016050
M30
